<svg width="88" height="20" viewBox="0 0 88 20" fill="none" xmlns="http://www.w3.org/2000/svg">
<path d="M32.364 15L35.976 5.2H37.6L41.184 15H39.616L38.776 12.606H34.772L33.932 15H32.364ZM35.192 11.43H38.356L36.774 6.964L35.192 11.43ZM42.4946 18.08V8.056H43.8246L43.9786 9.134C44.2026 8.80733 44.5106 8.518 44.9026 8.266C45.2946 8.014 45.7986 7.888 46.4146 7.888C47.0866 7.888 47.6793 8.04667 48.1926 8.364C48.706 8.68133 49.1073 9.11533 49.3966 9.666C49.6953 10.2167 49.8446 10.842 49.8446 11.542C49.8446 12.242 49.6953 12.8673 49.3966 13.418C49.1073 13.9593 48.706 14.3887 48.1926 14.706C47.6793 15.014 47.082 15.168 46.4006 15.168C45.8593 15.168 45.3786 15.0607 44.9586 14.846C44.548 14.6313 44.2213 14.328 43.9786 13.936V18.08H42.4946ZM46.1486 13.88C46.7833 13.88 47.306 13.6653 47.7166 13.236C48.1273 12.7973 48.3326 12.228 48.3326 11.528C48.3326 11.0707 48.2393 10.6647 48.0526 10.31C47.866 9.95533 47.6093 9.68 47.2826 9.484C46.956 9.27867 46.578 9.176 46.1486 9.176C45.514 9.176 44.9913 9.39533 44.5806 9.834C44.1793 10.2727 43.9786 10.8373 43.9786 11.528C43.9786 12.228 44.1793 12.7973 44.5806 13.236C44.9913 13.6653 45.514 13.88 46.1486 13.88ZM51.4497 18.08V8.056H52.7797L52.9337 9.134C53.1577 8.80733 53.4657 8.518 53.8577 8.266C54.2497 8.014 54.7537 7.888 55.3697 7.888C56.0417 7.888 56.6344 8.04667 57.1477 8.364C57.6611 8.68133 58.0624 9.11533 58.3517 9.666C58.6504 10.2167 58.7997 10.842 58.7997 11.542C58.7997 12.242 58.6504 12.8673 58.3517 13.418C58.0624 13.9593 57.6611 14.3887 57.1477 14.706C56.6344 15.014 56.0371 15.168 55.3557 15.168C54.8144 15.168 54.3337 15.0607 53.9137 14.846C53.5031 14.6313 53.1764 14.328 52.9337 13.936V18.08H51.4497ZM55.1037 13.88C55.7384 13.88 56.2611 13.6653 56.6717 13.236C57.0824 12.7973 57.2877 12.228 57.2877 11.528C57.2877 11.0707 57.1944 10.6647 57.0077 10.31C56.8211 9.95533 56.5644 9.68 56.2377 9.484C55.9111 9.27867 55.5331 9.176 55.1037 9.176C54.4691 9.176 53.9464 9.39533 53.5357 9.834C53.1344 10.2727 52.9337 10.8373 52.9337 11.528C52.9337 12.228 53.1344 12.7973 53.5357 13.236C53.9464 13.6653 54.4691 13.88 55.1037 13.88ZM60.4048 15V4.92H61.8888V15H60.4048ZM67.0161 15.168C66.3347 15.168 65.7281 15.0187 65.1961 14.72C64.6734 14.412 64.2627 13.9873 63.9641 13.446C63.6654 12.9047 63.5161 12.2747 63.5161 11.556C63.5161 10.828 63.6607 10.1887 63.9501 9.638C64.2487 9.08733 64.6594 8.658 65.1821 8.35C65.7141 8.042 66.3301 7.888 67.0301 7.888C67.7114 7.888 68.3041 8.042 68.8081 8.35C69.3121 8.64867 69.7041 9.05 69.9841 9.554C70.2641 10.058 70.4041 10.6133 70.4041 11.22C70.4041 11.3133 70.3994 11.416 70.3901 11.528C70.3901 11.6307 70.3854 11.7473 70.3761 11.878H64.9721C65.0187 12.55 65.2381 13.0633 65.6301 13.418C66.0314 13.7633 66.4934 13.936 67.0161 13.936C67.4361 13.936 67.7861 13.8427 68.0661 13.656C68.3554 13.46 68.5701 13.1987 68.7101 12.872H70.1941C70.0074 13.5253 69.6341 14.0713 69.0741 14.51C68.5234 14.9487 67.8374 15.168 67.0161 15.168ZM67.0161 9.106C66.5214 9.106 66.0827 9.25533 65.7001 9.554C65.3174 9.84333 65.0841 10.282 65.0001 10.87H68.9201C68.8921 10.3287 68.7007 9.89933 68.3461 9.582C67.9914 9.26467 67.5481 9.106 67.0161 9.106ZM75.5272 15V5.2H77.0112V15H75.5272ZM78.9999 15V5.2H82.1779C83.3259 5.2 84.2685 5.40067 85.0059 5.802C85.7525 6.20333 86.3032 6.77267 86.6579 7.51C87.0219 8.238 87.2039 9.106 87.2039 10.114C87.2039 11.1127 87.0219 11.9807 86.6579 12.718C86.3032 13.446 85.7525 14.0107 85.0059 14.412C84.2685 14.804 83.3259 15 82.1779 15H78.9999ZM80.4839 13.74H82.1219C83.0085 13.74 83.7085 13.5953 84.2219 13.306C84.7445 13.0167 85.1179 12.6013 85.3419 12.06C85.5752 11.5187 85.6919 10.87 85.6919 10.114C85.6919 9.358 85.5752 8.70467 85.3419 8.154C85.1179 7.60333 84.7445 7.18333 84.2219 6.894C83.7085 6.59533 83.0085 6.446 82.1219 6.446H80.4839V13.74Z" fill="#0B0B1E"/>
<path d="M10.828 1.74045C12.1176 0.00844384 13.9103 0 13.9103 0C13.9103 0 14.177 1.62838 12.8959 3.19703C11.528 4.87199 9.97326 4.59792 9.97326 4.59792C9.97326 4.59792 9.68131 3.28061 10.828 1.74045ZM10.1373 5.73859C10.8007 5.73859 12.0319 4.80931 13.6345 4.80931C16.3932 4.80931 17.4784 6.80964 17.4784 6.80964C17.4784 6.80964 15.3559 7.91552 15.3559 10.5989C15.3559 13.626 18 14.6692 18 14.6692C18 14.6692 16.1517 19.9706 13.6551 19.9706C12.5084 19.9706 11.6169 19.1832 10.4087 19.1832C9.1775 19.1832 7.95568 20 7.1599 20C4.88013 20.0001 2 14.9711 2 10.9286C2 6.95141 4.43784 4.86503 6.72444 4.86503C8.21094 4.86503 9.36447 5.73859 10.1373 5.73859Z" fill="#0B0B1E"/>
</svg>
