<?xml version="1.0" encoding="utf-8"?>
<!-- Generator: Adobe Illustrator 24.0.1, SVG Export Plug-In . SVG Version: 6.00 Build 0)  -->
<svg version="1.1" id="Layer_1" xmlns="http://www.w3.org/2000/svg" xmlns:xlink="http://www.w3.org/1999/xlink" x="0px" y="0px"
	 viewBox="0 0 51 31" style="enable-background:new 0 0 51 31;" xml:space="preserve">
<style type="text/css">
	.st0{fill-rule:evenodd;clip-rule:evenodd;fill:#D1DAEE;}
	.st1{fill:#FFFFFF;}
</style>
<path className="st0" d="M15.9,0.1C17.6,0,19.3,0,21.1,0c0,0,8.8,0,8.8,0c1.8,0,3.5,0,5.3,0.1c1.6,0.1,3.1,0.3,4.7,0.7
	c3.2,0.9,6,2.8,8.1,5.5c2,2.7,3.1,5.9,3.1,9.2c0,3.3-1.1,6.6-3.1,9.2c-2,2.7-4.9,4.6-8.1,5.5c-1.5,0.4-3.1,0.6-4.7,0.7
	C33.4,31,31.7,31,29.9,31c0,0-8.8,0-8.8,0c-1.8,0-3.5,0-5.2-0.1c-1.6-0.1-3.1-0.3-4.7-0.7c-3.2-0.9-6-2.8-8.1-5.5
	c-2-2.7-3.1-5.9-3.1-9.2c0-3.3,1.1-6.6,3.1-9.2c2-2.7,4.9-4.6,8.1-5.5C12.7,0.4,14.3,0.2,15.9,0.1z"/>
<g>
	<path className="st1" d="M15.4,1.5L15.4,1.5c7.8,0,14,6.3,14,14l0,0c0,7.8-6.3,14-14,14l0,0c-7.8,0-14-6.3-14-14l0,0
		C1.4,7.7,7.7,1.5,15.4,1.5z"/>
</g>
</svg>
