<svg width="20" height="20" viewBox="0 0 20 20" fill="none" xmlns="http://www.w3.org/2000/svg">
<path d="M3.76663 4.94506L1.1608 2.34006L2.33996 1.16089L18.8391 17.6609L17.66 18.8392L14.9016 16.0809C13.436 17.0105 11.7356 17.5028 9.99996 17.5001C5.50663 17.5001 1.7683 14.2667 0.984131 10.0001C1.34249 8.05899 2.31882 6.2858 3.76746 4.94506H3.76663ZM12.2975 13.4767L11.0775 12.2567C10.6108 12.48 10.0864 12.553 9.57657 12.4657C9.0667 12.3784 8.59647 12.1351 8.23069 11.7693C7.86491 11.4036 7.62161 10.9333 7.53431 10.4234C7.44702 9.91358 7.52003 9.38918 7.7433 8.92256L6.5233 7.70256C5.99306 8.5038 5.75602 9.46367 5.85232 10.4196C5.94862 11.3756 6.37234 12.2689 7.05173 12.9483C7.73112 13.6277 8.62443 14.0514 9.58039 14.1477C10.5364 14.244 11.4962 14.007 12.2975 13.4767ZM6.64496 3.13339C7.68413 2.72506 8.81663 2.50006 9.99996 2.50006C14.4933 2.50006 18.2316 5.73339 19.0158 10.0001C18.7605 11.3881 18.1865 12.698 17.3391 13.8267L14.1225 10.6101C14.218 9.9664 14.1615 9.30931 13.9574 8.69143C13.7533 8.07356 13.4074 7.51207 12.9472 7.05195C12.4871 6.59182 11.9256 6.24586 11.3078 6.04178C10.6899 5.8377 10.0328 5.78117 9.38913 5.87672L6.64496 3.13422V3.13339Z" fill="#BDC6D8"/>
</svg>
