<svg width="16" height="16" viewBox="0 0 16 16" fill="none" xmlns="http://www.w3.org/2000/svg">
<path fill-rule="evenodd" clip-rule="evenodd" d="M10.9999 8C10.9999 9.65685 9.65679 11 7.99994 11C6.34308 11 4.99994 9.65685 4.99994 8C4.99994 6.34315 6.34308 5 7.99994 5C9.65679 5 10.9999 6.34315 10.9999 8ZM9.49994 8C9.49994 8.82843 8.82837 9.5 7.99994 9.5C7.17151 9.5 6.49994 8.82843 6.49994 8C6.49994 7.17157 7.17151 6.5 7.99994 6.5C8.82837 6.5 9.49994 7.17157 9.49994 8Z" fill="#959CAB"/>
<path fill-rule="evenodd" clip-rule="evenodd" d="M0.822189 5.4322L2.18727 3.06782C2.36349 2.76258 2.72848 2.62123 3.06432 2.72816L4.44205 3.16682C4.62589 3.03163 4.81664 2.90762 5.01318 2.79508C5.20042 2.68741 5.39401 2.58955 5.59326 2.5022L5.90224 1.08973C5.97756 0.745415 6.28246 0.5 6.63491 0.5H9.36507C9.71752 0.5 10.0224 0.745415 10.0977 1.08973L10.4067 2.5022C10.6181 2.59488 10.8232 2.69941 11.021 2.81493C11.2055 2.92215 11.3847 3.03953 11.5578 3.16682L12.9355 2.72816C13.2714 2.62124 13.6363 2.76258 13.8126 3.06782L15.1776 5.4322C15.3539 5.73744 15.2938 6.1242 15.0333 6.36158L13.9645 7.3354C13.989 7.55662 14.0011 7.77822 14.0009 7.99916C14.0012 8.22067 13.9891 8.44283 13.9645 8.66462L15.0333 9.63844C15.2938 9.87582 15.3539 10.2626 15.1776 10.5678L13.8126 12.9322C13.6363 13.2374 13.2714 13.3788 12.9355 13.2719L11.5578 12.8332C11.3826 12.962 11.2011 13.0807 11.0143 13.189C10.8185 13.303 10.6157 13.4062 10.4067 13.4978L10.0977 14.9103C10.0224 15.2546 9.71752 15.5 9.36507 15.5H6.63491C6.28246 15.5 5.97756 15.2546 5.90224 14.9103L5.59326 13.4978C5.39633 13.4115 5.20492 13.3149 5.01972 13.2087C4.82087 13.0951 4.62793 12.9699 4.44205 12.8332L3.06432 13.2719C2.72848 13.3788 2.36349 13.2374 2.18727 12.9322L0.822188 10.5678C0.645961 10.2626 0.706045 9.87582 0.966569 9.63844L2.03532 8.66462C2.01075 8.44311 1.99871 8.22122 1.99892 7.99999C1.99871 7.77877 2.01075 7.5569 2.03532 7.3354L0.96657 6.36158C0.706046 6.1242 0.645961 5.73743 0.822189 5.4322ZM8.7614 2L9.10466 3.5692L9.80447 3.87599C9.96273 3.94536 10.1163 4.02366 10.2647 4.11028L10.2671 4.11168C10.4054 4.19206 10.5396 4.28 10.6692 4.37527L11.2848 4.82794L12.8154 4.34061L13.5768 5.6594L12.3894 6.74128L12.4737 7.50072C12.492 7.66633 12.501 7.83233 12.5009 7.99798L12.5009 8.00078C12.5011 8.16684 12.4921 8.33327 12.4737 8.49928L12.3894 9.25874L13.5768 10.3406L12.8154 11.6594L11.2848 11.1721L10.6692 11.6247C10.538 11.7212 10.4021 11.8101 10.262 11.8913L10.2596 11.8927C10.1128 11.9781 9.96092 12.0554 9.80447 12.124L9.10466 12.4308L8.7614 14H7.23858L6.89532 12.4308L6.19551 12.124C6.0481 12.0594 5.90471 11.987 5.76588 11.9074L5.76343 11.906C5.61433 11.8209 5.46979 11.7271 5.33066 11.6247L4.71507 11.1721L3.18447 11.6594L2.42306 10.3406L3.6104 9.25874L3.52618 8.49929C3.50779 8.33348 3.49876 8.16726 3.49892 8.0014L3.49892 7.99859C3.49876 7.83274 3.50779 7.66653 3.52618 7.50073L3.6104 6.74128L2.42306 5.6594L3.18447 4.34061L4.71507 4.82794L5.33066 4.37527C5.46827 4.27408 5.61116 4.18118 5.75853 4.0968L5.76097 4.0954C5.90134 4.01467 6.04636 3.94137 6.19551 3.87599L6.89532 3.5692L7.23858 2H8.7614Z" fill="#959CAB"/>
</svg>
