<svg width="21" height="23" viewBox="0 0 21 23" fill="none" xmlns="http://www.w3.org/2000/svg">
<path d="M20 13.0745C20 14.602 19.6114 16.064 18.9119 17.3406C18.8564 17.4388 18.8009 17.537 18.7454 17.6352C18.168 18.6062 17.4242 19.4682 16.5359 20.1556C15.0482 21.323 13.1829 22.0213 11.1511 21.9995C11.14 21.9995 11.1289 21.9995 11.1178 21.9995C11.0512 21.9995 10.9845 21.9995 10.9068 21.9995C10.8069 21.9995 10.707 21.9886 10.607 21.9886C10.5071 21.9886 10.3961 21.9777 10.2962 21.9668C10.2296 21.9668 10.1629 21.9559 10.0852 21.9449C5.61079 21.5085 3.06826 18.879 2.25775 15.6821C1.18078 11.4597 3.69001 8.06641 5.87726 6.06973C8.0423 4.09487 10.4405 2 10.4405 2C10.4405 2 14.9038 4.95683 14.3709 11.1323C14.4264 11.1978 14.3487 11.1433 14.5929 11.1323C14.8927 11.1214 15.2591 11.056 15.6477 10.8596C17.3242 10.0631 18.2347 7.80455 18.2347 7.80455C19.356 9.28842 20 11.1105 20 13.0745Z" stroke="#66A5FD" stroke-width="2"/>
</svg>
