<svg width="21" height="23" viewBox="0 0 21 23" fill="none" xmlns="http://www.w3.org/2000/svg">
<path d="M20 12.908C20 14.4355 19.6114 15.8975 18.9119 17.1741C18.8564 17.2723 18.8009 17.3705 18.7454 17.4687C18.168 18.4397 17.4242 19.3017 16.5359 19.9891C15.0482 21.1565 13.1829 21.8548 11.1511 21.833C11.14 21.833 11.1289 21.833 11.1178 21.833C11.0512 21.833 10.9845 21.833 10.9068 21.833C10.8069 21.833 10.707 21.8221 10.607 21.8221C10.5071 21.8221 10.3961 21.8112 10.2962 21.8003C10.2296 21.8003 10.1629 21.7894 10.0852 21.7784C5.61079 21.342 3.06826 18.7125 2.25775 15.5156C1.18078 11.2932 3.69001 7.8999 5.87726 5.90323C8.0423 3.92837 10.4405 1.8335 10.4405 1.8335C10.4405 1.8335 14.9038 4.79032 14.3709 10.9658C14.4264 11.0313 14.3487 10.9768 14.5929 10.9658C14.8927 10.9549 15.2591 10.8895 15.6477 10.6931C17.3242 9.89658 18.2347 7.63804 18.2347 7.63804C19.356 9.12191 20 10.944 20 12.908Z" stroke="#959CAB" stroke-width="2"/>
</svg>
