<svg width="32" height="32" viewBox="0 0 32 32" fill="none" xmlns="http://www.w3.org/2000/svg">
<path d="M4 17C4 10.3726 9.37258 5 16 5C22.6274 5 28 10.3726 28 17C28 23.6274 22.6274 29 16 29C9.37258 29 4 23.6274 4 17Z" fill="white" fill-opacity="0.13"/>
<path d="M11.0279 16.4757C10.7378 19.2271 12.7329 21.6832 15.476 21.9724C18.2192 22.2617 20.6827 20.2757 20.9728 17.5243C21.2629 14.7729 19.2678 12.3168 16.5246 12.0276C13.7806 11.7466 11.3171 13.7326 11.0279 16.4757ZM18.9092 17.3067C18.7397 18.9145 17.3014 20.0784 15.6936 19.9089C14.0859 19.7393 12.9219 18.301 13.0915 16.6933C13.261 15.0855 14.6993 13.9216 16.3071 14.0911C17.9148 14.2606 19.0779 15.7072 18.9092 17.3067Z" fill="url(#paint0_linear)"/>
<defs>
<linearGradient id="paint0_linear" x1="11.0279" y1="16.4757" x2="20.9728" y2="17.5243" gradientUnits="userSpaceOnUse">
<stop stop-color="#F87AFF"/>
<stop offset="1" stop-color="#BF65FF"/>
</linearGradient>
</defs>
</svg>
