<svg width="16" height="16" viewBox="0 0 16 16" fill="none" xmlns="http://www.w3.org/2000/svg">
<g clip-path="url(#clip0)">
<path fill-rule="evenodd" clip-rule="evenodd" d="M7.05262 11.7895C9.6687 11.7895 11.7895 9.66877 11.7895 7.05268C11.7895 4.43659 9.6687 2.31584 7.05262 2.31584C4.43653 2.31584 2.31578 4.43659 2.31578 7.05268C2.31578 9.66877 4.43653 11.7895 7.05262 11.7895ZM7.05262 12.7369C10.1919 12.7369 12.7368 10.192 12.7368 7.05268C12.7368 3.91338 10.1919 1.36847 7.05262 1.36847C3.91332 1.36847 1.36841 3.91338 1.36841 7.05268C1.36841 10.192 3.91332 12.7369 7.05262 12.7369Z" fill="white"/>
<path fill-rule="evenodd" clip-rule="evenodd" d="M10.0029 11.0067C10.1965 10.8308 10.4961 10.8452 10.672 11.0389L13.6082 14.2716C13.7841 14.4652 13.7697 14.7648 13.5761 14.9407C13.3824 15.1166 13.0828 15.1022 12.9069 14.9085L9.9707 11.6758C9.79481 11.4822 9.80921 11.1826 10.0029 11.0067Z" fill="white"/>
</g>
<defs>
<clipPath id="clip0">
<rect width="15.1579" height="15.1579" fill="white" transform="translate(0.421021 0.421082)"/>
</clipPath>
</defs>
</svg>
