<svg width="20" height="20" viewBox="0 0 20 20" fill="none" xmlns="http://www.w3.org/2000/svg">
<path d="M3.76639 4.94499L1.16055 2.33999L2.33972 1.16083L18.8389 17.6608L17.6597 18.8392L14.9014 16.0808C13.4357 17.0105 11.7353 17.5028 9.99972 17.5C5.50639 17.5 1.76805 14.2667 0.983887 9.99999C1.34224 8.05893 2.31858 6.28574 3.76722 4.94499H3.76639ZM12.2972 13.4767L11.0772 12.2567C10.6106 12.4799 10.0862 12.5529 9.57633 12.4656C9.06646 12.3784 8.59622 12.135 8.23045 11.7693C7.86467 11.4035 7.62136 10.9333 7.53407 10.4234C7.44677 9.91352 7.51979 9.38912 7.74305 8.92249L6.52305 7.70249C5.99282 8.50374 5.75578 9.46361 5.85208 10.4196C5.94838 11.3755 6.3721 12.2688 7.05149 12.9482C7.73088 13.6276 8.62418 14.0513 9.58015 14.1476C10.5361 14.2439 11.496 14.0069 12.2972 13.4767ZM6.64472 3.13333C7.68389 2.72499 8.81639 2.49999 9.99972 2.49999C14.4931 2.49999 18.2314 5.73333 19.0156 9.99999C18.7602 11.3881 18.1863 12.698 17.3389 13.8267L14.1222 10.61C14.2178 9.96634 14.1612 9.30925 13.9572 8.69137C13.7531 8.0735 13.4071 7.512 12.947 7.05188C12.4869 6.59176 11.9254 6.2458 11.3075 6.04172C10.6896 5.83764 10.0325 5.78111 9.38889 5.87666L6.64472 3.13416V3.13333Z" fill="#BDC6D8"/>
</svg>
