<svg width="71" height="65" viewBox="0 0 71 65" fill="none" xmlns="http://www.w3.org/2000/svg">
<path d="M31.4346 64.4269C31.4257 64.4244 31.4169 64.4219 31.4056 64.4219C31.4031 64.4193 31.3993 64.4193 31.3943 64.4193H31.3918L31.3893 64.4168C31.3867 64.4168 31.3842 64.4168 31.3804 64.4143H31.3691C31.3641 64.4118 31.3578 64.4118 31.3528 64.4093H31.3465C31.3377 64.4068 31.3263 64.4043 31.315 64.403C31.2873 64.398 31.2584 64.3917 31.2269 64.3854H31.2244C31.208 64.3829 31.1955 64.3804 31.1766 64.3766C31.1376 64.3704 31.0948 64.3603 31.0495 64.349C31.0432 64.349 31.0331 64.3465 31.0243 64.344C30.8771 64.3151 30.7034 64.2762 30.5071 64.231C30.4908 64.2285 30.4757 64.2247 30.4593 64.2197C30.1183 64.1406 29.7093 64.0376 29.2463 63.907C29.1972 63.8932 29.1469 63.8794 29.0978 63.8643C28.9443 63.8216 28.7857 63.7739 28.6234 63.7249H28.6209C28.4044 63.6571 28.1754 63.5855 27.9388 63.5089C27.8596 63.4813 27.7803 63.4549 27.6972 63.4298C27.5374 63.3733 27.3726 63.3168 27.2027 63.259H27.2002C27.0328 63.1987 26.8592 63.1347 26.683 63.0719H26.6805C26.425 62.9777 26.1633 62.876 25.894 62.7705C25.0182 62.4252 24.0694 62.0108 23.0728 61.5198C23.0501 61.5085 23.0275 61.4997 23.0048 61.4884C22.8463 61.4093 22.689 61.3302 22.5304 61.2473C22.5279 61.2448 22.5241 61.2423 22.5191 61.241C12.1666 55.9216 -2.86441 42.2476 0.474002 8.10846C0.476519 8.09967 0.476519 8.09088 0.476519 8.07957C0.670306 6.10803 0.925752 4.06616 1.24663 1.95397C1.30577 1.56468 1.36618 1.16911 1.43161 0.774805C1.43161 0.772294 1.43161 0.772294 1.43161 0.772294C1.45174 0.636671 1.47439 0.502305 1.49956 0.366683V0.361659C1.50208 0.330265 1.50837 0.298871 1.51592 0.267477C1.51592 0.256175 1.51844 0.244874 1.52095 0.233572C1.52725 0.193387 1.5348 0.150691 1.54109 0.107996C1.54109 0.105484 1.54109 0.105484 1.54109 0.102973C1.5436 0.0941822 1.54612 0.0828803 1.54738 0.07409C1.54738 0.0690669 1.5499 0.0652996 1.5499 0.0602766C1.55241 0.0514863 1.55493 0.0426959 1.55493 0.0326498C1.55493 0.0276268 1.55745 0.0238595 1.55745 0.0188364V0.0113019C1.55745 0.00627881 1.55996 0.00502305 1.55996 0H1.56248V0.00251152C1.56751 0.00502305 1.57129 0.00753457 1.57632 0.00879034C1.58765 0.0150691 1.59897 0.0226037 1.6103 0.0288825C1.61281 0.0313941 1.61659 0.0339056 1.6191 0.0339056C1.66944 0.0627881 1.716 0.0929264 1.76382 0.121809C1.77262 0.128088 1.78143 0.133111 1.7915 0.13939C1.82044 0.155715 1.84813 0.170784 1.87455 0.188364C1.87707 0.188364 1.87958 0.190876 1.87958 0.190876C1.88462 0.199666 1.88839 0.208457 1.89343 0.219758C1.89846 0.23106 1.90223 0.244874 1.90727 0.257431C1.94754 0.354125 1.98906 0.455842 2.03185 0.557558C2.0633 0.636671 2.09476 0.715784 2.12874 0.796153C2.31875 1.25827 2.52386 1.75681 2.7403 2.28298C2.74282 2.28549 2.74282 2.28925 2.74533 2.29177C3.05489 3.04271 3.38835 3.85393 3.75076 4.72292C3.75327 4.72543 3.75327 4.72794 3.75327 4.7292C3.75579 4.73422 3.75831 4.73548 3.75957 4.7405C4.29688 6.04147 4.88831 7.46551 5.52755 8.99377L5.5414 9.02516C12.2446 25.0399 23.9486 52.1606 31.1049 63.8831L31.1074 63.8856C31.1665 63.9798 31.2231 64.0753 31.281 64.1669C31.281 64.1694 31.281 64.1694 31.2836 64.172V64.1745C31.3125 64.2222 31.3427 64.2687 31.3716 64.3164C31.3804 64.3302 31.3893 64.344 31.3993 64.3566V64.3591C31.4056 64.3679 31.4106 64.3766 31.4157 64.3867C31.4182 64.3917 31.4207 64.393 31.422 64.3955C31.4232 64.4068 31.4283 64.4181 31.4346 64.4269Z" fill="url(#paint0_linear)"/>
<path opacity="0.1" d="M31.4352 64.427C31.4264 64.4245 31.4176 64.422 31.4063 64.422C31.4038 64.4195 31.4 64.4195 31.395 64.4195H31.3924L31.3899 64.417C31.3874 64.417 31.3849 64.417 31.3811 64.4145H31.3698C31.3648 64.4119 31.3585 64.4119 31.3534 64.4094H31.3471C31.3383 64.4069 31.327 64.4044 31.3157 64.4032C31.288 64.3981 31.2591 64.3919 31.2276 64.3856H31.2251C31.2087 64.3831 31.1961 64.3805 31.1773 64.3768C31.1383 64.3705 31.0955 64.3605 31.0502 64.3492C31.0439 64.3492 31.0338 64.3466 31.025 64.3441C30.8778 64.3152 30.7041 64.2763 30.5078 64.2311C30.4915 64.2286 30.4764 64.2248 30.46 64.2198C30.119 64.1407 29.71 64.0377 29.2469 63.9071C29.1979 63.8933 29.1475 63.8795 29.0985 63.8644C28.9449 63.8217 28.7864 63.774 28.6241 63.725H28.6215C28.4051 63.6572 28.1761 63.5856 27.9395 63.509C27.8602 63.4814 27.781 63.4551 27.6979 63.4299C27.5381 63.3734 27.3733 63.3169 27.2034 63.2592H27.2009C27.0335 63.1989 26.8598 63.1348 26.6837 63.072H26.6812C26.4257 62.9779 26.164 62.8761 25.8947 62.7707C25.0868 62.4479 24.2211 62.0725 23.3113 61.6304C23.2974 61.6241 23.2836 61.6191 23.2685 61.6103C23.1099 61.5337 22.9527 61.4521 22.7903 61.3717C22.7815 61.3667 22.7727 61.3629 22.7626 61.3579C12.4592 56.1453 -2.72155 42.6056 0.460826 8.51043C0.657129 6.40326 0.923901 4.21447 1.26743 1.94782C1.32154 1.57988 1.38068 1.20817 1.43857 0.836468V0.828933C1.46373 0.68452 1.48639 0.537596 1.51029 0.394439V0.391928L1.51281 0.389416C1.51784 0.352999 1.52162 0.317838 1.52917 0.281421V0.278909C1.53169 0.265096 1.5342 0.256305 1.53546 0.242492C1.54679 0.170914 1.55811 0.100591 1.57195 0.0277567C1.57195 0.0252451 1.57195 0.0252451 1.57195 0.0227336C1.57195 0.0177106 1.57447 0.0114317 1.57447 0.00640869C1.5858 0.0126875 1.59712 0.0202221 1.60845 0.0265009C1.61096 0.0290124 1.61474 0.0315239 1.61725 0.0315239C1.66759 0.0604065 1.71415 0.0905448 1.76196 0.119427C1.76196 0.125706 1.75945 0.133241 1.75945 0.139519C1.75064 0.199796 1.74183 0.266351 1.73176 0.331651C1.72925 0.342953 1.72673 0.351743 1.72673 0.363045C1.72421 0.374347 1.7217 0.385649 1.72044 0.396951V0.399462C1.72044 0.413276 1.71792 0.427089 1.71541 0.439647C1.70408 0.525038 1.69024 0.615453 1.67765 0.709635C1.67765 0.718426 1.67514 0.727216 1.67514 0.737262V0.74103C1.63487 1.03613 1.59209 1.36263 1.5493 1.72555V1.72806C1.54301 1.78206 1.53546 1.83857 1.52917 1.89507C1.52665 1.9001 1.52665 1.90135 1.52665 1.90638C0.552686 10.1932 -0.801303 34.506 15.8291 52.6718C20.7682 58.0653 26.1703 61.6957 30.9168 64.1583C30.9193 64.1608 30.9218 64.1633 30.9231 64.1633C31.0313 64.2198 31.1395 64.2763 31.2465 64.3303C31.2754 64.3466 31.3031 64.3592 31.3295 64.373C31.332 64.373 31.3346 64.3755 31.3358 64.378C31.3383 64.378 31.3383 64.378 31.3408 64.3805C31.3434 64.3805 31.3434 64.3805 31.3459 64.3805C31.3459 64.3831 31.3459 64.3831 31.3459 64.3831C31.3547 64.3881 31.3622 64.3893 31.371 64.3944C31.3761 64.3969 31.3799 64.3994 31.3849 64.4006C31.3874 64.4032 31.3899 64.4031 31.3912 64.4057C31.3924 64.4082 31.3975 64.4082 31.4 64.4107C31.405 64.4132 31.4063 64.4157 31.4113 64.4157C31.4201 64.4182 31.4264 64.4232 31.4352 64.427Z" fill="url(#paint1_linear)"/>
<path opacity="0.5" d="M35.7641 49.7102C35.5515 51.8625 35.1652 53.9245 34.653 55.8785C34.648 55.8985 34.6442 55.9161 34.6366 55.9375C34.6316 55.9551 34.6278 55.9689 34.6228 55.9852C34.6178 56.0015 34.614 56.0166 34.6115 56.0329C34.609 56.0379 34.6064 56.0417 34.6064 56.0492C33.864 58.8433 32.8674 61.4201 31.7613 63.7458C31.7563 63.7571 31.75 63.7684 31.7449 63.7797C31.6594 63.9555 31.5751 64.1338 31.4895 64.3071C31.4895 64.287 31.492 64.2669 31.4895 64.2481V64.2456C31.492 64.2205 31.492 64.1979 31.492 64.1753V64.1665C31.492 64.0849 31.4945 64.0045 31.4945 63.9254V63.9229C31.6531 49.3774 31.6254 48.7922 31.6254 48.7922C31.0264 35.7524 24.3043 25.7238 19.9907 19.2893C14.5873 11.2185 8.40877 5.36039 3.07209 1.24149C3.06705 1.23647 3.06328 1.23522 3.06076 1.2327C3.04315 1.21638 3.02427 1.20382 3.00665 1.19001C3.0293 1.1762 3.05195 1.16489 3.06957 1.14982C3.12116 1.11341 3.17401 1.07573 3.22812 1.03932C3.23316 1.03429 3.23945 1.03053 3.24574 1.02802C5.08671 2.16322 6.82702 3.30597 8.4742 4.44871C8.47672 4.45122 8.47924 4.45373 8.47924 4.45373C36.4348 23.8716 37.3522 43.9738 34.7776 55.341C35.2243 53.5465 35.5653 51.6666 35.7641 49.7102Z" fill="url(#paint2_linear)"/>
<path d="M31.4341 64.4269C31.4278 64.4206 31.4177 64.4131 31.4114 64.4068C31.4089 64.4043 31.4052 64.4018 31.4026 64.4005C31.3976 64.3955 31.3963 64.3942 31.3913 64.3892C31.3888 64.3892 31.3888 64.3867 31.3863 64.3867C31.38 64.3804 31.3724 64.3754 31.3661 64.3691C31.3523 64.3578 31.341 64.3465 31.3284 64.3352C31.3196 64.3289 31.3083 64.3189 31.2995 64.3076L31.2969 64.3051C31.2831 64.2963 31.2718 64.285 31.2579 64.2762V64.2737C31.1321 64.1632 31 64.0502 30.8716 63.9384C30.8691 63.9334 30.8653 63.9296 30.8603 63.9271C25.3839 59.1087 17.8716 51.2841 11.8013 39.9006C4.41849 26.0546 2.39883 12.9946 1.92065 4.37886C1.8527 3.16202 1.81495 2.03561 1.79859 1.00714C1.79859 0.987044 1.79608 0.968207 1.79608 0.950627V0.944348C1.79356 0.822539 1.79356 0.703242 1.79104 0.583944V0.509854C1.78853 0.492273 1.78853 0.470925 1.79104 0.453345C1.78853 0.43702 1.78853 0.424462 1.79104 0.408137V0.405626C1.78853 0.322746 1.78601 0.241121 1.78601 0.159496V0.139404C1.81495 0.155729 1.84264 0.170798 1.86906 0.188379L1.8829 0.217262L1.90052 0.257446L2.04523 0.570131L2.16981 0.836352V0.838864L3.69871 4.16035C3.69871 4.16538 3.70374 4.17166 3.705 4.17668L5.86308 8.8657C5.86811 8.87197 5.86937 8.88202 5.8744 8.8883C5.8744 8.89081 5.87692 8.89081 5.87692 8.89332L31.1673 63.8492C31.1673 63.8517 31.1698 63.8543 31.1698 63.8555C31.1724 63.8605 31.1724 63.8618 31.1749 63.8668L31.3674 64.2812L31.3964 64.3377V64.344L31.414 64.3817L31.419 64.393L31.4341 64.4269Z" fill="url(#paint3_linear)"/>
<path d="M34.7763 55.3405C34.7713 55.3719 34.7625 55.4033 34.7537 55.4347C34.7487 55.4522 34.7449 55.4711 34.7398 55.4862C34.7373 55.4912 34.7348 55.4949 34.7348 55.5C33.9244 58.7097 32.7718 61.6394 31.492 64.2413L31.4895 64.2438V64.2464C31.4895 64.2489 31.487 64.2489 31.487 64.2514C31.4807 64.269 31.4706 64.2853 31.4618 64.3029V64.3054C31.453 64.3255 31.4417 64.3443 31.4304 64.3644C31.4279 64.3669 31.4279 64.3707 31.4253 64.3732C31.4228 64.3795 31.4191 64.387 31.4165 64.3933C31.4165 64.3933 31.414 64.3958 31.414 64.3983C31.4115 64.4008 31.4115 64.4033 31.409 64.4071C31.409 64.4096 31.4065 64.4121 31.4065 64.4134C31.4039 64.4159 31.4014 64.4184 31.4014 64.4222C31.4014 64.4247 31.3989 64.4247 31.3989 64.4272C31.3964 64.4247 31.3926 64.4222 31.3901 64.4209H31.3876L31.3851 64.4184V64.4159C31.3826 64.4134 31.3788 64.4109 31.3763 64.4109C31.3712 64.4058 31.37 64.4046 31.3649 64.3996C31.3561 64.3945 31.3486 64.3883 31.3398 64.382C31.3373 64.3795 31.3373 64.3795 31.3347 64.3795C31.3322 64.377 31.3322 64.377 31.3297 64.377C31.3272 64.3744 31.3247 64.3719 31.3234 64.3719L31.3209 64.3669C31.3159 64.3644 31.3146 64.3606 31.3096 64.3581C31.3045 64.3518 31.3008 64.3443 31.2957 64.338C31.2932 64.3355 31.2932 64.333 31.2907 64.3317C31.2794 64.3142 31.2655 64.2953 31.2517 64.2752V64.2727C23.3794 51.7101 9.574 19.2913 3.36402 4.36784L3.3162 4.26235C3.04314 3.59931 2.78518 2.97269 2.5398 2.38499C2.5398 2.38248 2.53728 2.37871 2.53477 2.3762C2.26799 1.72697 2.0201 1.13425 1.79234 0.584226V0.575435C1.77849 0.54153 1.76465 0.507624 1.75207 0.473719C1.74074 0.448603 1.73193 0.426 1.72061 0.40214V0.399629C1.71432 0.382048 1.70677 0.365723 1.70048 0.348142C1.68034 0.300423 1.66272 0.25396 1.64133 0.206241C1.61868 0.145965 1.59352 0.090711 1.57338 0.0329459L1.57087 0.0304344C1.57087 0.0279229 1.57087 0.0279229 1.57087 0.0254113C1.56835 0.0254113 1.56835 0.0228998 1.56835 0.0228998C1.56583 0.016621 1.56206 0.00908643 1.55954 0.00280762C1.56457 0.00531914 1.56835 0.00783067 1.57338 0.00908643C1.58471 0.0153652 1.59603 0.0228998 1.60736 0.0291786C1.60987 0.0316902 1.61365 0.0342017 1.61617 0.0342017C1.6665 0.0630842 1.71306 0.0932225 1.76088 0.122105C1.76969 0.128384 1.77849 0.133407 1.78856 0.139686C1.8175 0.156011 1.84519 0.17108 1.87161 0.18866C1.87413 0.18866 1.87665 0.191172 1.87665 0.191172C1.99871 0.26275 2.12077 0.338096 2.24283 0.409675V0.412186C2.58132 0.616875 2.91605 0.820309 3.24825 1.02751C5.08923 2.16272 6.82953 3.30546 8.47672 4.44821C8.47924 4.45072 8.48175 4.45323 8.48175 4.45323C36.4349 23.8711 37.3509 43.9733 34.7763 55.3405Z" fill="url(#paint4_linear)"/>
<path d="M31.493 64.1752C31.4842 64.2129 31.4754 64.2543 31.4653 64.292C31.4653 64.297 31.4628 64.2983 31.4628 64.3033V64.3058C31.4515 64.346 31.4427 64.3874 31.4339 64.4276C31.4314 64.41 31.4288 64.3912 31.4276 64.3736V64.3598C31.4225 64.3284 31.4213 64.2945 31.4163 64.2606C31.3986 64.0911 31.3798 63.9203 31.3596 63.7495V63.7357C30.5216 56.2652 28.7083 46.906 24.8036 36.6514C19.097 21.6576 11.119 10.5416 4.67497 3.12508C4.67245 3.12257 4.66993 3.12006 4.66868 3.11629C4.06341 2.41934 3.4745 1.75755 2.90069 1.12591C2.89817 1.12591 2.89817 1.12339 2.89817 1.12339C2.69054 0.898613 2.48921 0.678854 2.28787 0.462863V0.460352C2.27025 0.442771 2.25389 0.426446 2.24005 0.411377C2.57855 0.616066 2.91327 0.8195 3.24548 1.0267C5.08645 2.16191 6.82675 3.30465 8.47394 4.4474C8.47646 4.44991 8.47897 4.45242 8.47897 4.45242C8.58719 4.5353 8.69289 4.62195 8.80363 4.70985C8.80992 4.71487 8.81495 4.71864 8.82124 4.72366C11.0976 6.53071 13.5162 8.68811 15.9322 11.2461C19.891 15.4378 28.0074 24.2432 31.4314 38.3279C34.0676 49.1563 32.803 58.4866 31.493 64.1752Z" fill="url(#paint5_linear)"/>
<path opacity="0.1" d="M32.5112 44.9839C29.1514 18.4195 6.43939 3.3265 1.5079 0.228537C1.51545 0.209701 1.51671 0.19212 1.51294 0.174539C1.5142 0.16826 1.51797 0.161982 1.51797 0.155703C1.5293 0.124309 1.54314 0.0929148 1.55069 0.0590092C1.5532 0.0464516 1.55446 0.0326382 1.55572 0.0200806C50.3585 29.2266 33.0423 61.5826 31.3687 64.4608C32.6409 59.1665 33.4613 52.4971 32.5112 44.9839Z" fill="url(#paint6_linear)"/>
<path d="M37.2191 64.5696C37.2191 64.5633 37.2191 64.5583 37.2166 64.5508C37.2179 64.5495 37.2166 64.5457 37.2154 64.5432V64.542L37.2166 64.5407C37.2166 64.5395 37.2154 64.5382 37.2166 64.5344L37.2141 64.5282C37.2141 64.5256 37.2128 64.5206 37.2141 64.5181L37.2128 64.5143C37.2128 64.5081 37.2116 64.5018 37.2116 64.4942C37.2091 64.4767 37.2078 64.4578 37.2065 64.4377V64.4365C37.2053 64.4264 37.204 64.4176 37.2028 64.4063C37.2003 64.3825 37.1977 64.3549 37.1965 64.326C37.1952 64.3222 37.1952 64.3159 37.1952 64.3097C37.1864 64.2167 37.1776 64.105 37.1688 63.9794C37.1675 63.9693 37.1675 63.9593 37.1675 63.9492C37.1524 63.7307 37.1411 63.467 37.1348 63.1657C37.1336 63.133 37.1336 63.1016 37.1336 63.069C37.131 62.9698 37.131 62.8655 37.131 62.76V62.7588C37.1323 62.6169 37.1336 62.4675 37.1373 62.3105C37.1386 62.2577 37.1411 62.2063 37.1411 62.151C37.1461 62.0443 37.1499 61.9363 37.1537 61.8232V61.822C37.16 61.7115 37.1663 61.5947 37.1713 61.4779V61.4767C37.1814 61.3071 37.1952 61.1313 37.2091 60.9517C37.2569 60.364 37.3336 59.7211 37.4469 59.0355C37.4494 59.0204 37.4507 59.0053 37.4532 58.989C37.4721 58.8797 37.4909 58.7705 37.5123 58.6612C37.5136 58.66 37.5136 58.6562 37.5148 58.6537C38.8248 51.4846 44.3074 39.9943 65.4377 35.7725C65.444 35.7725 65.4491 35.77 65.4554 35.7687C66.676 35.5251 67.9507 35.3066 69.2782 35.1132C69.5236 35.0768 69.7715 35.0416 70.0207 35.009C70.0219 35.009 70.0219 35.009 70.0219 35.009C70.1075 34.9964 70.1918 34.9851 70.2786 34.9751L70.2812 34.9738C70.3 34.97 70.3202 34.9675 70.3416 34.9663C70.3478 34.9638 70.3554 34.9638 70.3629 34.9625C70.3881 34.9587 70.4158 34.955 70.4422 34.9512C70.4435 34.9512 70.4435 34.9512 70.4447 34.95C70.451 34.95 70.4573 34.9487 70.4636 34.9487C70.4661 34.9474 70.4699 34.9487 70.4724 34.9474C70.4787 34.9474 70.4837 34.9474 70.49 34.9449C70.4926 34.9437 70.4963 34.9449 70.4988 34.9437L70.5039 34.9424C70.5064 34.9412 70.5089 34.9424 70.5114 34.9412V34.9424H70.5102C70.5102 34.9449 70.5089 34.9487 70.5089 34.9512C70.5064 34.9587 70.5051 34.9675 70.5026 34.9751C70.5014 34.9763 70.5014 34.9801 70.5014 34.9813C70.4926 35.0165 70.4837 35.0504 70.4749 35.0843C70.4724 35.0906 70.4712 35.0969 70.4687 35.1044C70.4649 35.1245 70.4598 35.1433 70.4535 35.1634C70.4535 35.1647 70.4535 35.1659 70.4535 35.1659C70.4485 35.1697 70.4447 35.1747 70.4384 35.1798C70.4322 35.1848 70.4246 35.1898 70.4183 35.1948C70.368 35.2363 70.3139 35.2802 70.261 35.3242C70.2195 35.3581 70.178 35.3907 70.1352 35.4259C69.8923 35.623 69.6306 35.8378 69.3525 36.0638C69.3512 36.0651 69.3487 36.0663 69.3475 36.0676C68.9523 36.3891 68.5257 36.7369 68.069 37.1124C68.0677 37.1136 68.0665 37.1149 68.0652 37.1149C68.0627 37.1174 68.0614 37.1187 68.0602 37.1212C67.3769 37.68 66.6281 38.294 65.8253 38.9546L65.809 38.9684C57.4031 45.8989 43.2328 57.8475 37.4884 64.2682L37.4872 64.2695C37.4406 64.3222 37.394 64.3724 37.35 64.4252C37.3487 64.4252 37.3487 64.4252 37.3475 64.4277H37.3462C37.3236 64.4541 37.2997 64.4804 37.277 64.5068C37.2707 64.5143 37.2644 64.5231 37.2581 64.5307H37.2569C37.2531 64.5369 37.2481 64.5407 37.243 64.5445C37.2405 64.547 37.2393 64.5482 37.2393 64.5508C37.2292 64.5583 37.2229 64.5633 37.2191 64.5696Z" fill="url(#paint7_linear)"/>
<path opacity="0.1" d="M37.219 64.5693C37.219 64.5631 37.219 64.558 37.2165 64.5505C37.2177 64.5492 37.2165 64.5455 37.2152 64.543V64.5417L37.2165 64.5405C37.2165 64.5392 37.2152 64.5379 37.2165 64.5342L37.2139 64.5279C37.2139 64.5254 37.2127 64.5204 37.2139 64.5178L37.2127 64.5141C37.2127 64.5078 37.2114 64.5015 37.2114 64.494C37.2089 64.4764 37.2076 64.4576 37.2064 64.4375V64.4362C37.2051 64.4262 37.2039 64.4174 37.2026 64.4061C37.2001 64.3822 37.1976 64.3546 37.1963 64.3257C37.1951 64.3219 37.1951 64.3157 37.1951 64.3094C37.1863 64.2165 37.1774 64.1047 37.1686 63.9791C37.1674 63.9691 37.1674 63.959 37.1674 63.949C37.1523 63.7305 37.141 63.4668 37.1347 63.1654C37.1334 63.1327 37.1334 63.1013 37.1334 63.0687C37.1309 62.9695 37.1309 62.8653 37.1309 62.7598V62.7585C37.1321 62.6166 37.1334 62.4672 37.1372 62.3102C37.1384 62.2575 37.141 62.206 37.141 62.1507C37.146 62.044 37.1498 61.936 37.1535 61.823V61.8217C37.1598 61.7112 37.1661 61.5944 37.1712 61.4777V61.4764C37.1812 61.3069 37.1951 61.1311 37.2089 60.9515C37.2555 60.409 37.3234 59.8226 37.4241 59.1972C37.4253 59.1884 37.4253 59.1784 37.4279 59.1683C37.4455 59.0603 37.4656 58.9498 37.4845 58.838C37.4857 58.8318 37.487 58.8255 37.4883 58.8192C38.7441 51.699 44.1173 40.1435 65.1935 35.8375C66.4959 35.5713 67.8599 35.3315 69.2856 35.1243C69.5159 35.0904 69.75 35.0577 69.9853 35.0251L69.9891 35.0238C70.0809 35.0125 70.1728 34.9987 70.2634 34.9874H70.2646L70.2659 34.9886C70.2886 34.9849 70.3112 34.9811 70.3339 34.9786H70.3351C70.3439 34.9773 70.3489 34.9773 70.3578 34.9761C70.4031 34.9698 70.4471 34.9635 70.4937 34.9585C70.4949 34.9585 70.4949 34.9585 70.4962 34.9573C70.4987 34.956 70.5037 34.956 70.5062 34.956C70.5037 34.9635 70.5025 34.9723 70.5 34.9799C70.4987 34.9811 70.4987 34.9849 70.4987 34.9861C70.4899 35.0213 70.4811 35.0552 70.4723 35.0891C70.4685 35.0904 70.4635 35.0904 70.4597 35.0916C70.4219 35.0979 70.3804 35.1042 70.3401 35.1105C70.3326 35.1117 70.3276 35.1117 70.32 35.113C70.3125 35.1142 70.3062 35.1142 70.2986 35.1155H70.2974C70.2898 35.118 70.281 35.1192 70.2722 35.1205C70.2181 35.1293 70.1615 35.1381 70.1023 35.1469C70.0973 35.1481 70.091 35.1494 70.086 35.1506H70.0847C69.8997 35.1795 69.6959 35.2134 69.4694 35.2549H69.4681C69.4341 35.2611 69.3989 35.2674 69.3637 35.2724C69.3611 35.2724 69.3586 35.2724 69.3561 35.2737C64.1969 36.2005 49.3357 39.8196 41.4445 53.0854C39.1027 57.0247 37.9035 60.9201 37.2882 64.2102C37.2869 64.2114 37.2869 64.214 37.2869 64.2152C37.2731 64.2906 37.2592 64.3659 37.2454 64.4387C37.2416 64.4588 37.2379 64.4777 37.2353 64.4965C37.2353 64.4978 37.2353 64.499 37.2341 64.5015C37.2341 64.5028 37.2341 64.5028 37.2341 64.504C37.2341 64.5053 37.2341 64.5053 37.2353 64.5065C37.2341 64.5065 37.2341 64.5065 37.2341 64.5065C37.2328 64.5128 37.2328 64.5179 37.2316 64.5229C37.2316 64.5254 37.2303 64.5292 37.2303 64.5317C37.229 64.5329 37.2303 64.5342 37.229 64.5367C37.2278 64.5379 37.229 64.5417 37.2278 64.543C37.2278 64.5455 37.2265 64.548 37.2265 64.5505C37.2215 64.558 37.2202 64.5631 37.219 64.5693Z" fill="url(#paint8_linear)"/>
<path opacity="0.5" d="M46.8541 64.4791C45.5216 64.744 44.2116 64.8885 42.9432 64.9374C42.9306 64.9387 42.918 64.9387 42.9054 64.9387C42.8941 64.9387 42.8853 64.9387 42.874 64.9387C42.8639 64.9387 42.8538 64.9387 42.8438 64.9399C42.8413 64.9399 42.8375 64.9387 42.8337 64.9399C41.0179 65.004 39.2889 64.8771 37.6883 64.6386C37.6807 64.6386 37.6732 64.636 37.6656 64.6348C37.5448 64.616 37.4215 64.5984 37.302 64.5783C37.3146 64.5745 37.3271 64.572 37.3372 64.567H37.3385C37.3536 64.5632 37.3674 64.5594 37.3812 64.5557L37.3863 64.5544C37.4354 64.5394 37.4844 64.5268 37.5323 64.5117H37.5335C46.3055 61.9562 46.6528 61.8332 46.6528 61.8332C54.3829 59.0994 59.186 53.2475 62.2677 49.4928C66.1347 44.7874 68.5293 40.0206 70.0343 36.0762C70.0356 36.0724 70.0368 36.0699 70.0381 36.0674C70.0444 36.0536 70.0494 36.041 70.0544 36.0272C70.067 36.0385 70.0771 36.0498 70.0909 36.0574C70.1224 36.0825 70.1551 36.1063 70.1866 36.1315C70.1903 36.1327 70.1941 36.1365 70.1966 36.1402C69.8493 37.4487 69.4794 38.6995 69.0931 39.8937C69.0918 39.895 69.0905 39.8975 69.0905 39.8975C62.5119 60.1718 50.594 64.3824 43.2917 64.9123C44.4507 64.8558 45.6424 64.7164 46.8541 64.4791Z" fill="url(#paint9_linear)"/>
<path d="M37.2191 64.5698C37.2217 64.5648 37.2242 64.5585 37.2267 64.5523C37.228 64.551 37.228 64.5472 37.2292 64.546C37.2305 64.5422 37.2317 64.541 37.2342 64.5372C37.2342 64.5359 37.2355 64.5359 37.2342 64.5347C37.2368 64.5297 37.238 64.5246 37.2418 64.5196C37.2456 64.5096 37.2506 64.5008 37.2556 64.4907C37.2582 64.4845 37.2619 64.4757 37.267 64.4681L37.2682 64.4669C37.2707 64.4568 37.2758 64.448 37.2783 64.438H37.2795C37.3223 64.3426 37.3664 64.2434 37.4117 64.1454C37.4142 64.1429 37.4154 64.1391 37.4167 64.1366C39.3156 59.98 42.6502 54.0566 48.387 48.3479C55.3659 41.4061 62.8493 37.8171 67.9406 35.9611C68.6604 35.6986 69.3298 35.4701 69.9452 35.2742C69.9578 35.2704 69.9678 35.2654 69.9791 35.2629L69.9829 35.2616C70.0559 35.2378 70.1276 35.2164 70.1994 35.1938L70.2447 35.18C70.2547 35.175 70.2673 35.1712 70.2786 35.17C70.2874 35.1662 70.2963 35.1637 70.3063 35.1612H70.3076C70.3579 35.1448 70.4057 35.1285 70.4548 35.1134L70.4674 35.1097C70.4636 35.1298 70.4586 35.1486 70.4523 35.1687L70.4372 35.1825L70.4158 35.2014L70.2535 35.3445L70.1163 35.4676H70.115L68.3961 36.9883C68.3936 36.9896 68.3898 36.9933 68.3873 36.9958L65.9625 39.1407C65.9587 39.1444 65.9537 39.1482 65.9512 39.152C65.9499 39.152 65.9499 39.1532 65.9486 39.1545L37.5212 64.3074C37.5199 64.3074 37.5186 64.3099 37.5174 64.3099C37.5149 64.3124 37.5136 64.3124 37.5111 64.3149L37.2972 64.5058L37.2682 64.5334L37.2644 64.5347L37.2443 64.5523L37.238 64.5573L37.2191 64.5698Z" fill="url(#paint10_linear)"/>
<path d="M43.2897 64.915C43.2696 64.9175 43.2495 64.9187 43.2293 64.9187C43.218 64.9187 43.2054 64.92 43.1953 64.92C43.1928 64.92 43.1891 64.9187 43.1865 64.92C41.109 65.0192 39.1384 64.8635 37.3402 64.5709L37.339 64.5696H37.3377C37.3364 64.5696 37.3364 64.5684 37.3352 64.5696C37.3226 64.5684 37.3125 64.5659 37.3 64.5646H37.2987C37.2849 64.5633 37.2723 64.5596 37.2572 64.5558C37.2559 64.5546 37.2521 64.5558 37.2509 64.5546C37.2458 64.5546 37.2421 64.5533 37.237 64.5533C37.237 64.5533 37.2358 64.552 37.2345 64.5533C37.2333 64.552 37.232 64.5533 37.2282 64.552C37.227 64.552 37.2257 64.552 37.2232 64.552C37.2219 64.5508 37.2194 64.5495 37.2169 64.5508C37.2156 64.5508 37.2156 64.5495 37.2144 64.5508C37.2156 64.5495 37.2156 64.5458 37.2169 64.5445V64.5433L37.2182 64.542H37.2194C37.2207 64.5407 37.2207 64.537 37.2207 64.5357C37.2232 64.532 37.2232 64.5307 37.2257 64.5269C37.227 64.5207 37.2295 64.5156 37.232 64.5094C37.2333 64.5081 37.2333 64.5081 37.232 64.5068C37.2333 64.5056 37.2333 64.5056 37.232 64.5043C37.2333 64.5031 37.2345 64.5006 37.2333 64.4993L37.2358 64.4968C37.2358 64.4943 37.2383 64.4918 37.2396 64.488C37.2433 64.4842 37.2458 64.4805 37.2496 64.4767C37.2509 64.4754 37.2521 64.4742 37.2534 64.4729C37.2622 64.4629 37.271 64.4516 37.2798 64.4403H37.2811C43.3979 57.4344 60.3719 43.2631 68.2114 36.826L68.2668 36.7783C68.6153 36.4945 68.945 36.2257 69.2533 35.9708C69.2546 35.9708 69.2571 35.9683 69.2584 35.9671C69.5994 35.6895 69.9114 35.4321 70.1996 35.196L70.2046 35.1948C70.2223 35.1809 70.2399 35.1659 70.2588 35.1521C70.2713 35.1408 70.2839 35.1307 70.2965 35.1194H70.2978C70.3078 35.1119 70.3154 35.1056 70.3254 35.0981C70.3506 35.0767 70.3758 35.0579 70.3997 35.0365C70.4324 35.0114 70.4601 34.9876 70.4916 34.965L70.4928 34.9637C70.4941 34.9637 70.4941 34.9637 70.4953 34.9624C70.4953 34.9612 70.4966 34.9612 70.4966 34.9612C70.5004 34.9587 70.5029 34.9549 70.5067 34.9524C70.5067 34.9549 70.5054 34.9587 70.5054 34.9612C70.5029 34.9687 70.5016 34.9775 70.4991 34.985C70.4978 34.9863 70.4978 34.9901 70.4978 34.9913C70.489 35.0265 70.4802 35.0604 70.4714 35.0943C70.4689 35.1006 70.4676 35.1069 70.4651 35.1144C70.4613 35.1345 70.4563 35.1533 70.45 35.1734C70.45 35.1747 70.45 35.1759 70.45 35.1759C70.4286 35.2626 70.406 35.3492 70.3858 35.4346H70.3846C70.3229 35.6745 70.2625 35.9118 70.1984 36.1479C69.8511 37.4564 69.4811 38.7071 69.0948 39.9014C69.0935 39.9026 69.0923 39.9051 69.0923 39.9051C62.5098 60.1732 50.5919 64.385 43.2897 64.915Z" fill="url(#paint11_linear)"/>
<path d="M37.3815 64.5585C37.3563 64.5598 37.3311 64.5623 37.306 64.5635C37.3035 64.5648 37.3009 64.5635 37.2984 64.5648H37.2972C37.2707 64.5648 37.2443 64.5673 37.2191 64.5698C37.2292 64.5648 37.2405 64.561 37.2506 64.556L37.2582 64.5535C37.2758 64.5447 37.2959 64.5372 37.316 64.5284C37.4142 64.4869 37.5136 64.4442 37.613 64.4016L37.6206 64.399C41.9594 62.5367 47.2545 59.7452 52.7083 55.5396C60.6812 49.3914 65.9097 42.5903 69.194 37.3814C69.1952 37.3801 69.1952 37.3776 69.1978 37.3751C69.5061 36.8853 69.7967 36.4119 70.0723 35.9536C70.0723 35.9523 70.0736 35.9523 70.0736 35.9523C70.1717 35.7865 70.2661 35.6271 70.3592 35.4663H70.3605C70.368 35.4525 70.3743 35.44 70.3819 35.4286C70.3202 35.6685 70.2598 35.9058 70.1956 36.1419C69.8483 37.4504 69.4784 38.7012 69.0921 39.8954C69.0908 39.8966 69.0895 39.8992 69.0895 39.8992C69.0593 39.9795 69.0266 40.0586 68.9939 40.1403C68.9926 40.1453 68.9901 40.1491 68.9889 40.1541C68.3169 41.8456 67.4612 43.6865 66.3639 45.6003C64.5657 48.7347 60.7517 55.1968 52.9071 59.813C46.8783 63.363 41.0395 64.3061 37.3815 64.5585Z" fill="url(#paint12_linear)"/>
<path opacity="0.1" d="M49.104 61.6713C64.4597 54.8199 69.395 38.4736 70.3589 34.9562C70.3714 34.9575 70.3828 34.955 70.3928 34.9487C70.3966 34.9487 70.4016 34.9499 70.4054 34.9487C70.4268 34.9499 70.4482 34.9524 70.4696 34.9499C70.4771 34.9487 70.486 34.9474 70.4935 34.9462C61.8285 69.4846 39.2234 65.0129 37.1874 64.5357C40.6013 64.3322 44.7602 63.6089 49.104 61.6713Z" fill="url(#paint13_linear)"/>
<path d="M40.2163 42.9886C40.215 42.9861 40.2125 42.9824 40.21 42.9799C40.21 42.9786 40.2088 42.9773 40.2075 42.9761V42.9748V42.9736C40.2075 42.9723 40.2062 42.9723 40.2062 42.9711L40.2037 42.9673C40.2037 42.966 40.2012 42.9635 40.2012 42.9623L40.1999 42.9598C40.1987 42.9573 40.1962 42.9535 40.1936 42.9497C40.1886 42.9409 40.1823 42.9309 40.1773 42.9208V42.9196C40.1735 42.9146 40.171 42.9108 40.1685 42.9045C40.1609 42.892 40.1521 42.8781 40.1446 42.8618C40.1433 42.8593 40.1408 42.8568 40.1395 42.8543C40.1119 42.8053 40.0791 42.7475 40.0426 42.681C40.0389 42.676 40.0364 42.6709 40.0338 42.6647C39.9709 42.5491 39.8992 42.4097 39.8212 42.2477C39.8124 42.2302 39.8036 42.2126 39.796 42.195C39.7696 42.141 39.7444 42.0858 39.718 42.028V42.0267C39.6828 41.9489 39.6463 41.8673 39.6098 41.7819C39.5972 41.753 39.5859 41.7241 39.572 41.6952C39.5481 41.6362 39.5229 41.5759 39.4978 41.5144V41.5131C39.4739 41.4516 39.4474 41.3863 39.4223 41.3223V41.321C39.3858 41.2256 39.3493 41.1276 39.3115 41.0259C39.1907 40.6944 39.0725 40.3264 38.963 39.9258C38.9605 39.9171 38.9579 39.9083 38.9554 39.8995C38.9378 39.8354 38.9215 39.7714 38.9051 39.7073C38.9051 39.7061 38.9051 39.7048 38.9038 39.7023C37.8292 35.4817 37.945 27.8793 48.3729 20.3422C48.3755 20.341 48.378 20.3385 48.3818 20.336C48.9845 19.9015 49.6225 19.4657 50.2957 19.0312C50.4203 18.9509 50.5461 18.8705 50.6732 18.7901C50.6745 18.7901 50.6745 18.7901 50.6745 18.7901C50.7173 18.7625 50.7613 18.7349 50.8053 18.7085L50.8066 18.7072C50.8154 18.6997 50.8267 18.6947 50.8368 18.6884C50.8406 18.6859 50.8431 18.6834 50.8469 18.6809C50.8595 18.6721 50.8733 18.6645 50.8871 18.6557C50.8884 18.6557 50.8884 18.6557 50.8884 18.6545C50.8909 18.6532 50.8947 18.6507 50.8985 18.6495C50.8997 18.6482 50.901 18.6482 50.9022 18.647C50.9048 18.6457 50.9085 18.6432 50.911 18.6419C50.9123 18.6407 50.9136 18.6407 50.9148 18.6394L50.9173 18.6369C50.9186 18.6357 50.9199 18.6357 50.9211 18.6344V18.6357H50.9199C50.9199 18.6369 50.9211 18.6394 50.9211 18.6407C50.9224 18.6457 50.9224 18.6507 50.9236 18.6557C50.9236 18.657 50.9236 18.6583 50.9249 18.6595C50.9287 18.6809 50.9324 18.701 50.9362 18.7223C50.9362 18.7261 50.9375 18.7298 50.9375 18.7349C50.94 18.7474 50.9425 18.7587 50.9438 18.77C50.9438 18.7713 50.9438 18.7713 50.9438 18.7713C50.9425 18.775 50.9412 18.7788 50.9387 18.7826C50.9362 18.7863 50.9337 18.7914 50.9312 18.7964C50.9136 18.8316 50.8959 18.868 50.8783 18.9056C50.8645 18.9345 50.8494 18.9622 50.8355 18.9923C50.7525 19.1606 50.6631 19.3414 50.5688 19.5323C50.5688 19.5335 50.5675 19.5348 50.5675 19.536C50.4329 19.8085 50.2882 20.1036 50.1334 20.4213C50.1334 20.4226 50.1321 20.4226 50.1321 20.4239C50.1309 20.4251 50.1309 20.4264 50.1309 20.4289C49.8981 20.9023 49.6451 21.4209 49.3733 21.9797L49.3683 21.9911C46.5282 27.8416 41.8069 37.8501 40.2855 42.7639V42.7651C40.2729 42.8053 40.2603 42.8442 40.249 42.8832C40.2478 42.8832 40.2478 42.8832 40.2478 42.8844C40.2415 42.9045 40.2352 42.9246 40.2301 42.9447C40.2289 42.951 40.2276 42.956 40.2251 42.9623C40.2238 42.966 40.2226 42.9698 40.2213 42.9736C40.2201 42.9748 40.2201 42.9761 40.2201 42.9773C40.2188 42.9799 40.2176 42.9849 40.2163 42.9886Z" fill="url(#paint14_linear)"/>
<path opacity="0.1" d="M40.2169 42.9888C40.2156 42.9863 40.2131 42.9825 40.2106 42.98C40.2106 42.9787 40.2094 42.9775 40.2081 42.9762V42.975V42.9737C40.2081 42.9725 40.2068 42.9725 40.2068 42.9712L40.2043 42.9674C40.2043 42.9662 40.2018 42.9637 40.2018 42.9624L40.2005 42.9599C40.1993 42.9574 40.1968 42.9536 40.1943 42.9499C40.1892 42.9411 40.1829 42.931 40.1779 42.921V42.9197C40.1741 42.9147 40.1716 42.9109 40.1691 42.9046C40.1615 42.8921 40.1527 42.8783 40.1452 42.862C40.1439 42.8594 40.1414 42.8569 40.1401 42.8544C40.1125 42.8054 40.0797 42.7477 40.0432 42.6811C40.0395 42.6761 40.037 42.6711 40.0344 42.6648C39.9715 42.5493 39.8998 42.4099 39.8218 42.2479C39.813 42.2303 39.8042 42.2127 39.7966 42.1951C39.7702 42.1411 39.745 42.0859 39.7186 42.0281V42.0269C39.6834 41.949 39.6469 41.8674 39.6104 41.782C39.5978 41.7531 39.5865 41.7242 39.5726 41.6954C39.5487 41.6363 39.5235 41.5761 39.4984 41.5145V41.5133C39.4745 41.4517 39.448 41.3864 39.4229 41.3224V41.3211C39.3864 41.2257 39.3499 41.1277 39.3121 41.026C39.2027 40.7196 39.0932 40.3843 38.9913 40.0202C38.99 40.0151 38.9875 40.0101 38.9862 40.0026C38.9686 39.9398 38.9523 39.8745 38.9346 39.8092C38.9334 39.8054 38.9321 39.8017 38.9321 39.7979C37.8399 35.6175 37.8801 28.0063 48.2578 20.4366C48.8996 19.9682 49.5803 19.4998 50.3039 19.0339C50.4209 18.9573 50.5392 18.8819 50.6588 18.8066L50.6613 18.8053C50.7078 18.7765 50.7544 18.7463 50.801 18.7174H50.8022H50.8035C50.8148 18.7099 50.8261 18.7024 50.8374 18.6948H50.8387C50.8425 18.6923 50.8463 18.6911 50.85 18.6873C50.8727 18.6722 50.8953 18.6584 50.9192 18.6446C50.9205 18.6446 50.9205 18.6446 50.9205 18.6434C50.9218 18.6421 50.9243 18.6408 50.9255 18.6396C50.9268 18.6446 50.9268 18.6496 50.928 18.6547C50.928 18.6559 50.928 18.6572 50.9293 18.6584C50.9331 18.6798 50.9369 18.6999 50.9406 18.7212C50.9381 18.7225 50.9369 18.7237 50.9343 18.7262C50.9155 18.7388 50.8941 18.7526 50.8739 18.7664C50.8702 18.7689 50.8676 18.7702 50.8639 18.7727C50.8601 18.7752 50.8563 18.7765 50.8525 18.779H50.8513C50.8475 18.7827 50.8437 18.7853 50.8387 18.7878C50.8123 18.8053 50.7833 18.8242 50.7531 18.8443C50.7506 18.8468 50.7481 18.848 50.7456 18.8506H50.7443C50.6512 18.9121 50.5493 18.9812 50.436 19.059H50.4348C50.4184 19.0703 50.4008 19.0829 50.3832 19.0942C50.3819 19.0942 50.3807 19.0954 50.3794 19.0967C47.8073 20.8811 40.6347 26.5346 39.6532 35.6991C39.3625 38.4203 39.6821 40.8339 40.1678 42.7753C40.1678 42.7766 40.1678 42.7778 40.1678 42.7778C40.1792 42.8218 40.1905 42.867 40.2005 42.9097C40.2031 42.9222 40.2068 42.9323 40.2094 42.9436C40.2094 42.9448 40.2094 42.9448 40.2094 42.9461C40.2094 42.9473 40.2094 42.9473 40.2094 42.9473C40.2094 42.9486 40.2094 42.9486 40.2106 42.9486C40.2094 42.9486 40.2094 42.9486 40.2094 42.9486C40.2106 42.9524 40.2119 42.9549 40.2119 42.9586C40.2119 42.9599 40.2131 42.9624 40.2131 42.9637C40.2131 42.9649 40.2131 42.9649 40.2131 42.9662C40.2131 42.9674 40.2144 42.9687 40.2144 42.9699C40.2144 42.9712 40.2144 42.9725 40.2156 42.9737C40.2156 42.9825 40.2156 42.985 40.2169 42.9888Z" fill="url(#paint15_linear)"/>
<path opacity="0.5" d="M45.4281 40.5487C44.77 41.0234 44.0942 41.4265 43.4173 41.7681C43.411 41.7718 43.4047 41.7756 43.3971 41.7781C43.3908 41.7819 43.3858 41.7831 43.3808 41.7857C43.3757 41.7882 43.3694 41.7907 43.3644 41.7944C43.3631 41.7944 43.3606 41.7957 43.3594 41.797C42.3892 42.2829 41.4177 42.6433 40.4891 42.9096C40.4853 42.9108 40.4803 42.9121 40.4752 42.9133C40.4048 42.9334 40.3343 42.9535 40.2638 42.9723C40.2701 42.9673 40.2764 42.9623 40.2802 42.9573H40.2814C40.289 42.9523 40.2953 42.946 40.3016 42.941L40.3041 42.9384C40.3267 42.9183 40.3506 42.8983 40.372 42.8794H40.3733C44.502 39.3143 44.6605 39.1611 44.6605 39.1611C48.1789 35.758 49.3302 31.3867 50.0689 28.5813C50.9976 25.0652 51.1108 21.8818 50.9447 19.3653C50.9447 19.3627 50.9447 19.3615 50.9447 19.3602C50.9447 19.3514 50.9435 19.3427 50.9435 19.3339C50.9523 19.3364 50.9611 19.3401 50.9711 19.3414C50.9938 19.3464 51.0177 19.3514 51.0416 19.3577C51.0441 19.3577 51.0466 19.359 51.0492 19.3602C51.1863 20.1576 51.2971 20.9287 51.3851 21.6733C51.3851 21.6746 51.3851 21.6759 51.3851 21.6759C52.8612 34.3239 47.4364 39.5692 43.601 41.6701C44.2163 41.3499 44.8291 40.9782 45.4281 40.5487Z" fill="url(#paint16_linear)"/>
<path d="M40.2156 42.9878C40.2156 42.9841 40.2156 42.9803 40.2156 42.9765C40.2156 42.9753 40.2156 42.974 40.2156 42.9728C40.2156 42.9703 40.2156 42.969 40.2156 42.9665C40.2156 42.9652 40.2156 42.9652 40.2156 42.9652C40.2156 42.9615 40.2156 42.959 40.2156 42.9552C40.2156 42.9489 40.2156 42.9426 40.2156 42.9364C40.2156 42.9326 40.2156 42.9263 40.2156 42.9213V42.92C40.2144 42.9137 40.2156 42.9075 40.2144 42.9024H40.2156C40.2156 42.8397 40.2144 42.7756 40.2144 42.7116C40.2156 42.7103 40.2156 42.7078 40.2144 42.7053C40.2106 39.9765 40.5466 35.9305 42.2403 31.4059C44.3015 25.9019 47.4738 22.0957 49.7779 19.824C50.1038 19.5026 50.4108 19.2125 50.6952 18.9538C50.7015 18.9488 50.7053 18.9437 50.7103 18.9387L50.7128 18.9375C50.7468 18.9061 50.7795 18.8772 50.8135 18.8471L50.8349 18.8282C50.8399 18.8232 50.8449 18.8182 50.8512 18.8144C50.855 18.8094 50.8588 18.8069 50.8638 18.8031H50.8651C50.8877 18.7818 50.9104 18.7604 50.933 18.7403L50.9393 18.7353C50.9418 18.7478 50.9444 18.7592 50.9456 18.7705L50.9406 18.7818L50.9343 18.7968L50.8827 18.9149L50.8386 19.0153H50.8374L50.2825 20.2673C50.2812 20.2686 50.2799 20.2711 50.2799 20.2736L49.4972 22.0405C49.496 22.043 49.4947 22.0467 49.4935 22.0492C49.4922 22.0492 49.4935 22.0505 49.4922 22.0505L40.315 42.7706C40.3138 42.7706 40.3138 42.7718 40.3138 42.7731C40.3125 42.7744 40.3125 42.7756 40.3113 42.7769L40.242 42.9338L40.2332 42.9564L40.2307 42.9577L40.2244 42.9728L40.2219 42.9765L40.2156 42.9878Z" fill="url(#paint17_linear)"/>
<path d="M43.6009 41.6696C43.5909 41.6759 43.5795 41.6809 43.5682 41.6872C43.5619 41.691 43.5556 41.6935 43.5506 41.696C43.5493 41.696 43.5468 41.6973 43.5456 41.6985C42.442 42.2674 41.3321 42.673 40.2826 42.9593H40.2814H40.2801H40.2789C40.2726 42.9618 40.265 42.9631 40.2587 42.9656C40.2512 42.9681 40.2424 42.9693 40.2348 42.9719C40.2336 42.9719 40.2323 42.9731 40.2311 42.9731C40.2285 42.9744 40.226 42.9744 40.2235 42.9756H40.2222C40.221 42.9756 40.221 42.9756 40.2185 42.9769C40.2172 42.9769 40.2172 42.9769 40.216 42.9781C40.2147 42.9781 40.2134 42.9781 40.2122 42.9794C40.2109 42.9794 40.2109 42.9794 40.2109 42.9794C40.2109 42.9781 40.2109 42.9769 40.2109 42.9756V42.9744V42.9731C40.2109 42.9719 40.2109 42.9706 40.2097 42.9693C40.2097 42.9668 40.2097 42.9656 40.2097 42.9631C40.2084 42.9593 40.2084 42.9555 40.2084 42.9518C40.2084 42.9505 40.2084 42.9505 40.2084 42.9505C40.2084 42.9492 40.2084 42.9492 40.2084 42.9492C40.2084 42.948 40.2084 42.9467 40.2084 42.9467L40.2097 42.9455C40.2097 42.9442 40.2097 42.9417 40.2097 42.9405C40.2109 42.9379 40.2109 42.9342 40.2122 42.9317C40.2122 42.9304 40.2134 42.9304 40.2134 42.9292C40.216 42.9216 40.2172 42.9128 40.2197 42.904H40.221C41.799 37.5796 47.4892 25.6687 50.1444 20.2262L50.162 20.1861C50.2803 19.9449 50.3922 19.7177 50.4967 19.5029C50.498 19.5029 50.498 19.5004 50.498 19.4991C50.6137 19.2631 50.7194 19.0471 50.8176 18.8462L50.8201 18.8436C50.8264 18.8311 50.8327 18.8198 50.839 18.8072C50.8427 18.7984 50.8478 18.7896 50.8515 18.7809H50.8528C50.8566 18.7746 50.8591 18.7683 50.8629 18.762C50.8717 18.7444 50.8805 18.7281 50.888 18.7105C50.8994 18.6892 50.9082 18.6691 50.9195 18.649V18.6477C50.9208 18.6477 50.9208 18.6477 50.9208 18.6465C50.9208 18.6452 50.9208 18.6452 50.9208 18.6452C50.922 18.6427 50.9233 18.6402 50.9245 18.6377C50.9245 18.639 50.9258 18.6415 50.9258 18.6427C50.9271 18.6477 50.927 18.6528 50.9283 18.6578C50.9283 18.659 50.9283 18.6603 50.9296 18.6616C50.9333 18.6829 50.9371 18.703 50.9409 18.7243C50.9409 18.7281 50.9421 18.7319 50.9421 18.7369C50.9447 18.7495 50.9472 18.7608 50.9484 18.7721C50.9484 18.7733 50.9484 18.7733 50.9484 18.7733C50.9585 18.8248 50.9673 18.8775 50.9774 18.9303H50.9761C51.0026 19.076 51.029 19.2204 51.0529 19.3648C51.19 20.1622 51.3008 20.9332 51.3889 21.6779C51.3889 21.6792 51.3889 21.6804 51.3889 21.6804C52.8611 34.3234 47.4364 39.5687 43.6009 41.6696Z" fill="url(#paint18_linear)"/>
<path d="M40.3021 42.9421C40.2895 42.9496 40.2756 42.9572 40.2618 42.9635C40.2605 42.9647 40.2593 42.9647 40.258 42.966C40.2442 42.9723 40.2303 42.981 40.2165 42.9873C40.2215 42.9823 40.2253 42.9773 40.2303 42.9723L40.2341 42.9685C40.2417 42.9597 40.2505 42.9509 40.2593 42.9409C40.3021 42.8944 40.3461 42.8467 40.3889 42.7977L40.3927 42.7939C42.2852 40.7056 44.4672 37.8751 46.3824 34.2372C49.1823 28.9178 50.3274 23.9261 50.8144 20.2807C50.8144 20.2794 50.8144 20.2781 50.8156 20.2769C50.8609 19.9341 50.9012 19.6051 50.9364 19.2873V19.2861C50.9478 19.1718 50.9603 19.0613 50.9704 18.9521H50.9717C50.9717 18.942 50.9729 18.9345 50.9742 18.9269C51.0006 19.0726 51.027 19.217 51.0509 19.3614C51.1881 20.1588 51.2988 20.9299 51.3869 21.6745C51.3869 21.6758 51.3869 21.6771 51.3869 21.6771C51.3907 21.7285 51.3932 21.7788 51.3957 21.8315C51.3957 21.834 51.3957 21.8365 51.397 21.8403C51.4536 22.9265 51.4473 24.1383 51.3278 25.4506C51.1315 27.5992 50.6697 32.0572 47.559 36.5114C45.1643 39.9358 42.2261 41.8973 40.3021 42.9421Z" fill="url(#paint19_linear)"/>
<path opacity="0.1" d="M45.9503 38.4649C52.5856 30.9316 51.1939 20.8265 50.8415 18.6766C50.8491 18.6741 50.8541 18.6703 50.8579 18.6641C50.8604 18.6628 50.8629 18.6628 50.8642 18.6603C50.8755 18.6553 50.8881 18.6515 50.8994 18.6452C50.9032 18.6427 50.907 18.6402 50.912 18.6377C54.8104 39.5524 41.414 42.732 40.1896 42.9781C41.9941 42.02 44.0741 40.5947 45.9503 38.4649Z" fill="url(#paint20_linear)"/>
<defs>
<linearGradient id="paint0_linear" x1="-10.4121" y1="10.6422" x2="31.0472" y2="49.4175" gradientUnits="userSpaceOnUse">
<stop stop-color="#2BE8FA"/>
<stop offset="0.1481" stop-color="#2CE5FA"/>
<stop offset="0.2714" stop-color="#30DAFA"/>
<stop offset="0.3857" stop-color="#36C9F9"/>
<stop offset="0.494" stop-color="#3FB1F9"/>
<stop offset="0.5088" stop-color="#40ADF9"/>
<stop offset="1" stop-color="#477EF7"/>
</linearGradient>
<linearGradient id="paint1_linear" x1="0.0305093" y1="32.2184" x2="31.4355" y2="32.2184" gradientUnits="userSpaceOnUse">
<stop stop-color="white"/>
<stop offset="0.9207" stop-color="white" stop-opacity="0.0792859"/>
<stop offset="1" stop-color="white" stop-opacity="0"/>
</linearGradient>
<linearGradient id="paint2_linear" x1="0.994043" y1="32.6663" x2="35.7636" y2="32.6663" gradientUnits="userSpaceOnUse">
<stop stop-color="#42A1F8"/>
<stop offset="1" stop-color="white" stop-opacity="0"/>
</linearGradient>
<linearGradient id="paint3_linear" x1="10.1864" y1="39.463" x2="17.8623" y2="30.8496" gradientUnits="userSpaceOnUse">
<stop stop-color="#40A6F9"/>
<stop offset="1" stop-color="#2BE8FA" stop-opacity="0"/>
</linearGradient>
<linearGradient id="paint4_linear" x1="26.5493" y1="20.1125" x2="-1.92723" y2="54.4846" gradientUnits="userSpaceOnUse">
<stop stop-color="#2BE8FA"/>
<stop offset="0.1481" stop-color="#2CE5FA"/>
<stop offset="0.2714" stop-color="#30DAFA"/>
<stop offset="0.3857" stop-color="#36C9F9"/>
<stop offset="0.494" stop-color="#3FB1F9"/>
<stop offset="0.5088" stop-color="#40ADF9"/>
<stop offset="1" stop-color="#477EF7"/>
</linearGradient>
<linearGradient id="paint5_linear" x1="7.64595" y1="45.7846" x2="20.7892" y2="26.5946" gradientUnits="userSpaceOnUse">
<stop stop-color="#42A1F8"/>
<stop offset="0.1361" stop-color="#40A8F8"/>
<stop offset="0.3391" stop-color="#39BDF9"/>
<stop offset="0.583" stop-color="#2EDEFA"/>
<stop offset="0.5851" stop-color="#2EDEFA"/>
<stop offset="1" stop-color="#2BE8FA" stop-opacity="0"/>
</linearGradient>
<linearGradient id="paint6_linear" x1="1.50804" y1="32.2409" x2="35.7037" y2="32.2409" gradientUnits="userSpaceOnUse">
<stop stop-color="#2BE8FA"/>
<stop offset="0.1481" stop-color="#2CE5FA" stop-opacity="0.8835"/>
<stop offset="0.2714" stop-color="#30DAFA" stop-opacity="0.7867"/>
<stop offset="0.3857" stop-color="#36C9F9" stop-opacity="0.6968"/>
<stop offset="0.494" stop-color="#3FB1F9" stop-opacity="0.6116"/>
<stop offset="0.5088" stop-color="#40ADF9" stop-opacity="0.6"/>
<stop offset="1" stop-color="#477EF7" stop-opacity="0"/>
</linearGradient>
<linearGradient id="paint7_linear" x1="61.9285" y1="29.7142" x2="46.2918" y2="61.6557" gradientUnits="userSpaceOnUse">
<stop stop-color="#2BE8FA"/>
<stop offset="0.1481" stop-color="#2CE5FA"/>
<stop offset="0.2714" stop-color="#30DAFA"/>
<stop offset="0.3857" stop-color="#36C9F9"/>
<stop offset="0.494" stop-color="#3FB1F9"/>
<stop offset="0.5088" stop-color="#40ADF9"/>
<stop offset="1" stop-color="#477EF7"/>
</linearGradient>
<linearGradient id="paint8_linear" x1="50.8612" y1="39.8959" x2="56.5614" y2="58.7027" gradientUnits="userSpaceOnUse">
<stop stop-color="white"/>
<stop offset="0.9207" stop-color="white" stop-opacity="0.0792859"/>
<stop offset="1" stop-color="white" stop-opacity="0"/>
</linearGradient>
<linearGradient id="paint9_linear" x1="50.7673" y1="40.5551" x2="57.0782" y2="61.3768" gradientUnits="userSpaceOnUse">
<stop stop-color="#42A1F8"/>
<stop offset="1" stop-color="white" stop-opacity="0"/>
</linearGradient>
<linearGradient id="paint10_linear" x1="48.357" y1="47.2967" x2="54.9221" y2="50.3463" gradientUnits="userSpaceOnUse">
<stop stop-color="#40A6F9"/>
<stop offset="1" stop-color="#2BE8FA" stop-opacity="0"/>
</linearGradient>
<linearGradient id="paint11_linear" x1="62.9692" y1="53.5663" x2="37.1575" y2="42.6913" gradientUnits="userSpaceOnUse">
<stop stop-color="#2BE8FA"/>
<stop offset="0.1481" stop-color="#2CE5FA"/>
<stop offset="0.2714" stop-color="#30DAFA"/>
<stop offset="0.3857" stop-color="#36C9F9"/>
<stop offset="0.494" stop-color="#3FB1F9"/>
<stop offset="0.5088" stop-color="#40ADF9"/>
<stop offset="1" stop-color="#477EF7"/>
</linearGradient>
<linearGradient id="paint12_linear" x1="44.0939" y1="46.9279" x2="58.0101" y2="51.3429" gradientUnits="userSpaceOnUse">
<stop stop-color="#42A1F8"/>
<stop offset="0.1361" stop-color="#40A8F8"/>
<stop offset="0.3391" stop-color="#39BDF9"/>
<stop offset="0.583" stop-color="#2EDEFA"/>
<stop offset="0.5851" stop-color="#2EDEFA"/>
<stop offset="1" stop-color="#2BE8FA" stop-opacity="0"/>
</linearGradient>
<linearGradient id="paint13_linear" x1="51.1169" y1="40.7854" x2="57.3236" y2="61.2634" gradientUnits="userSpaceOnUse">
<stop stop-color="#2BE8FA"/>
<stop offset="0.1481" stop-color="#2CE5FA" stop-opacity="0.8835"/>
<stop offset="0.2714" stop-color="#30DAFA" stop-opacity="0.7867"/>
<stop offset="0.3857" stop-color="#36C9F9" stop-opacity="0.6968"/>
<stop offset="0.494" stop-color="#3FB1F9" stop-opacity="0.6116"/>
<stop offset="0.5088" stop-color="#40ADF9" stop-opacity="0.6"/>
<stop offset="1" stop-color="#477EF7" stop-opacity="0"/>
</linearGradient>
<linearGradient id="paint14_linear" x1="44.9584" y1="17.924" x2="44.3903" y2="39.1585" gradientUnits="userSpaceOnUse">
<stop stop-color="#2BE8FA"/>
<stop offset="0.1481" stop-color="#2CE5FA"/>
<stop offset="0.2714" stop-color="#30DAFA"/>
<stop offset="0.3857" stop-color="#36C9F9"/>
<stop offset="0.494" stop-color="#3FB1F9"/>
<stop offset="0.5088" stop-color="#40ADF9"/>
<stop offset="1" stop-color="#477EF7"/>
</linearGradient>
<linearGradient id="paint15_linear" x1="41.4834" y1="26.2029" x2="49.2593" y2="35.0135" gradientUnits="userSpaceOnUse">
<stop stop-color="white"/>
<stop offset="0.9207" stop-color="white" stop-opacity="0.0792859"/>
<stop offset="1" stop-color="white" stop-opacity="0"/>
</linearGradient>
<linearGradient id="paint16_linear" x1="41.5958" y1="26.5842" x2="50.2048" y2="36.3386" gradientUnits="userSpaceOnUse">
<stop stop-color="#42A1F8"/>
<stop offset="1" stop-color="white" stop-opacity="0"/>
</linearGradient>
<linearGradient id="paint17_linear" x1="41.9656" y1="30.8443" x2="46.2926" y2="30.8651" gradientUnits="userSpaceOnUse">
<stop stop-color="#40A6F9"/>
<stop offset="1" stop-color="#2BE8FA" stop-opacity="0"/>
</linearGradient>
<linearGradient id="paint18_linear" x1="51.4682" y1="30.6245" x2="34.7347" y2="31.1486" gradientUnits="userSpaceOnUse">
<stop stop-color="#2BE8FA"/>
<stop offset="0.1481" stop-color="#2CE5FA"/>
<stop offset="0.2714" stop-color="#30DAFA"/>
<stop offset="0.3857" stop-color="#36C9F9"/>
<stop offset="0.494" stop-color="#3FB1F9"/>
<stop offset="0.5088" stop-color="#40ADF9"/>
<stop offset="1" stop-color="#477EF7"/>
</linearGradient>
<linearGradient id="paint19_linear" x1="39.5583" y1="31.7027" x2="48.2178" y2="30.6331" gradientUnits="userSpaceOnUse">
<stop stop-color="#42A1F8"/>
<stop offset="0.1361" stop-color="#40A8F8"/>
<stop offset="0.3391" stop-color="#39BDF9"/>
<stop offset="0.583" stop-color="#2EDEFA"/>
<stop offset="0.5851" stop-color="#2EDEFA"/>
<stop offset="1" stop-color="#2BE8FA" stop-opacity="0"/>
</linearGradient>
<linearGradient id="paint20_linear" x1="41.8431" y1="26.622" x2="50.31" y2="36.2154" gradientUnits="userSpaceOnUse">
<stop stop-color="#2BE8FA"/>
<stop offset="0.1481" stop-color="#2CE5FA" stop-opacity="0.8835"/>
<stop offset="0.2714" stop-color="#30DAFA" stop-opacity="0.7867"/>
<stop offset="0.3857" stop-color="#36C9F9" stop-opacity="0.6968"/>
<stop offset="0.494" stop-color="#3FB1F9" stop-opacity="0.6116"/>
<stop offset="0.5088" stop-color="#40ADF9" stop-opacity="0.6"/>
<stop offset="1" stop-color="#477EF7" stop-opacity="0"/>
</linearGradient>
</defs>
</svg>
