<svg width="16" height="16" viewBox="0 0 16 16" fill="none" xmlns="http://www.w3.org/2000/svg">
<path d="M7.99998 15.3571H8.00052C12.0617 15.3527 15.3527 12.0617 15.3571 8.00052V7.99998C15.3571 3.93675 12.0632 0.642845 7.99998 0.642845C3.93675 0.642845 0.642845 3.93675 0.642845 7.99998C0.642845 12.0632 3.93675 15.3571 7.99998 15.3571ZM0.5 7.99998C0.5 3.85794 3.85772 0.500138 7.99973 0.5C12.1402 0.504576 15.4956 3.86005 15.5 8.00051C15.4997 12.1424 12.1419 15.5 7.99998 15.5C3.85786 15.5 0.5 12.1421 0.5 7.99998Z" fill="white"/>
<path d="M7.99998 15.3571H8.00052C12.0617 15.3527 15.3527 12.0617 15.3571 8.00052V7.99998C15.3571 3.93675 12.0632 0.642845 7.99998 0.642845C3.93675 0.642845 0.642845 3.93675 0.642845 7.99998C0.642845 12.0632 3.93675 15.3571 7.99998 15.3571ZM0.5 7.99998C0.5 3.85794 3.85772 0.500138 7.99973 0.5C12.1402 0.504576 15.4956 3.86005 15.5 8.00051C15.4997 12.1424 12.1419 15.5 7.99998 15.5C3.85786 15.5 0.5 12.1421 0.5 7.99998Z" fill="url(#paint0_linear)"/>
<path d="M7.99998 15.3571H8.00052C12.0617 15.3527 15.3527 12.0617 15.3571 8.00052V7.99998C15.3571 3.93675 12.0632 0.642845 7.99998 0.642845C3.93675 0.642845 0.642845 3.93675 0.642845 7.99998C0.642845 12.0632 3.93675 15.3571 7.99998 15.3571ZM0.5 7.99998C0.5 3.85794 3.85772 0.500138 7.99973 0.5C12.1402 0.504576 15.4956 3.86005 15.5 8.00051C15.4997 12.1424 12.1419 15.5 7.99998 15.5C3.85786 15.5 0.5 12.1421 0.5 7.99998Z" stroke="url(#paint1_linear)"/>
<path d="M5.14285 8.00005C5.77402 8.00005 6.28569 7.48838 6.28569 6.8572C6.28569 6.22602 5.77402 5.71436 5.14285 5.71436C4.51167 5.71436 4 6.22602 4 6.8572C4 7.48838 4.51167 8.00005 5.14285 8.00005Z" fill="url(#paint2_linear)"/>
<path d="M10.8572 8.00005C11.4884 8.00005 12 7.48838 12 6.8572C12 6.22602 11.4884 5.71436 10.8572 5.71436C10.226 5.71436 9.71436 6.22602 9.71436 6.8572C9.71436 7.48838 10.226 8.00005 10.8572 8.00005Z" fill="url(#paint3_linear)"/>
<path d="M10.1881 11.2023C9.99939 11.4552 9.64133 11.5073 9.38841 11.3185C9.37746 11.3103 9.36685 11.3018 9.3565 11.2928C8.54841 10.7026 7.45143 10.7026 6.64334 11.2928C6.40458 11.4992 6.04371 11.4729 5.83736 11.2342C5.63097 10.9954 5.65726 10.6346 5.89602 10.4282C5.90633 10.4193 5.91698 10.4107 5.92793 10.4026C7.15106 9.46767 8.84878 9.46767 10.0719 10.4026C10.3249 10.5913 10.3769 10.9494 10.1881 11.2023Z" fill="url(#paint4_linear)"/>
<defs>
<linearGradient id="paint0_linear" x1="16" y1="16" x2="-1.36834" y2="13.3371" gradientUnits="userSpaceOnUse">
<stop stop-color="#17BB94" stop-opacity="0.12"/>
<stop offset="1" stop-color="white" stop-opacity="0"/>
</linearGradient>
<linearGradient id="paint1_linear" x1="-12.5714" y1="-8.57143" x2="12" y2="10.8571" gradientUnits="userSpaceOnUse">
<stop stop-color="#CF2965" stop-opacity="0"/>
<stop offset="1" stop-color="#CF2965" stop-opacity="0.97"/>
</linearGradient>
<linearGradient id="paint2_linear" x1="2.2041" y1="4.48988" x2="5.71427" y2="7.26536" gradientUnits="userSpaceOnUse">
<stop stop-color="#C64674" stop-opacity="0"/>
<stop offset="1" stop-color="#CF2965" stop-opacity="0.97"/>
</linearGradient>
<linearGradient id="paint3_linear" x1="7.91845" y1="4.48988" x2="11.4286" y2="7.26536" gradientUnits="userSpaceOnUse">
<stop stop-color="#C64674" stop-opacity="0"/>
<stop offset="1" stop-color="#CF2965" stop-opacity="0.97"/>
</linearGradient>
<linearGradient id="paint4_linear" x1="2.08128" y1="12.3591" x2="4.19969" y2="7.90361" gradientUnits="userSpaceOnUse">
<stop stop-color="#C64674" stop-opacity="0"/>
<stop offset="1" stop-color="#CF2965" stop-opacity="0.97"/>
</linearGradient>
</defs>
</svg>
