<svg width="16" height="16" viewBox="0 0 16 16" fill="none" xmlns="http://www.w3.org/2000/svg">
<path d="M7.99998 15.3571H8.00052C12.0617 15.3527 15.3527 12.0617 15.3571 8.00052V7.99998C15.3571 3.93675 12.0632 0.642845 7.99998 0.642845C3.93675 0.642845 0.642845 3.93675 0.642845 7.99998C0.642845 12.0632 3.93675 15.3571 7.99998 15.3571ZM0.5 7.99998C0.5 3.85794 3.85772 0.500138 7.99973 0.5C12.1402 0.504576 15.4956 3.86005 15.5 8.00051C15.4997 12.1424 12.1419 15.5 7.99998 15.5C3.85786 15.5 0.5 12.1421 0.5 7.99998Z" fill="white"/>
<path d="M7.99998 15.3571H8.00052C12.0617 15.3527 15.3527 12.0617 15.3571 8.00052V7.99998C15.3571 3.93675 12.0632 0.642845 7.99998 0.642845C3.93675 0.642845 0.642845 3.93675 0.642845 7.99998C0.642845 12.0632 3.93675 15.3571 7.99998 15.3571ZM0.5 7.99998C0.5 3.85794 3.85772 0.500138 7.99973 0.5C12.1402 0.504576 15.4956 3.86005 15.5 8.00051C15.4997 12.1424 12.1419 15.5 7.99998 15.5C3.85786 15.5 0.5 12.1421 0.5 7.99998Z" fill="url(#paint0_linear)"/>
<path d="M7.99998 15.3571H8.00052C12.0617 15.3527 15.3527 12.0617 15.3571 8.00052V7.99998C15.3571 3.93675 12.0632 0.642845 7.99998 0.642845C3.93675 0.642845 0.642845 3.93675 0.642845 7.99998C0.642845 12.0632 3.93675 15.3571 7.99998 15.3571ZM0.5 7.99998C0.5 3.85794 3.85772 0.500138 7.99973 0.5C12.1402 0.504576 15.4956 3.86005 15.5 8.00051C15.4997 12.1424 12.1419 15.5 7.99998 15.5C3.85786 15.5 0.5 12.1421 0.5 7.99998Z" stroke="url(#paint1_linear)"/>
<path d="M5.14285 8.00005C5.77402 8.00005 6.28569 7.48838 6.28569 6.8572C6.28569 6.22602 5.77402 5.71436 5.14285 5.71436C4.51167 5.71436 4 6.22602 4 6.8572C4 7.48838 4.51167 8.00005 5.14285 8.00005Z" fill="url(#paint2_linear)"/>
<path d="M10.8572 8.00005C11.4884 8.00005 12 7.48838 12 6.8572C12 6.22602 11.4884 5.71436 10.8572 5.71436C10.226 5.71436 9.71436 6.22602 9.71436 6.8572C9.71436 7.48838 10.226 8.00005 10.8572 8.00005Z" fill="url(#paint3_linear)"/>
<path d="M9.7874 10.2301L9.78743 10.2302C9.811 10.2618 9.80454 10.3065 9.77287 10.3302L9.77285 10.3301L9.76828 10.3336C8.72439 11.1315 7.27546 11.1315 6.23156 10.3336L6.23158 10.3336L6.22694 10.3301L6.22353 10.3274L6.22353 10.3274L6.22296 10.3269C6.19312 10.3011 6.18985 10.256 6.21563 10.2262L6.21565 10.2262C6.24144 10.1963 6.28655 10.1931 6.31637 10.2188L6.33188 10.2323L6.34843 10.2443C7.3322 10.9629 8.66765 10.9629 9.65141 10.2443L9.66793 10.2323L9.68341 10.2189L9.68743 10.2157L9.68747 10.2156C9.71908 10.192 9.76382 10.1985 9.7874 10.2301Z" fill="white"/>
<path d="M9.7874 10.2301L9.78743 10.2302C9.811 10.2618 9.80454 10.3065 9.77287 10.3302L9.77285 10.3301L9.76828 10.3336C8.72439 11.1315 7.27546 11.1315 6.23156 10.3336L6.23158 10.3336L6.22694 10.3301L6.22353 10.3274L6.22353 10.3274L6.22296 10.3269C6.19312 10.3011 6.18985 10.256 6.21563 10.2262L6.21565 10.2262C6.24144 10.1963 6.28655 10.1931 6.31637 10.2188L6.33188 10.2323L6.34843 10.2443C7.3322 10.9629 8.66765 10.9629 9.65141 10.2443L9.66793 10.2323L9.68341 10.2189L9.68743 10.2157L9.68747 10.2156C9.71908 10.192 9.76382 10.1985 9.7874 10.2301Z" fill="url(#paint4_linear)"/>
<path d="M9.7874 10.2301L9.78743 10.2302C9.811 10.2618 9.80454 10.3065 9.77287 10.3302L9.77285 10.3301L9.76828 10.3336C8.72439 11.1315 7.27546 11.1315 6.23156 10.3336L6.23158 10.3336L6.22694 10.3301L6.22353 10.3274L6.22353 10.3274L6.22296 10.3269C6.19312 10.3011 6.18985 10.256 6.21563 10.2262L6.21565 10.2262C6.24144 10.1963 6.28655 10.1931 6.31637 10.2188L6.33188 10.2323L6.34843 10.2443C7.3322 10.9629 8.66765 10.9629 9.65141 10.2443L9.66793 10.2323L9.68341 10.2189L9.68743 10.2157L9.68747 10.2156C9.71908 10.192 9.76382 10.1985 9.7874 10.2301Z" stroke="url(#paint5_linear)"/>
<defs>
<linearGradient id="paint0_linear" x1="16" y1="16" x2="-1.36834" y2="13.3371" gradientUnits="userSpaceOnUse">
<stop stop-color="#17BB94" stop-opacity="0.12"/>
<stop offset="1" stop-color="white" stop-opacity="0"/>
</linearGradient>
<linearGradient id="paint1_linear" x1="-12.5714" y1="-8.57143" x2="12" y2="10.8571" gradientUnits="userSpaceOnUse">
<stop stop-color="#46C69F" stop-opacity="0"/>
<stop offset="1" stop-color="#17BB94"/>
</linearGradient>
<linearGradient id="paint2_linear" x1="2.2041" y1="4.48988" x2="5.71427" y2="7.26536" gradientUnits="userSpaceOnUse">
<stop stop-color="#46C69F" stop-opacity="0"/>
<stop offset="1" stop-color="#17BB94"/>
</linearGradient>
<linearGradient id="paint3_linear" x1="7.91845" y1="4.48988" x2="11.4286" y2="7.26536" gradientUnits="userSpaceOnUse">
<stop stop-color="#46C69F" stop-opacity="0"/>
<stop offset="1" stop-color="#17BB94"/>
</linearGradient>
<linearGradient id="paint4_linear" x1="10.3016" y1="11.432" x2="5.91642" y2="9.64367" gradientUnits="userSpaceOnUse">
<stop stop-color="#17BB94" stop-opacity="0.12"/>
<stop offset="1" stop-color="white" stop-opacity="0"/>
</linearGradient>
<linearGradient id="paint5_linear" x1="2.08128" y1="8.7743" x2="4.19969" y2="13.2298" gradientUnits="userSpaceOnUse">
<stop stop-color="#46C69F" stop-opacity="0"/>
<stop offset="1" stop-color="#17BB94"/>
</linearGradient>
</defs>
</svg>
