<svg width="79" height="20" viewBox="0 0 79 20" fill="none" xmlns="http://www.w3.org/2000/svg">
<g clip-path="url(#clip0)">
<path d="M19.9893 10.1871C19.9893 9.36773 19.9213 8.7698 19.774 8.14972H10.1991V11.848H15.8194C15.7061 12.7671 15.0942 14.1512 13.7344 15.0813L13.7153 15.2051L16.7428 17.497L16.9525 17.5174C18.8788 15.779 19.9893 13.2211 19.9893 10.1871Z" fill="#4285F4"/>
<path d="M10.199 19.9313C12.9525 19.9313 15.2641 19.0454 16.9525 17.5174L13.7344 15.0813C12.8732 15.6682 11.7174 16.0779 10.199 16.0779C7.50221 16.0779 5.21331 14.3395 4.39738 11.9366L4.27778 11.9466L1.12982 14.3273L1.08865 14.4391C2.76567 17.6945 6.21039 19.9313 10.199 19.9313Z" fill="#34A853"/>
<path d="M4.39751 11.9366C4.18222 11.3166 4.05762 10.6521 4.05762 9.96565C4.05762 9.27908 4.18222 8.61473 4.38618 7.99466L4.38048 7.8626L1.19307 5.44366L1.08879 5.49214C0.397607 6.84305 0.00100708 8.36008 0.00100708 9.96565C0.00100708 11.5712 0.397607 13.0882 1.08879 14.4391L4.39751 11.9366Z" fill="#FBBC05"/>
<path d="M10.199 3.85336C12.114 3.85336 13.4057 4.66168 14.1423 5.33717L17.0204 2.59107C15.2528 0.985496 12.9525 0 10.199 0C6.21039 0 2.76567 2.23672 1.08865 5.49214L4.38605 7.99466C5.21331 5.59183 7.50221 3.85336 10.199 3.85336Z" fill="#EB4335"/>
</g>
<path d="M37.25 15.168C36.326 15.168 35.5187 14.958 34.828 14.538C34.1373 14.118 33.6007 13.53 33.218 12.774C32.8353 12.018 32.644 11.136 32.644 10.128C32.644 9.12933 32.84 8.24733 33.232 7.482C33.624 6.71667 34.1793 6.11933 34.898 5.69C35.626 5.25133 36.4847 5.032 37.474 5.032C38.594 5.032 39.5273 5.30267 40.274 5.844C41.0207 6.38533 41.506 7.132 41.73 8.084H40.05C39.9007 7.56133 39.6067 7.15067 39.168 6.852C38.7293 6.55333 38.1647 6.404 37.474 6.404C36.4473 6.404 35.64 6.73533 35.052 7.398C34.464 8.06067 34.17 8.97533 34.17 10.142C34.17 11.3087 34.4593 12.2187 35.038 12.872C35.6167 13.5253 36.3867 13.852 37.348 13.852C38.3187 13.852 39.0467 13.5767 39.532 13.026C40.0267 12.4753 40.316 11.7427 40.4 10.828H37.74V9.68H41.898V15H40.54L40.414 13.558C40.0873 14.0713 39.6767 14.468 39.182 14.748C38.6873 15.028 38.0433 15.168 37.25 15.168ZM46.8911 15.168C46.2284 15.168 45.6311 15.0187 45.0991 14.72C44.5764 14.412 44.1611 13.9873 43.8531 13.446C43.5451 12.8953 43.3911 12.256 43.3911 11.528C43.3911 10.8 43.5451 10.1653 43.8531 9.624C44.1704 9.07333 44.5951 8.64867 45.1271 8.35C45.6591 8.042 46.2517 7.888 46.9051 7.888C47.5677 7.888 48.1604 8.042 48.6831 8.35C49.2151 8.64867 49.6351 9.07333 49.9431 9.624C50.2604 10.1653 50.4191 10.8 50.4191 11.528C50.4191 12.256 50.2604 12.8953 49.9431 13.446C49.6351 13.9873 49.2151 14.412 48.6831 14.72C48.1511 15.0187 47.5537 15.168 46.8911 15.168ZM46.8911 13.894C47.2457 13.894 47.5724 13.8053 47.8711 13.628C48.1791 13.4507 48.4264 13.1893 48.6131 12.844C48.7997 12.4893 48.8931 12.0507 48.8931 11.528C48.8931 11.0053 48.7997 10.5713 48.6131 10.226C48.4357 9.87133 48.1931 9.60533 47.8851 9.428C47.5864 9.25067 47.2597 9.162 46.9051 9.162C46.5504 9.162 46.2191 9.25067 45.9111 9.428C45.6124 9.60533 45.3697 9.87133 45.1831 10.226C44.9964 10.5713 44.9031 11.0053 44.9031 11.528C44.9031 12.0507 44.9964 12.4893 45.1831 12.844C45.3697 13.1893 45.6124 13.4507 45.9111 13.628C46.2097 13.8053 46.5364 13.894 46.8911 13.894ZM55.2719 15.168C54.6093 15.168 54.0119 15.0187 53.4799 14.72C52.9573 14.412 52.5419 13.9873 52.2339 13.446C51.9259 12.8953 51.7719 12.256 51.7719 11.528C51.7719 10.8 51.9259 10.1653 52.2339 9.624C52.5513 9.07333 52.9759 8.64867 53.5079 8.35C54.0399 8.042 54.6326 7.888 55.2859 7.888C55.9486 7.888 56.5413 8.042 57.0639 8.35C57.5959 8.64867 58.0159 9.07333 58.3239 9.624C58.6413 10.1653 58.7999 10.8 58.7999 11.528C58.7999 12.256 58.6413 12.8953 58.3239 13.446C58.0159 13.9873 57.5959 14.412 57.0639 14.72C56.5319 15.0187 55.9346 15.168 55.2719 15.168ZM55.2719 13.894C55.6266 13.894 55.9533 13.8053 56.2519 13.628C56.5599 13.4507 56.8073 13.1893 56.9939 12.844C57.1806 12.4893 57.2739 12.0507 57.2739 11.528C57.2739 11.0053 57.1806 10.5713 56.9939 10.226C56.8166 9.87133 56.5739 9.60533 56.2659 9.428C55.9673 9.25067 55.6406 9.162 55.2859 9.162C54.9313 9.162 54.5999 9.25067 54.2919 9.428C53.9933 9.60533 53.7506 9.87133 53.5639 10.226C53.3773 10.5713 53.2839 11.0053 53.2839 11.528C53.2839 12.0507 53.3773 12.4893 53.5639 12.844C53.7506 13.1893 53.9933 13.4507 54.2919 13.628C54.5906 13.8053 54.9173 13.894 55.2719 13.894ZM62.8777 12.872C62.5137 12.872 62.1777 12.83 61.8697 12.746L61.2677 13.334C61.3703 13.3993 61.4963 13.4553 61.6457 13.502C61.795 13.5487 62.005 13.5907 62.2757 13.628C62.5463 13.6653 62.915 13.7027 63.3817 13.74C64.3057 13.824 64.973 14.048 65.3837 14.412C65.7943 14.7667 65.9997 15.2427 65.9997 15.84C65.9997 16.2507 65.8877 16.638 65.6637 17.002C65.449 17.3753 65.1083 17.674 64.6417 17.898C64.1843 18.1313 63.5963 18.248 62.8777 18.248C61.907 18.248 61.1183 18.0613 60.5117 17.688C59.9143 17.324 59.6157 16.7687 59.6157 16.022C59.6157 15.7327 59.6903 15.4433 59.8397 15.154C59.9983 14.874 60.2457 14.608 60.5817 14.356C60.3857 14.272 60.213 14.1833 60.0637 14.09C59.9237 13.9873 59.7977 13.8847 59.6857 13.782V13.446L60.8897 12.214C60.3483 11.7473 60.0777 11.136 60.0777 10.38C60.0777 9.92267 60.185 9.50733 60.3997 9.134C60.6237 8.75133 60.9457 8.448 61.3657 8.224C61.7857 8 62.2897 7.888 62.8777 7.888C63.2697 7.888 63.6337 7.944 63.9697 8.056H66.5597V9.036L65.3277 9.106C65.5517 9.48867 65.6637 9.91333 65.6637 10.38C65.6637 10.8467 65.5517 11.2667 65.3277 11.64C65.113 12.0133 64.7957 12.312 64.3757 12.536C63.965 12.76 63.4657 12.872 62.8777 12.872ZM62.8777 11.71C63.307 11.71 63.6523 11.598 63.9137 11.374C64.1843 11.1407 64.3197 10.814 64.3197 10.394C64.3197 9.96467 64.1843 9.638 63.9137 9.414C63.6523 9.19 63.307 9.078 62.8777 9.078C62.439 9.078 62.0843 9.19 61.8137 9.414C61.5523 9.638 61.4217 9.96467 61.4217 10.394C61.4217 10.814 61.5523 11.1407 61.8137 11.374C62.0843 11.598 62.439 11.71 62.8777 11.71ZM61.0157 15.882C61.0157 16.2833 61.193 16.582 61.5477 16.778C61.9023 16.9833 62.3457 17.086 62.8777 17.086C63.391 17.086 63.8063 16.974 64.1237 16.75C64.441 16.5353 64.5997 16.246 64.5997 15.882C64.5997 15.6113 64.4923 15.378 64.2777 15.182C64.063 14.9953 63.657 14.8787 63.0597 14.832C62.6117 14.804 62.215 14.762 61.8697 14.706C61.543 14.8833 61.319 15.0747 61.1977 15.28C61.0763 15.4853 61.0157 15.686 61.0157 15.882ZM67.8833 15V4.92H69.3673V15H67.8833ZM74.4946 15.168C73.8133 15.168 73.2066 15.0187 72.6746 14.72C72.1519 14.412 71.7413 13.9873 71.4426 13.446C71.1439 12.9047 70.9946 12.2747 70.9946 11.556C70.9946 10.828 71.1393 10.1887 71.4286 9.638C71.7273 9.08733 72.1379 8.658 72.6606 8.35C73.1926 8.042 73.8086 7.888 74.5086 7.888C75.1899 7.888 75.7826 8.042 76.2866 8.35C76.7906 8.64867 77.1826 9.05 77.4626 9.554C77.7426 10.058 77.8826 10.6133 77.8826 11.22C77.8826 11.3133 77.8779 11.416 77.8686 11.528C77.8686 11.6307 77.8639 11.7473 77.8546 11.878H72.4506C72.4973 12.55 72.7166 13.0633 73.1086 13.418C73.5099 13.7633 73.9719 13.936 74.4946 13.936C74.9146 13.936 75.2646 13.8427 75.5446 13.656C75.8339 13.46 76.0486 13.1987 76.1886 12.872H77.6726C77.4859 13.5253 77.1126 14.0713 76.5526 14.51C76.0019 14.9487 75.3159 15.168 74.4946 15.168ZM74.4946 9.106C73.9999 9.106 73.5613 9.25533 73.1786 9.554C72.7959 9.84333 72.5626 10.282 72.4786 10.87H76.3986C76.3706 10.3287 76.1793 9.89933 75.8246 9.582C75.4699 9.26467 75.0266 9.106 74.4946 9.106Z" fill="#505060"/>
<defs>
<clipPath id="clip0">
<rect width="20" height="20" fill="white"/>
</clipPath>
</defs>
</svg>
