<svg width="24" height="22" viewBox="0 0 24 22" fill="none" xmlns="http://www.w3.org/2000/svg">
<path d="M10.3956 21.3064C10.3927 21.3056 10.3898 21.3048 10.3861 21.3048C10.3852 21.304 10.384 21.304 10.3823 21.304H10.3815L10.3807 21.3031C10.3798 21.3031 10.379 21.3031 10.3777 21.3023H10.374C10.3723 21.3015 10.3703 21.3015 10.3686 21.3006H10.3665C10.3636 21.2998 10.3599 21.299 10.3561 21.2986C10.347 21.2969 10.3374 21.2948 10.327 21.2927H10.3261C10.3207 21.2919 10.3166 21.2911 10.3103 21.2898C10.2974 21.2878 10.2833 21.2844 10.2683 21.2807C10.2662 21.2807 10.2629 21.2799 10.26 21.279C10.2113 21.2695 10.1539 21.2566 10.0889 21.2417C10.0835 21.2408 10.0785 21.2396 10.0731 21.2379C9.96035 21.2118 9.8251 21.1777 9.67196 21.1345C9.65573 21.13 9.63908 21.1254 9.62286 21.1204C9.57209 21.1063 9.51965 21.0905 9.46597 21.0743H9.46514C9.39356 21.0519 9.31782 21.0282 9.23958 21.0029C9.21337 20.9937 9.18715 20.985 9.15968 20.9767C9.10683 20.958 9.05232 20.9393 8.99614 20.9202H8.99531C8.93996 20.9003 8.88253 20.8791 8.82427 20.8584H8.82344C8.73896 20.8272 8.6524 20.7936 8.56335 20.7587C8.27371 20.6445 7.95993 20.5074 7.63034 20.3451C7.62285 20.3413 7.61536 20.3384 7.60787 20.3347C7.55544 20.3085 7.50342 20.2823 7.45098 20.2549C7.45015 20.2541 7.4489 20.2533 7.44724 20.2529C4.0236 18.4937 -0.947282 13.9716 0.156756 2.68153C0.157588 2.67862 0.157588 2.67571 0.157588 2.67198C0.221675 2.01997 0.306153 1.34471 0.41227 0.646191C0.431829 0.517451 0.451804 0.386635 0.473444 0.256234C0.473444 0.255403 0.473444 0.255403 0.473444 0.255403C0.480102 0.210552 0.487593 0.166116 0.495916 0.121265V0.119603C0.496748 0.109221 0.498829 0.098839 0.501326 0.0884567C0.501326 0.0847191 0.502158 0.0809815 0.502991 0.0772439C0.505071 0.0639546 0.507568 0.0498348 0.509649 0.0357149C0.509649 0.0348844 0.509649 0.0348844 0.509649 0.0340538C0.510481 0.0311467 0.511313 0.0274091 0.51173 0.0245021C0.51173 0.0228409 0.512562 0.0215951 0.512562 0.0199339C0.513394 0.0170269 0.514227 0.0141199 0.514227 0.0107975C0.514227 0.00913638 0.515059 0.00789051 0.515059 0.00622935V0.00373761C0.515059 0.00207645 0.515891 0.00166116 0.515891 0H0.516723V0.00083058C0.518388 0.00166116 0.519636 0.00249174 0.521301 0.00290703C0.525046 0.00498348 0.528792 0.00747522 0.532537 0.00955167C0.533369 0.0103822 0.534618 0.0112128 0.53545 0.0112128C0.552096 0.0207645 0.567493 0.0307315 0.583307 0.0402831C0.58622 0.0423596 0.589133 0.0440207 0.592462 0.0460972C0.602034 0.051496 0.611189 0.0564794 0.619928 0.0622935C0.62076 0.0622935 0.621592 0.0631241 0.621592 0.0631241C0.623257 0.0660311 0.624505 0.0689381 0.62617 0.0726757C0.627835 0.0764133 0.629083 0.0809815 0.630748 0.0851344C0.644064 0.117112 0.657797 0.15075 0.671946 0.184389C0.68235 0.210552 0.692754 0.236715 0.70399 0.263294C0.766828 0.41612 0.83466 0.580991 0.906237 0.754997C0.907069 0.755828 0.907069 0.757074 0.907902 0.757904C1.01027 1.00625 1.12055 1.27452 1.2404 1.56191C1.24124 1.56274 1.24124 1.56357 1.24124 1.56398C1.24207 1.56564 1.2429 1.56606 1.24332 1.56772C1.42101 1.99796 1.6166 2.4689 1.828 2.97431L1.83258 2.98469C4.0494 8.28088 7.91998 17.2499 10.2866 21.1266L10.2874 21.1275C10.307 21.1586 10.3257 21.1902 10.3449 21.2205C10.3449 21.2213 10.3449 21.2213 10.3457 21.2221V21.223C10.3553 21.2388 10.3653 21.2541 10.3748 21.2699C10.3777 21.2745 10.3807 21.279 10.384 21.2832V21.284C10.3861 21.2869 10.3877 21.2898 10.3894 21.2932C10.3902 21.2948 10.3911 21.2952 10.3915 21.2961C10.3919 21.2998 10.3936 21.3035 10.3956 21.3064Z" fill="url(#paint0_linear)"/>
<path opacity="0.1" d="M10.3955 21.3063C10.3926 21.3055 10.3897 21.3047 10.3859 21.3047C10.3851 21.3038 10.3838 21.3038 10.3822 21.3038H10.3813L10.3805 21.303C10.3797 21.303 10.3788 21.303 10.3776 21.3022H10.3738C10.3722 21.3013 10.3701 21.3013 10.3684 21.3005H10.3664C10.3634 21.2997 10.3597 21.2988 10.3559 21.2984C10.3468 21.2968 10.3372 21.2947 10.3268 21.2926H10.326C10.3206 21.2918 10.3164 21.291 10.3102 21.2897C10.2973 21.2876 10.2831 21.2843 10.2681 21.2806C10.2661 21.2806 10.2627 21.2797 10.2598 21.2789C10.2111 21.2694 10.1537 21.2565 10.0888 21.2415C10.0834 21.2407 10.0784 21.2395 10.073 21.2378C9.96019 21.2116 9.82495 21.1776 9.6718 21.1344C9.65557 21.1298 9.63893 21.1253 9.6227 21.1203C9.57193 21.1062 9.51949 21.0904 9.46581 21.0742H9.46498C9.3934 21.0518 9.31766 21.0281 9.23943 21.0027C9.21321 20.9936 9.18699 20.9849 9.15953 20.9766C9.10668 20.9579 9.05216 20.9392 8.99598 20.9201H8.99515C8.9398 20.9002 8.88237 20.879 8.82411 20.8582H8.82328C8.7388 20.8271 8.65224 20.7934 8.56319 20.7586C8.29602 20.6518 8.00971 20.5277 7.70884 20.3815C7.70426 20.3794 7.69968 20.3777 7.69469 20.3748C7.64225 20.3495 7.59024 20.3225 7.53655 20.2959C7.53364 20.2943 7.53073 20.293 7.5274 20.2914C4.11998 18.5675 -0.900415 14.0898 0.152021 2.8143C0.21694 2.11744 0.305164 1.39359 0.418772 0.643991C0.436666 0.522311 0.456225 0.399386 0.475368 0.27646V0.273968C0.483691 0.22621 0.491181 0.177621 0.499088 0.130278V0.129447L0.49992 0.128617C0.501585 0.116573 0.502833 0.104945 0.50533 0.0929016V0.092071C0.506163 0.0875028 0.506995 0.0845958 0.507411 0.0800276C0.511156 0.0563561 0.514902 0.0330999 0.519479 0.00901305C0.519479 0.00818247 0.519479 0.00818247 0.519479 0.00735189C0.519479 0.00569073 0.520312 0.00361428 0.520312 0.00195312C0.524057 0.00402957 0.527802 0.00652131 0.531548 0.00859776C0.53238 0.00942834 0.533628 0.0102589 0.534461 0.0102589C0.551107 0.0198106 0.566504 0.0297775 0.582318 0.0393292C0.582318 0.0414057 0.581485 0.0438974 0.581485 0.0459739C0.578572 0.0659078 0.575659 0.0879181 0.57233 0.109513C0.571498 0.113251 0.570665 0.116158 0.570665 0.119895C0.569833 0.123633 0.569001 0.127371 0.568585 0.131108V0.131939C0.568585 0.136507 0.567752 0.141075 0.56692 0.145228C0.563175 0.173468 0.558597 0.203369 0.554436 0.234515C0.554436 0.237422 0.553603 0.24033 0.553603 0.243652V0.244898C0.540287 0.342491 0.526138 0.450466 0.511989 0.570485V0.571316C0.509908 0.589173 0.507411 0.607861 0.50533 0.626549C0.504498 0.62821 0.504498 0.628626 0.504498 0.630287C0.1824 3.37078 -0.265374 11.4112 5.23443 17.4188C6.8678 19.2025 8.65432 20.4031 10.224 21.2175C10.2249 21.2183 10.2257 21.2191 10.2261 21.2191C10.2619 21.2378 10.2977 21.2565 10.3331 21.2743C10.3426 21.2797 10.3518 21.2839 10.3605 21.2885C10.3614 21.2885 10.3622 21.2893 10.3626 21.2901C10.3634 21.2901 10.3634 21.2901 10.3643 21.291C10.3651 21.291 10.3651 21.291 10.3659 21.291C10.3659 21.2918 10.3659 21.2918 10.3659 21.2918C10.3688 21.2934 10.3713 21.2939 10.3743 21.2955C10.3759 21.2964 10.3772 21.2972 10.3788 21.2976C10.3797 21.2984 10.3805 21.2984 10.3809 21.2993C10.3813 21.3001 10.383 21.3001 10.3838 21.3009C10.3855 21.3018 10.3859 21.3026 10.3876 21.3026C10.3905 21.3034 10.3926 21.3051 10.3955 21.3063Z" fill="url(#paint1_linear)"/>
<path opacity="0.5" d="M11.8273 16.4394C11.757 17.1512 11.6292 17.8331 11.4598 18.4793C11.4582 18.4859 11.4569 18.4918 11.4544 18.4988C11.4528 18.5046 11.4515 18.5092 11.4498 18.5146C11.4482 18.52 11.4469 18.525 11.4461 18.5304C11.4453 18.532 11.4444 18.5333 11.4444 18.5358C11.1989 19.4598 10.8693 20.312 10.5035 21.0811C10.5019 21.0848 10.4998 21.0886 10.4981 21.0923C10.4698 21.1504 10.4419 21.2094 10.4136 21.2667C10.4136 21.2601 10.4145 21.2534 10.4136 21.2472V21.2464C10.4145 21.2381 10.4145 21.2306 10.4145 21.2231V21.2202C10.4145 21.1932 10.4153 21.1666 10.4153 21.1405V21.1396C10.4677 16.3293 10.4586 16.1358 10.4586 16.1358C10.2605 11.8234 8.03743 8.50694 6.61088 6.37899C4.82394 3.70992 2.78066 1.77259 1.01578 0.410443C1.01412 0.408782 1.01287 0.408367 1.01203 0.407536C1.00621 0.402137 0.999967 0.397984 0.994141 0.393416C1.00163 0.388848 1.00912 0.38511 1.01495 0.380127C1.03201 0.368083 1.04949 0.355625 1.06738 0.343581C1.06905 0.34192 1.07113 0.340674 1.07321 0.339844C1.68203 0.715266 2.25756 1.09318 2.8023 1.47109C2.80313 1.47192 2.80396 1.47275 2.80396 1.47275C12.0491 7.89438 12.3525 14.5423 11.501 18.3015C11.6488 17.7081 11.7615 17.0864 11.8273 16.4394Z" fill="url(#paint2_linear)"/>
<path d="M10.3957 21.3062C10.3936 21.3042 10.3903 21.3017 10.3882 21.2996C10.3873 21.2988 10.3861 21.2979 10.3853 21.2975C10.3836 21.2959 10.3832 21.2954 10.3815 21.2938C10.3807 21.2938 10.3807 21.293 10.3798 21.293C10.3778 21.2909 10.3753 21.2892 10.3732 21.2871C10.3686 21.2834 10.3649 21.2797 10.3607 21.2759C10.3578 21.2739 10.354 21.2705 10.3511 21.2668L10.3503 21.266C10.3457 21.2631 10.342 21.2593 10.3374 21.2564V21.2556C10.2958 21.219 10.2521 21.1817 10.2096 21.1447C10.2088 21.143 10.2076 21.1418 10.2059 21.141C8.39483 19.5475 5.91043 16.9598 3.90294 13.1952C1.4614 8.61623 0.793484 4.29722 0.635348 1.44792C0.612876 1.0455 0.600392 0.672986 0.594982 0.332864C0.594982 0.326219 0.59415 0.31999 0.59415 0.314176V0.312099C0.593317 0.271816 0.593317 0.232364 0.592485 0.192911V0.168409C0.591653 0.162595 0.591653 0.155535 0.592485 0.149721C0.591653 0.144322 0.591653 0.140169 0.592485 0.13477V0.13394C0.591653 0.106531 0.59082 0.0795369 0.59082 0.0525431V0.0458984C0.600392 0.0512972 0.609547 0.0562807 0.618286 0.0620947L0.622864 0.0716464L0.62869 0.0849357L0.676547 0.188343L0.717745 0.276384V0.277215L1.22336 1.37566C1.22336 1.37732 1.22503 1.37939 1.22544 1.38106L1.93914 2.93175C1.9408 2.93382 1.94122 2.93715 1.94288 2.93922C1.94288 2.94005 1.94371 2.94005 1.94371 2.94088L10.3074 21.1152C10.3074 21.116 10.3083 21.1169 10.3083 21.1173C10.3091 21.1189 10.3091 21.1194 10.3099 21.121L10.3736 21.2581L10.3832 21.2768V21.2788L10.389 21.2913L10.3907 21.295L10.3957 21.3062Z" fill="url(#paint3_linear)"/>
<path d="M11.5007 18.3011C11.499 18.3114 11.4961 18.3218 11.4932 18.3322C11.4915 18.338 11.4903 18.3443 11.4886 18.3492C11.4878 18.3509 11.4869 18.3521 11.4869 18.3538C11.2189 19.4153 10.8377 20.3842 10.4145 21.2446L10.4137 21.2455V21.2463C10.4137 21.2471 10.4129 21.2471 10.4129 21.248C10.4108 21.2538 10.4074 21.2592 10.4045 21.265V21.2658C10.4016 21.2725 10.3979 21.2787 10.3941 21.2853C10.3933 21.2862 10.3933 21.2874 10.3925 21.2882C10.3916 21.2903 10.3904 21.2928 10.3896 21.2949C10.3896 21.2949 10.3887 21.2957 10.3887 21.2966C10.3879 21.2974 10.3879 21.2982 10.3871 21.2995C10.3871 21.3003 10.3862 21.3011 10.3862 21.3015C10.3854 21.3024 10.3846 21.3032 10.3846 21.3044C10.3846 21.3053 10.3837 21.3053 10.3837 21.3061C10.3829 21.3053 10.3816 21.3044 10.3808 21.304H10.38L10.3792 21.3032V21.3024C10.3783 21.3015 10.3771 21.3007 10.3762 21.3007C10.3746 21.299 10.3742 21.2986 10.3725 21.297C10.3696 21.2953 10.3671 21.2932 10.3642 21.2912C10.3633 21.2903 10.3633 21.2903 10.3625 21.2903C10.3617 21.2895 10.3617 21.2895 10.3608 21.2895C10.36 21.2887 10.3592 21.2878 10.3588 21.2878L10.3579 21.2862C10.3563 21.2853 10.3558 21.2841 10.3542 21.2833C10.3525 21.2812 10.3513 21.2787 10.3496 21.2766C10.3488 21.2758 10.3488 21.275 10.3479 21.2745C10.3442 21.2687 10.3396 21.2625 10.335 21.2559V21.255C7.73162 17.1005 3.16607 6.37934 1.11238 1.44404L1.09657 1.40915C1.00626 1.18988 0.920953 0.982649 0.839804 0.788293C0.839804 0.787463 0.838972 0.786217 0.838139 0.785386C0.749916 0.570681 0.667935 0.374664 0.592612 0.192768V0.18986C0.588035 0.178648 0.583457 0.167435 0.579296 0.156222C0.57555 0.147916 0.572637 0.140441 0.568892 0.13255V0.13172C0.566811 0.125906 0.564314 0.120507 0.562233 0.114693C0.555575 0.098912 0.549749 0.0835463 0.542675 0.0677652C0.535184 0.0478313 0.526861 0.0295586 0.520203 0.0104552L0.51937 0.00962466C0.51937 0.00879408 0.51937 0.00879408 0.51937 0.0079635C0.518538 0.0079635 0.518538 0.00713292 0.518538 0.00713292C0.517706 0.00505647 0.516457 0.00256473 0.515625 0.000488281C0.51729 0.00131886 0.518538 0.00214944 0.520203 0.00256473C0.523948 0.00464118 0.527693 0.00713292 0.531439 0.00920937C0.532271 0.0100399 0.533519 0.0108705 0.534352 0.0108705C0.550998 0.0204222 0.566395 0.0303892 0.582209 0.0399408C0.585122 0.0420173 0.588035 0.0436784 0.591364 0.0457549C0.600935 0.0511537 0.61009 0.0561371 0.61883 0.0619512C0.619662 0.0619512 0.620494 0.0627818 0.620494 0.0627818C0.66086 0.0864533 0.701227 0.111371 0.741593 0.135042V0.135873C0.853537 0.203565 0.964232 0.270842 1.07409 0.339365C1.68292 0.714787 2.25845 1.0927 2.80319 1.47061C2.80402 1.47145 2.80485 1.47228 2.80485 1.47228C12.0491 7.8939 12.3521 14.5419 11.5007 18.3011Z" fill="url(#paint4_linear)"/>
<path d="M10.4149 21.2234C10.412 21.2359 10.4091 21.2496 10.4057 21.262C10.4057 21.2637 10.4049 21.2641 10.4049 21.2658V21.2666C10.4012 21.2799 10.3982 21.2936 10.3953 21.3069C10.3945 21.3011 10.3937 21.2948 10.3933 21.289V21.2845C10.3916 21.2741 10.3912 21.2629 10.3895 21.2516C10.3837 21.1956 10.3774 21.1391 10.3708 21.0826V21.0781C10.0936 18.6075 9.49396 15.5123 8.20266 12.1211C6.31543 7.16252 3.67706 3.48637 1.54597 1.03367C1.54514 1.03284 1.5443 1.03201 1.54389 1.03076C1.34372 0.800279 1.14896 0.581421 0.9592 0.37253C0.958368 0.37253 0.958368 0.3717 0.958368 0.3717C0.889703 0.297363 0.82312 0.224687 0.756536 0.153257V0.152427C0.75071 0.146613 0.7453 0.141214 0.740723 0.13623C0.852666 0.203923 0.963361 0.2712 1.07322 0.339723C1.68205 0.715145 2.25758 1.09306 2.80232 1.47097C2.80315 1.4718 2.80398 1.47263 2.80398 1.47263C2.83977 1.50004 2.87472 1.5287 2.91135 1.55777C2.91343 1.55943 2.91509 1.56067 2.91717 1.56234C3.66998 2.15994 4.46982 2.87341 5.26882 3.71935C6.57802 5.10559 9.26217 8.0176 10.3945 12.6755C11.2663 16.2565 10.8481 19.3421 10.4149 21.2234Z" fill="url(#paint5_linear)"/>
<path opacity="0.1" d="M10.7516 14.8762C9.64045 6.09118 2.12942 1.09981 0.498535 0.0752858C0.501032 0.0690564 0.501448 0.0632424 0.5002 0.0574283C0.500616 0.0553519 0.501864 0.0532754 0.501864 0.051199C0.50561 0.0408167 0.510187 0.0304345 0.512684 0.0192216C0.513516 0.0150687 0.513933 0.0105006 0.514349 0.00634766C16.6538 9.66516 10.9272 20.3655 10.3737 21.3174C10.7944 19.5665 11.0658 17.3609 10.7516 14.8762Z" fill="url(#paint6_linear)"/>
<path d="M12.3089 21.3535C12.3089 21.3514 12.3089 21.3498 12.3081 21.3473C12.3085 21.3469 12.3081 21.3456 12.3077 21.3448V21.3444L12.3081 21.344C12.3081 21.3436 12.3077 21.3431 12.3081 21.3419L12.3073 21.3398C12.3073 21.339 12.3068 21.3373 12.3073 21.3365L12.3068 21.3352C12.3068 21.3332 12.3064 21.3311 12.3064 21.3286C12.3056 21.3228 12.3052 21.3166 12.3048 21.3099V21.3095C12.3043 21.3062 12.3039 21.3033 12.3035 21.2995C12.3027 21.2916 12.3018 21.2825 12.3014 21.273C12.301 21.2717 12.301 21.2696 12.301 21.2676C12.2981 21.2368 12.2952 21.1999 12.2923 21.1583C12.2919 21.155 12.2919 21.1517 12.2919 21.1484C12.2869 21.0761 12.2831 20.9889 12.281 20.8892C12.2806 20.8784 12.2806 20.868 12.2806 20.8572C12.2798 20.8244 12.2798 20.79 12.2798 20.7551V20.7547C12.2802 20.7077 12.2806 20.6583 12.2819 20.6064C12.2823 20.589 12.2831 20.5719 12.2831 20.5537C12.2848 20.5184 12.286 20.4827 12.2873 20.4453V20.4449C12.2894 20.4083 12.2914 20.3697 12.2931 20.3311V20.3307C12.2964 20.2746 12.301 20.2165 12.3056 20.1571C12.3214 19.9627 12.3468 19.7501 12.3842 19.5233C12.3851 19.5184 12.3855 19.5134 12.3863 19.508C12.3926 19.4718 12.3988 19.4357 12.4059 19.3996C12.4063 19.3992 12.4063 19.3979 12.4067 19.3971C12.8399 17.0262 14.6531 13.2263 21.641 11.8301C21.6431 11.8301 21.6448 11.8293 21.6468 11.8289C22.0505 11.7483 22.4721 11.676 22.9111 11.6121C22.9923 11.6 23.0742 11.5884 23.1566 11.5776C23.157 11.5776 23.157 11.5776 23.157 11.5776C23.1853 11.5734 23.2132 11.5697 23.2419 11.5664L23.2428 11.566C23.249 11.5647 23.2557 11.5639 23.2627 11.5635C23.2648 11.5627 23.2673 11.5627 23.2698 11.5622C23.2781 11.561 23.2873 11.5597 23.296 11.5585C23.2965 11.5585 23.2965 11.5585 23.2969 11.5581C23.299 11.5581 23.301 11.5577 23.3031 11.5577C23.3039 11.5573 23.3052 11.5577 23.306 11.5573C23.3081 11.5573 23.3098 11.5573 23.3119 11.5564C23.3127 11.556 23.3139 11.5564 23.3148 11.556L23.3164 11.5556C23.3173 11.5552 23.3181 11.5556 23.3189 11.5552V11.5556H23.3185C23.3185 11.5564 23.3181 11.5577 23.3181 11.5585C23.3173 11.561 23.3168 11.5639 23.316 11.5664C23.3156 11.5668 23.3156 11.568 23.3156 11.5685C23.3127 11.5801 23.3098 11.5913 23.3069 11.6025C23.306 11.6046 23.3056 11.6067 23.3048 11.6092C23.3035 11.6158 23.3019 11.622 23.2998 11.6287C23.2998 11.6291 23.2998 11.6295 23.2998 11.6295C23.2981 11.6308 23.2969 11.6324 23.2948 11.6341C23.2927 11.6357 23.2902 11.6374 23.2881 11.6391C23.2715 11.6528 23.2536 11.6673 23.2361 11.6818C23.2224 11.6931 23.2086 11.7038 23.1945 11.7155C23.1142 11.7807 23.0276 11.8517 22.9357 11.9264C22.9352 11.9269 22.9344 11.9273 22.934 11.9277C22.8033 12.034 22.6622 12.149 22.5112 12.2732C22.5108 12.2736 22.5104 12.274 22.5099 12.274C22.5091 12.2749 22.5087 12.2753 22.5083 12.2761C22.2823 12.4609 22.0347 12.664 21.7692 12.8824L21.7638 12.887C18.9839 15.179 14.2977 19.1305 12.398 21.2538L12.3976 21.2543C12.3822 21.2717 12.3668 21.2883 12.3522 21.3058C12.3518 21.3058 12.3518 21.3058 12.3514 21.3066H12.3509C12.3435 21.3153 12.3355 21.324 12.3281 21.3328C12.326 21.3352 12.3239 21.3382 12.3218 21.3406H12.3214C12.3202 21.3427 12.3185 21.344 12.3168 21.3452C12.316 21.346 12.3156 21.3465 12.3156 21.3473C12.3122 21.3498 12.3102 21.3514 12.3089 21.3535Z" fill="url(#paint7_linear)"/>
<path opacity="0.1" d="M12.3084 21.3539C12.3084 21.3518 12.3084 21.3502 12.3076 21.3477C12.308 21.3473 12.3076 21.346 12.3072 21.3452V21.3448L12.3076 21.3443C12.3076 21.3439 12.3072 21.3435 12.3076 21.3423L12.3068 21.3402C12.3068 21.3394 12.3063 21.3377 12.3068 21.3369L12.3063 21.3356C12.3063 21.3335 12.3059 21.3315 12.3059 21.329C12.3051 21.3232 12.3047 21.3169 12.3043 21.3103V21.3099C12.3038 21.3066 12.3034 21.3036 12.303 21.2999C12.3022 21.292 12.3014 21.2829 12.3009 21.2733C12.3005 21.2721 12.3005 21.27 12.3005 21.2679C12.2976 21.2372 12.2947 21.2002 12.2918 21.1587C12.2914 21.1554 12.2914 21.1521 12.2914 21.1487C12.2864 21.0765 12.2826 20.9893 12.2805 20.8896C12.2801 20.8788 12.2801 20.8684 12.2801 20.8576C12.2793 20.8248 12.2793 20.7904 12.2793 20.7555V20.7551C12.2797 20.7081 12.2801 20.6587 12.2814 20.6068C12.2818 20.5894 12.2826 20.5723 12.2826 20.5541C12.2843 20.5188 12.2855 20.483 12.2868 20.4457V20.4452C12.2889 20.4087 12.2909 20.3701 12.2926 20.3315V20.331C12.2959 20.275 12.3005 20.2168 12.3051 20.1574C12.3205 19.978 12.343 19.7841 12.3763 19.5773C12.3767 19.5744 12.3767 19.5711 12.3775 19.5677C12.3833 19.532 12.39 19.4955 12.3962 19.4585C12.3966 19.4564 12.3971 19.4544 12.3975 19.4523C12.8128 17.0976 14.5897 13.2761 21.5598 11.8521C21.9905 11.764 22.4416 11.6847 22.9131 11.6162C22.9893 11.605 23.0667 11.5942 23.1445 11.5834L23.1457 11.583C23.1761 11.5792 23.2065 11.5747 23.2365 11.5709H23.2369L23.2373 11.5713C23.2448 11.5701 23.2523 11.5689 23.2598 11.568H23.2602C23.2631 11.5676 23.2648 11.5676 23.2677 11.5672C23.2827 11.5651 23.2972 11.563 23.3126 11.5614C23.313 11.5614 23.313 11.5614 23.3134 11.561C23.3143 11.5605 23.3159 11.5605 23.3168 11.5605C23.3159 11.563 23.3155 11.5659 23.3147 11.5684C23.3143 11.5689 23.3143 11.5701 23.3143 11.5705C23.3114 11.5821 23.3085 11.5934 23.3055 11.6046C23.3043 11.605 23.3026 11.605 23.3014 11.6054C23.2889 11.6075 23.2752 11.6096 23.2618 11.6116C23.2593 11.612 23.2577 11.612 23.2552 11.6125C23.2527 11.6129 23.2506 11.6129 23.2481 11.6133H23.2477C23.2452 11.6141 23.2423 11.6145 23.2394 11.615C23.2215 11.6179 23.2028 11.6208 23.1832 11.6237C23.1815 11.6241 23.1794 11.6245 23.1778 11.6249H23.1774C23.1162 11.6345 23.0488 11.6457 22.9739 11.6594H22.9735C22.9622 11.6615 22.9506 11.6635 22.9389 11.6652C22.9381 11.6652 22.9372 11.6652 22.9364 11.6656C21.2302 11.9721 16.3155 13.169 13.7059 17.5561C12.9314 18.8588 12.5348 20.1471 12.3313 21.2351C12.3309 21.2355 12.3309 21.2364 12.3309 21.2368C12.3263 21.2617 12.3217 21.2866 12.3172 21.3107C12.3159 21.3174 12.3147 21.3236 12.3138 21.3298C12.3138 21.3302 12.3138 21.3306 12.3134 21.3315C12.3134 21.3319 12.3134 21.3319 12.3134 21.3323C12.3134 21.3327 12.3134 21.3327 12.3138 21.3331C12.3134 21.3331 12.3134 21.3331 12.3134 21.3331C12.313 21.3352 12.313 21.3369 12.3126 21.3385C12.3126 21.3394 12.3122 21.3406 12.3122 21.3414C12.3118 21.3419 12.3122 21.3423 12.3118 21.3431C12.3113 21.3435 12.3118 21.3448 12.3113 21.3452C12.3113 21.346 12.3109 21.3468 12.3109 21.3477C12.3093 21.3502 12.3088 21.3518 12.3084 21.3539Z" fill="url(#paint8_linear)"/>
<path opacity="0.5" d="M15.4949 21.3238C15.0542 21.4114 14.621 21.4592 14.2015 21.4754C14.1974 21.4758 14.1932 21.4758 14.189 21.4758C14.1853 21.4758 14.1824 21.4758 14.1786 21.4758C14.1753 21.4758 14.172 21.4758 14.1687 21.4762C14.1678 21.4762 14.1666 21.4758 14.1653 21.4762C13.5648 21.4974 12.993 21.4554 12.4637 21.3765C12.4612 21.3765 12.4587 21.3757 12.4562 21.3753C12.4163 21.3691 12.3755 21.3632 12.3359 21.3566C12.3401 21.3554 12.3443 21.3545 12.3476 21.3529H12.348C12.353 21.3516 12.3576 21.3504 12.3622 21.3491L12.3638 21.3487C12.38 21.3437 12.3963 21.3396 12.4121 21.3346H12.4125C15.3135 20.4895 15.4283 20.4488 15.4283 20.4488C17.9847 19.5447 19.5732 17.6094 20.5923 16.3677C21.8711 14.8116 22.6631 13.2352 23.1608 11.9307C23.1612 11.9295 23.1616 11.9287 23.162 11.9278C23.1641 11.9233 23.1658 11.9191 23.1674 11.9146C23.1716 11.9183 23.1749 11.922 23.1795 11.9245C23.1899 11.9328 23.2007 11.9407 23.2111 11.949C23.2124 11.9494 23.2136 11.9507 23.2144 11.9519C23.0996 12.3847 22.9772 12.7983 22.8495 13.1932C22.8491 13.1936 22.8487 13.1945 22.8487 13.1945C20.673 19.8993 16.7317 21.2918 14.3168 21.4671C14.7001 21.4484 15.0942 21.4023 15.4949 21.3238Z" fill="url(#paint9_linear)"/>
<path d="M12.3086 21.3535C12.3094 21.3519 12.3103 21.3498 12.3111 21.3477C12.3115 21.3473 12.3115 21.3461 12.3119 21.3456C12.3123 21.3444 12.3128 21.344 12.3136 21.3427C12.3136 21.3423 12.314 21.3423 12.3136 21.3419C12.3144 21.3402 12.3148 21.3386 12.3161 21.3369C12.3173 21.3336 12.319 21.3307 12.3207 21.3274C12.3215 21.3253 12.3227 21.3224 12.3244 21.3199L12.3248 21.3195C12.3257 21.3162 12.3273 21.3133 12.3282 21.3099H12.3286C12.3427 21.2784 12.3573 21.2456 12.3723 21.2132C12.3731 21.2123 12.3735 21.2111 12.3739 21.2103C13.0019 19.8357 14.1047 17.8767 16.0019 15.9888C18.3099 13.6931 20.7847 12.5062 22.4684 11.8924C22.7064 11.8056 22.9278 11.73 23.1313 11.6652C23.1355 11.664 23.1388 11.6623 23.1426 11.6615L23.1438 11.6611C23.168 11.6532 23.1917 11.6461 23.2154 11.6387L23.2304 11.6341C23.2337 11.6324 23.2379 11.6312 23.2416 11.6308C23.2445 11.6295 23.2474 11.6287 23.2508 11.6279H23.2512C23.2678 11.6225 23.2836 11.6171 23.2999 11.6121L23.304 11.6108C23.3028 11.6175 23.3011 11.6237 23.299 11.6304L23.294 11.6349L23.287 11.6412L23.2333 11.6885L23.1879 11.7292H23.1875L22.6191 12.2321C22.6182 12.2325 22.617 12.2338 22.6161 12.2346L21.8142 12.9439C21.813 12.9452 21.8113 12.9464 21.8105 12.9477C21.8101 12.9477 21.8101 12.9481 21.8096 12.9485L12.4085 21.2667C12.4081 21.2667 12.4076 21.2676 12.4072 21.2676C12.4064 21.2684 12.406 21.2684 12.4051 21.2692L12.3344 21.3324L12.3248 21.3415L12.3236 21.3419L12.3169 21.3477L12.3148 21.3494L12.3086 21.3535Z" fill="url(#paint10_linear)"/>
<path d="M14.3168 21.4674C14.3101 21.4683 14.3035 21.4687 14.2968 21.4687C14.2931 21.4687 14.2889 21.4691 14.2856 21.4691C14.2847 21.4691 14.2835 21.4687 14.2827 21.4691C13.5956 21.5019 12.9439 21.4504 12.3492 21.3536L12.3488 21.3532H12.3484C12.348 21.3532 12.348 21.3528 12.3476 21.3532C12.3434 21.3528 12.3401 21.352 12.3359 21.3516H12.3355C12.3309 21.3512 12.3268 21.3499 12.3218 21.3487C12.3213 21.3482 12.3201 21.3487 12.3197 21.3482C12.318 21.3482 12.3168 21.3478 12.3151 21.3478C12.3151 21.3478 12.3147 21.3474 12.3143 21.3478C12.3139 21.3474 12.3134 21.3478 12.3122 21.3474C12.3118 21.3474 12.3114 21.3474 12.3105 21.3474C12.3101 21.347 12.3093 21.3466 12.3084 21.347C12.308 21.347 12.308 21.3466 12.3076 21.347C12.308 21.3466 12.308 21.3453 12.3084 21.3449V21.3445L12.3089 21.3441H12.3093C12.3097 21.3437 12.3097 21.3424 12.3097 21.342C12.3105 21.3408 12.3105 21.3404 12.3114 21.3391C12.3118 21.337 12.3126 21.3354 12.3134 21.3333C12.3139 21.3329 12.3139 21.3329 12.3134 21.3325C12.3139 21.3321 12.3139 21.3321 12.3134 21.3316C12.3139 21.3312 12.3143 21.3304 12.3139 21.33L12.3147 21.3291C12.3147 21.3283 12.3155 21.3275 12.3159 21.3262C12.3172 21.325 12.318 21.3237 12.3193 21.3225C12.3197 21.3221 12.3201 21.3217 12.3205 21.3213C12.3234 21.3179 12.3263 21.3142 12.3293 21.3105H12.3297C14.3526 18.9935 19.966 14.307 22.5586 12.1782L22.5769 12.1624C22.6921 12.0686 22.8012 11.9797 22.9031 11.8954C22.9036 11.8954 22.9044 11.8946 22.9048 11.8941C23.0176 11.8024 23.1208 11.7172 23.2161 11.6392L23.2177 11.6387C23.2236 11.6342 23.2294 11.6292 23.2356 11.6246C23.2398 11.6209 23.244 11.6176 23.2481 11.6138H23.2485C23.2519 11.6113 23.2544 11.6093 23.2577 11.6068C23.266 11.5997 23.2743 11.5935 23.2822 11.5864C23.2931 11.5781 23.3022 11.5702 23.3126 11.5627L23.313 11.5623C23.3135 11.5623 23.3135 11.5623 23.3139 11.5619C23.3139 11.5615 23.3143 11.5615 23.3143 11.5615C23.3155 11.5607 23.3164 11.5594 23.3176 11.5586C23.3176 11.5594 23.3172 11.5607 23.3172 11.5615C23.3164 11.564 23.316 11.5669 23.3151 11.5694C23.3147 11.5698 23.3147 11.5711 23.3147 11.5715C23.3118 11.5831 23.3089 11.5943 23.306 11.6055C23.3051 11.6076 23.3047 11.6097 23.3039 11.6122C23.3026 11.6188 23.301 11.625 23.2989 11.6317C23.2989 11.6321 23.2989 11.6325 23.2989 11.6325C23.2918 11.6612 23.2843 11.6898 23.2777 11.7181H23.2773C23.2569 11.7974 23.2369 11.8759 23.2157 11.954C23.1008 12.3867 22.9785 12.8003 22.8507 13.1953C22.8503 13.1957 22.8499 13.1965 22.8499 13.1965C20.673 19.8993 16.7317 21.2922 14.3168 21.4674Z" fill="url(#paint11_linear)"/>
<path d="M12.3623 21.3498C12.354 21.3502 12.3456 21.351 12.3373 21.3514C12.3365 21.3518 12.3356 21.3514 12.3348 21.3518H12.3344C12.3257 21.3518 12.3169 21.3527 12.3086 21.3535C12.3119 21.3518 12.3157 21.3506 12.319 21.3489L12.3215 21.3481C12.3273 21.3452 12.334 21.3427 12.3406 21.3398C12.3731 21.3261 12.406 21.312 12.4388 21.2979L12.4413 21.297C13.8762 20.6812 15.6274 19.758 17.431 18.3672C20.0677 16.3339 21.7968 14.0847 22.8829 12.3621C22.8833 12.3617 22.8833 12.3608 22.8842 12.36C22.9861 12.198 23.0822 12.0415 23.1734 11.8899C23.1734 11.8895 23.1738 11.8895 23.1738 11.8895C23.2063 11.8347 23.2375 11.7819 23.2683 11.7288H23.2687C23.2712 11.7242 23.2733 11.72 23.2758 11.7163C23.2554 11.7956 23.2354 11.8741 23.2142 11.9522C23.0993 12.3849 22.977 12.7986 22.8492 13.1935C22.8488 13.1939 22.8484 13.1947 22.8484 13.1947C22.8384 13.2213 22.8276 13.2475 22.8167 13.2745C22.8163 13.2761 22.8155 13.2774 22.8151 13.279C22.5929 13.8384 22.3099 14.4473 21.947 15.0802C21.3523 16.1167 20.091 18.2538 17.4967 19.7804C15.5029 20.9544 13.572 21.2663 12.3623 21.3498Z" fill="url(#paint12_linear)"/>
<path opacity="0.1" d="M16.2388 20.3953C21.317 18.1295 22.9491 12.7237 23.2679 11.5605C23.2721 11.5609 23.2758 11.56 23.2791 11.558C23.2804 11.558 23.282 11.5584 23.2833 11.558C23.2904 11.5584 23.2974 11.5592 23.3045 11.5584C23.307 11.558 23.3099 11.5575 23.3124 11.5571C20.4468 22.9793 12.9712 21.5004 12.2979 21.3426C13.4269 21.2753 14.8022 21.0361 16.2388 20.3953Z" fill="url(#paint13_linear)"/>
<path d="M13.3 14.2162C13.2995 14.2154 13.2987 14.2142 13.2979 14.2133C13.2979 14.2129 13.2975 14.2125 13.297 14.2121V14.2117V14.2113C13.297 14.2108 13.2966 14.2108 13.2966 14.2104L13.2958 14.2092C13.2958 14.2088 13.295 14.2079 13.295 14.2075L13.2945 14.2067C13.2941 14.2059 13.2933 14.2046 13.2925 14.2034C13.2908 14.2005 13.2887 14.1971 13.2871 14.1938V14.1934C13.2858 14.1917 13.285 14.1905 13.2841 14.1884C13.2816 14.1843 13.2787 14.1797 13.2762 14.1743C13.2758 14.1735 13.275 14.1726 13.2746 14.1718C13.2654 14.1556 13.2546 14.1365 13.2425 14.1145C13.2413 14.1128 13.2404 14.1112 13.2396 14.1091C13.2188 14.0709 13.1951 14.0248 13.1693 13.9712C13.1664 13.9654 13.1635 13.9596 13.161 13.9538C13.1522 13.9359 13.1439 13.9176 13.1352 13.8985V13.8981C13.1235 13.8724 13.1114 13.8454 13.0994 13.8171C13.0952 13.8076 13.0915 13.798 13.0869 13.7885C13.079 13.769 13.0707 13.749 13.0623 13.7287V13.7283C13.0544 13.7079 13.0457 13.6863 13.0374 13.6652V13.6647C13.0253 13.6332 13.0132 13.6008 13.0007 13.5671C12.9608 13.4575 12.9217 13.3358 12.8855 13.2033C12.8846 13.2004 12.8838 13.1975 12.883 13.1946C12.8772 13.1734 12.8717 13.1523 12.8663 13.1311C12.8663 13.1307 12.8663 13.1303 12.8659 13.1294C12.5105 11.7336 12.5488 9.21947 15.9974 6.7269C15.9983 6.72649 15.9991 6.72566 16.0003 6.72483C16.1997 6.58114 16.4107 6.43703 16.6333 6.29334C16.6745 6.26676 16.7161 6.24018 16.7581 6.21361C16.7586 6.21361 16.7586 6.21361 16.7586 6.21361C16.7727 6.20447 16.7873 6.19533 16.8018 6.18661L16.8022 6.1862C16.8052 6.1837 16.8089 6.18204 16.8122 6.17997C16.8135 6.17914 16.8143 6.17831 16.8156 6.17747C16.8197 6.17457 16.8243 6.17208 16.8289 6.16917C16.8293 6.16917 16.8293 6.16917 16.8293 6.16875C16.8301 6.16834 16.8314 6.16751 16.8326 6.16709C16.833 6.16668 16.8335 6.16668 16.8339 6.16626C16.8347 6.16585 16.836 6.16502 16.8368 6.1646C16.8372 6.16419 16.8376 6.16419 16.838 6.16377L16.8389 6.16294C16.8393 6.16252 16.8397 6.16252 16.8401 6.16211V6.16252H16.8397C16.8397 6.16294 16.8401 6.16377 16.8401 6.16419C16.8405 6.16585 16.8405 6.16751 16.8409 6.16917C16.8409 6.16958 16.8409 6.17 16.8414 6.17042C16.8426 6.17748 16.8439 6.18412 16.8451 6.19118C16.8451 6.19243 16.8455 6.19367 16.8455 6.19533C16.8464 6.19949 16.8472 6.20322 16.8476 6.20696C16.8476 6.20738 16.8476 6.20738 16.8476 6.20738C16.8472 6.20862 16.8468 6.20987 16.8459 6.21111C16.8451 6.21236 16.8443 6.21402 16.8434 6.21568C16.8376 6.22731 16.8318 6.23935 16.826 6.25181C16.8214 6.26136 16.8164 6.2705 16.8118 6.28047C16.7844 6.33612 16.7548 6.39592 16.7236 6.45904C16.7236 6.45946 16.7232 6.45987 16.7232 6.46029C16.6787 6.55041 16.6308 6.648 16.5796 6.75307C16.5796 6.75348 16.5792 6.75348 16.5792 6.7539C16.5788 6.75431 16.5788 6.75473 16.5788 6.75556C16.5018 6.91212 16.4181 7.08364 16.3283 7.26844L16.3266 7.27218C15.3873 9.20701 13.826 12.5169 13.3228 14.1419V14.1423C13.3187 14.1556 13.3145 14.1685 13.3108 14.1814C13.3104 14.1814 13.3104 14.1814 13.3104 14.1818C13.3083 14.1884 13.3062 14.1951 13.3045 14.2017C13.3041 14.2038 13.3037 14.2054 13.3029 14.2075C13.3025 14.2088 13.302 14.21 13.3016 14.2113C13.3012 14.2117 13.3012 14.2121 13.3012 14.2125C13.3008 14.2133 13.3004 14.215 13.3 14.2162Z" fill="url(#paint14_linear)"/>
<path opacity="0.1" d="M13.3008 14.2175C13.3004 14.2167 13.2996 14.2154 13.2988 14.2146C13.2988 14.2142 13.2983 14.2138 13.2979 14.2133V14.2129V14.2125C13.2979 14.2121 13.2975 14.2121 13.2975 14.2117L13.2967 14.2104C13.2967 14.21 13.2959 14.2092 13.2959 14.2088L13.2954 14.2079C13.295 14.2071 13.2942 14.2059 13.2934 14.2046C13.2917 14.2017 13.2896 14.1984 13.2879 14.1951V14.1947C13.2867 14.193 13.2859 14.1918 13.285 14.1897C13.2825 14.1855 13.2796 14.181 13.2771 14.1756C13.2767 14.1747 13.2759 14.1739 13.2755 14.1731C13.2663 14.1569 13.2555 14.1378 13.2434 14.1158C13.2422 14.1141 13.2413 14.1124 13.2405 14.1104C13.2197 14.0721 13.196 14.0261 13.1702 13.9725C13.1673 13.9667 13.1643 13.9609 13.1619 13.955C13.1531 13.9372 13.1448 13.9189 13.136 13.8998V13.8994C13.1244 13.8736 13.1123 13.8466 13.1003 13.8184C13.0961 13.8089 13.0924 13.7993 13.0878 13.7898C13.0799 13.7702 13.0715 13.7503 13.0632 13.7299V13.7295C13.0553 13.7092 13.0466 13.6876 13.0383 13.6664V13.666C13.0262 13.6344 13.0141 13.602 13.0016 13.5684C12.9654 13.4671 12.9292 13.3562 12.8955 13.2358C12.8951 13.2341 12.8943 13.2324 12.8939 13.2299C12.888 13.2092 12.8826 13.1876 12.8768 13.166C12.8764 13.1647 12.876 13.1635 12.876 13.1622C12.5147 11.7798 12.5281 9.26268 15.96 6.75932C16.1723 6.60442 16.3974 6.44951 16.6367 6.29544C16.6754 6.27011 16.7145 6.24519 16.754 6.22027L16.7549 6.21986C16.7703 6.21031 16.7857 6.20034 16.8011 6.19079H16.8015H16.8019C16.8056 6.1883 16.8094 6.1858 16.8131 6.18331H16.8136C16.8148 6.18248 16.816 6.18207 16.8173 6.18082C16.8248 6.17584 16.8323 6.17127 16.8402 6.1667C16.8406 6.1667 16.8406 6.1667 16.8406 6.16628C16.841 6.16587 16.8418 6.16545 16.8423 6.16504C16.8427 6.1667 16.8427 6.16836 16.8431 6.17002C16.8431 6.17044 16.8431 6.17085 16.8435 6.17127C16.8448 6.17833 16.846 6.18497 16.8473 6.19203C16.8464 6.19245 16.846 6.19286 16.8452 6.19369C16.8389 6.19785 16.8319 6.20242 16.8252 6.20698C16.824 6.20781 16.8231 6.20823 16.8219 6.20906C16.8206 6.20989 16.8194 6.21031 16.8181 6.21114H16.8177C16.8165 6.21238 16.8152 6.21321 16.8136 6.21404C16.8048 6.21986 16.7952 6.22609 16.7853 6.23273C16.7844 6.23356 16.7836 6.23398 16.7828 6.23481H16.7823C16.7515 6.25516 16.7178 6.278 16.6804 6.30375H16.68C16.6746 6.30748 16.6687 6.31164 16.6629 6.31537C16.6625 6.31537 16.6621 6.31579 16.6617 6.3162C15.8111 6.90633 13.439 8.77596 13.1144 11.8067C13.0183 12.7067 13.124 13.5049 13.2846 14.1469C13.2846 14.1473 13.2846 14.1477 13.2846 14.1477C13.2884 14.1623 13.2921 14.1772 13.2954 14.1913C13.2963 14.1955 13.2975 14.1988 13.2983 14.2025C13.2983 14.203 13.2983 14.203 13.2983 14.2034C13.2983 14.2038 13.2983 14.2038 13.2983 14.2038C13.2983 14.2042 13.2983 14.2042 13.2988 14.2042C13.2983 14.2042 13.2983 14.2042 13.2983 14.2042C13.2988 14.2055 13.2992 14.2063 13.2992 14.2075C13.2992 14.2079 13.2996 14.2088 13.2996 14.2092C13.2996 14.2096 13.2996 14.2096 13.2996 14.21C13.2996 14.2104 13.3 14.2109 13.3 14.2113C13.3 14.2117 13.3 14.2121 13.3004 14.2125C13.3004 14.2154 13.3004 14.2163 13.3008 14.2175Z" fill="url(#paint15_linear)"/>
<path opacity="0.5" d="M15.0238 13.4095C14.8061 13.5664 14.5827 13.6998 14.3588 13.8127C14.3567 13.814 14.3546 13.8152 14.3521 13.816C14.35 13.8173 14.3484 13.8177 14.3467 13.8185C14.345 13.8194 14.343 13.8202 14.3413 13.8214C14.3409 13.8214 14.3401 13.8218 14.3396 13.8223C14.0188 13.983 13.6975 14.1022 13.3904 14.1902C13.3892 14.1906 13.3875 14.191 13.3858 14.1915C13.3625 14.1981 13.3392 14.2047 13.3159 14.211C13.318 14.2093 13.3201 14.2077 13.3213 14.206H13.3217C13.3242 14.2043 13.3263 14.2023 13.3284 14.2006L13.3292 14.1998C13.3367 14.1931 13.3446 14.1865 13.3517 14.1802H13.3521C14.7175 13.0012 14.7699 12.9506 14.7699 12.9506C15.9335 11.8251 16.3143 10.3795 16.5585 9.45175C16.8656 8.28894 16.9031 7.23618 16.8482 6.40394C16.8482 6.40311 16.8482 6.40269 16.8482 6.40228C16.8482 6.39937 16.8478 6.39646 16.8478 6.39355C16.8507 6.39439 16.8536 6.39563 16.8569 6.39605C16.8644 6.39771 16.8723 6.39937 16.8802 6.40145C16.881 6.40145 16.8819 6.40186 16.8827 6.40228C16.9281 6.66598 16.9647 6.92097 16.9938 7.16724C16.9938 7.16766 16.9938 7.16807 16.9938 7.16807C17.482 11.3509 15.688 13.0855 14.4195 13.7803C14.623 13.6744 14.8257 13.5515 15.0238 13.4095Z" fill="url(#paint16_linear)"/>
<path d="M13.2997 14.2163C13.2997 14.2151 13.2997 14.2138 13.2997 14.2126C13.2997 14.2121 13.2997 14.2117 13.2997 14.2113C13.2997 14.2105 13.2997 14.2101 13.2997 14.2092C13.2997 14.2088 13.2997 14.2088 13.2997 14.2088C13.2997 14.2076 13.2997 14.2067 13.2997 14.2055C13.2997 14.2034 13.2997 14.2013 13.2997 14.1993C13.2997 14.198 13.2997 14.1959 13.2997 14.1943V14.1939C13.2993 14.1918 13.2997 14.1897 13.2993 14.1881H13.2997C13.2997 14.1673 13.2993 14.1461 13.2993 14.1249C13.2997 14.1245 13.2997 14.1237 13.2993 14.1229C13.2981 13.2204 13.4092 11.8824 13.9693 10.3861C14.651 8.56586 15.7001 7.30712 16.462 6.55586C16.5698 6.44954 16.6714 6.35361 16.7654 6.26806C16.7675 6.2664 16.7687 6.26474 16.7704 6.26308L16.7712 6.26266C16.7825 6.25228 16.7933 6.24273 16.8045 6.23276L16.8116 6.22653C16.8133 6.22487 16.8149 6.22321 16.817 6.22196C16.8183 6.2203 16.8195 6.21947 16.8212 6.21823H16.8216C16.8291 6.21117 16.8366 6.20411 16.8441 6.19746L16.8462 6.1958C16.847 6.19995 16.8478 6.20369 16.8482 6.20743L16.8466 6.21117L16.8445 6.21615L16.8274 6.25519L16.8129 6.28841H16.8124L16.6289 6.70245C16.6285 6.70287 16.6281 6.7037 16.6281 6.70453L16.3692 7.28884C16.3688 7.28967 16.3684 7.29092 16.368 7.29175C16.3676 7.29175 16.368 7.29217 16.3676 7.29217L13.3326 14.1445C13.3322 14.1445 13.3322 14.1449 13.3322 14.1453C13.3318 14.1457 13.3318 14.1461 13.3314 14.1465L13.3085 14.1984L13.3056 14.2059L13.3047 14.2063L13.3027 14.2113L13.3018 14.2126L13.2997 14.2163Z" fill="url(#paint17_linear)"/>
<path d="M14.4188 13.7804C14.4155 13.7825 14.4117 13.7841 14.408 13.7862C14.4059 13.7875 14.4038 13.7883 14.4022 13.7891C14.4017 13.7891 14.4009 13.7895 14.4005 13.79C14.0355 13.9781 13.6685 14.1122 13.3214 14.2069H13.321H13.3206H13.3202C13.3181 14.2077 13.3156 14.2082 13.3135 14.209C13.311 14.2098 13.3081 14.2102 13.3056 14.2111C13.3052 14.2111 13.3048 14.2115 13.3044 14.2115C13.3035 14.2119 13.3027 14.2119 13.3019 14.2123H13.3015C13.301 14.2123 13.301 14.2123 13.3002 14.2127C13.2998 14.2127 13.2998 14.2127 13.2994 14.2131C13.299 14.2131 13.2985 14.2131 13.2981 14.2136C13.2977 14.2136 13.2977 14.2136 13.2977 14.2136C13.2977 14.2131 13.2977 14.2127 13.2977 14.2123V14.2119V14.2115C13.2977 14.2111 13.2977 14.2106 13.2973 14.2102C13.2973 14.2094 13.2973 14.209 13.2973 14.2082C13.2969 14.2069 13.2969 14.2057 13.2969 14.2044C13.2969 14.204 13.2969 14.204 13.2969 14.204C13.2969 14.2036 13.2969 14.2036 13.2969 14.2036C13.2969 14.2032 13.2969 14.2028 13.2969 14.2028L13.2973 14.2023C13.2973 14.2019 13.2973 14.2011 13.2973 14.2007C13.2977 14.1998 13.2977 14.1986 13.2981 14.1978C13.2981 14.1974 13.2985 14.1974 13.2985 14.1969C13.2994 14.1944 13.2998 14.1915 13.3006 14.1886H13.301C13.8229 12.4278 15.7047 8.48878 16.5828 6.68892L16.5886 6.67563C16.6277 6.59589 16.6647 6.52072 16.6993 6.44971C16.6997 6.44971 16.6997 6.44888 16.6997 6.44846C16.738 6.37039 16.7729 6.29896 16.8054 6.23251L16.8062 6.23168C16.8083 6.22753 16.8104 6.22379 16.8125 6.21964C16.8137 6.21673 16.8154 6.21382 16.8166 6.21092H16.8171C16.8183 6.20884 16.8191 6.20676 16.8204 6.20469C16.8233 6.19887 16.8262 6.19348 16.8287 6.18766C16.8325 6.1806 16.8354 6.17396 16.8391 6.16731V6.1669C16.8395 6.1669 16.8395 6.1669 16.8395 6.16648C16.8395 6.16607 16.8395 6.16607 16.8395 6.16607C16.8399 6.16524 16.8404 6.1644 16.8408 6.16357C16.8408 6.16399 16.8412 6.16482 16.8412 6.16524C16.8416 6.1669 16.8416 6.16856 16.842 6.17022C16.842 6.17063 16.842 6.17105 16.8424 6.17146C16.8437 6.17852 16.8449 6.18517 16.8462 6.19223C16.8462 6.19348 16.8466 6.19472 16.8466 6.19638C16.8474 6.20054 16.8483 6.20427 16.8487 6.20801C16.8487 6.20843 16.8487 6.20843 16.8487 6.20843C16.852 6.22545 16.8549 6.24289 16.8583 6.26034H16.8578C16.8666 6.30851 16.8753 6.35627 16.8832 6.40403C16.9286 6.66774 16.9652 6.92272 16.9943 7.16899C16.9943 7.16941 16.9943 7.16982 16.9943 7.16982C17.4812 11.351 15.6872 13.0856 14.4188 13.7804Z" fill="url(#paint18_linear)"/>
<path d="M13.3286 14.2008C13.3244 14.2033 13.3199 14.2058 13.3153 14.2078C13.3149 14.2083 13.3144 14.2083 13.314 14.2087C13.3094 14.2108 13.3049 14.2137 13.3003 14.2157C13.302 14.2141 13.3032 14.2124 13.3049 14.2108L13.3061 14.2095C13.3086 14.2066 13.3115 14.2037 13.3144 14.2004C13.3286 14.185 13.3432 14.1692 13.3573 14.153L13.3586 14.1518C13.9844 13.4612 14.706 12.5251 15.3394 11.322C16.2653 9.56283 16.644 7.91206 16.8051 6.70647C16.8051 6.70606 16.8051 6.70564 16.8055 6.70523C16.8205 6.59185 16.8338 6.48305 16.8455 6.37798V6.37756C16.8492 6.33977 16.8534 6.30323 16.8567 6.26709H16.8571C16.8571 6.26377 16.8575 6.26128 16.8579 6.25879C16.8667 6.30696 16.8754 6.35472 16.8833 6.40248C16.9287 6.66619 16.9653 6.92118 16.9944 7.16744C16.9944 7.16786 16.9944 7.16827 16.9944 7.16827C16.9957 7.1853 16.9965 7.20191 16.9973 7.21935C16.9973 7.22018 16.9973 7.22101 16.9978 7.22226C17.0165 7.58149 17.0144 7.98224 16.9749 8.41622C16.91 9.12678 16.7572 10.6011 15.7285 12.0741C14.9366 13.2066 13.9649 13.8553 13.3286 14.2008Z" fill="url(#paint19_linear)"/>
<path opacity="0.1" d="M15.1961 12.7206C17.3905 10.2293 16.9302 6.88742 16.8137 6.17645C16.8162 6.17562 16.8179 6.17437 16.8191 6.1723C16.8199 6.17188 16.8208 6.17188 16.8212 6.17105C16.8249 6.16939 16.8291 6.16814 16.8328 6.16607C16.8341 6.16524 16.8353 6.1644 16.837 6.16357C18.1262 13.0802 13.6959 14.1317 13.291 14.2131C13.8878 13.8963 14.5757 13.4249 15.1961 12.7206Z" fill="url(#paint20_linear)"/>
<defs>
<linearGradient id="paint0_linear" x1="-3.44334" y1="3.51947" x2="10.2675" y2="16.3427" gradientUnits="userSpaceOnUse">
<stop stop-color="#2BE8FA"/>
<stop offset="0.1481" stop-color="#2CE5FA"/>
<stop offset="0.2714" stop-color="#30DAFA"/>
<stop offset="0.3857" stop-color="#36C9F9"/>
<stop offset="0.494" stop-color="#3FB1F9"/>
<stop offset="0.5088" stop-color="#40ADF9"/>
<stop offset="1" stop-color="#477EF7"/>
</linearGradient>
<linearGradient id="paint1_linear" x1="0.00971241" y1="10.6547" x2="10.3956" y2="10.6547" gradientUnits="userSpaceOnUse">
<stop stop-color="white"/>
<stop offset="0.9207" stop-color="white" stop-opacity="0.0792859"/>
<stop offset="1" stop-color="white" stop-opacity="0"/>
</linearGradient>
<linearGradient id="paint2_linear" x1="0.328556" y1="10.8029" x2="11.8271" y2="10.8029" gradientUnits="userSpaceOnUse">
<stop stop-color="#42A1F8"/>
<stop offset="1" stop-color="white" stop-opacity="0"/>
</linearGradient>
<linearGradient id="paint3_linear" x1="3.3689" y1="13.0505" x2="5.90738" y2="10.202" gradientUnits="userSpaceOnUse">
<stop stop-color="#40A6F9"/>
<stop offset="1" stop-color="#2BE8FA" stop-opacity="0"/>
</linearGradient>
<linearGradient id="paint4_linear" x1="8.77993" y1="6.65091" x2="-0.637474" y2="18.018" gradientUnits="userSpaceOnUse">
<stop stop-color="#2BE8FA"/>
<stop offset="0.1481" stop-color="#2CE5FA"/>
<stop offset="0.2714" stop-color="#30DAFA"/>
<stop offset="0.3857" stop-color="#36C9F9"/>
<stop offset="0.494" stop-color="#3FB1F9"/>
<stop offset="0.5088" stop-color="#40ADF9"/>
<stop offset="1" stop-color="#477EF7"/>
</linearGradient>
<linearGradient id="paint5_linear" x1="2.52849" y1="15.1415" x2="6.87507" y2="8.79522" gradientUnits="userSpaceOnUse">
<stop stop-color="#42A1F8"/>
<stop offset="0.1361" stop-color="#40A8F8"/>
<stop offset="0.3391" stop-color="#39BDF9"/>
<stop offset="0.583" stop-color="#2EDEFA"/>
<stop offset="0.5851" stop-color="#2EDEFA"/>
<stop offset="1" stop-color="#2BE8FA" stop-opacity="0"/>
</linearGradient>
<linearGradient id="paint6_linear" x1="0.49858" y1="10.662" x2="11.8074" y2="10.662" gradientUnits="userSpaceOnUse">
<stop stop-color="#2BE8FA"/>
<stop offset="0.1481" stop-color="#2CE5FA" stop-opacity="0.8835"/>
<stop offset="0.2714" stop-color="#30DAFA" stop-opacity="0.7867"/>
<stop offset="0.3857" stop-color="#36C9F9" stop-opacity="0.6968"/>
<stop offset="0.494" stop-color="#3FB1F9" stop-opacity="0.6116"/>
<stop offset="0.5088" stop-color="#40ADF9" stop-opacity="0.6"/>
<stop offset="1" stop-color="#477EF7" stop-opacity="0"/>
</linearGradient>
<linearGradient id="paint7_linear" x1="20.4805" y1="9.82657" x2="15.3093" y2="20.3899" gradientUnits="userSpaceOnUse">
<stop stop-color="#2BE8FA"/>
<stop offset="0.1481" stop-color="#2CE5FA"/>
<stop offset="0.2714" stop-color="#30DAFA"/>
<stop offset="0.3857" stop-color="#36C9F9"/>
<stop offset="0.494" stop-color="#3FB1F9"/>
<stop offset="0.5088" stop-color="#40ADF9"/>
<stop offset="1" stop-color="#477EF7"/>
</linearGradient>
<linearGradient id="paint8_linear" x1="16.82" y1="13.1942" x2="18.7051" y2="19.4137" gradientUnits="userSpaceOnUse">
<stop stop-color="white"/>
<stop offset="0.9207" stop-color="white" stop-opacity="0.0792859"/>
<stop offset="1" stop-color="white" stop-opacity="0"/>
</linearGradient>
<linearGradient id="paint9_linear" x1="16.789" y1="13.412" x2="18.8761" y2="20.2978" gradientUnits="userSpaceOnUse">
<stop stop-color="#42A1F8"/>
<stop offset="1" stop-color="white" stop-opacity="0"/>
</linearGradient>
<linearGradient id="paint10_linear" x1="15.992" y1="15.6412" x2="18.1631" y2="16.6497" gradientUnits="userSpaceOnUse">
<stop stop-color="#40A6F9"/>
<stop offset="1" stop-color="#2BE8FA" stop-opacity="0"/>
</linearGradient>
<linearGradient id="paint11_linear" x1="20.8249" y1="17.7144" x2="12.2888" y2="14.1179" gradientUnits="userSpaceOnUse">
<stop stop-color="#2BE8FA"/>
<stop offset="0.1481" stop-color="#2CE5FA"/>
<stop offset="0.2714" stop-color="#30DAFA"/>
<stop offset="0.3857" stop-color="#36C9F9"/>
<stop offset="0.494" stop-color="#3FB1F9"/>
<stop offset="0.5088" stop-color="#40ADF9"/>
<stop offset="1" stop-color="#477EF7"/>
</linearGradient>
<linearGradient id="paint12_linear" x1="14.5821" y1="15.5192" x2="19.1843" y2="16.9793" gradientUnits="userSpaceOnUse">
<stop stop-color="#42A1F8"/>
<stop offset="0.1361" stop-color="#40A8F8"/>
<stop offset="0.3391" stop-color="#39BDF9"/>
<stop offset="0.583" stop-color="#2EDEFA"/>
<stop offset="0.5851" stop-color="#2EDEFA"/>
<stop offset="1" stop-color="#2BE8FA" stop-opacity="0"/>
</linearGradient>
<linearGradient id="paint13_linear" x1="16.9044" y1="13.4882" x2="18.9571" y2="20.2604" gradientUnits="userSpaceOnUse">
<stop stop-color="#2BE8FA"/>
<stop offset="0.1481" stop-color="#2CE5FA" stop-opacity="0.8835"/>
<stop offset="0.2714" stop-color="#30DAFA" stop-opacity="0.7867"/>
<stop offset="0.3857" stop-color="#36C9F9" stop-opacity="0.6968"/>
<stop offset="0.494" stop-color="#3FB1F9" stop-opacity="0.6116"/>
<stop offset="0.5088" stop-color="#40ADF9" stop-opacity="0.6"/>
<stop offset="1" stop-color="#477EF7" stop-opacity="0"/>
</linearGradient>
<linearGradient id="paint14_linear" x1="14.8682" y1="5.92717" x2="14.6803" y2="12.9496" gradientUnits="userSpaceOnUse">
<stop stop-color="#2BE8FA"/>
<stop offset="0.1481" stop-color="#2CE5FA"/>
<stop offset="0.2714" stop-color="#30DAFA"/>
<stop offset="0.3857" stop-color="#36C9F9"/>
<stop offset="0.494" stop-color="#3FB1F9"/>
<stop offset="0.5088" stop-color="#40ADF9"/>
<stop offset="1" stop-color="#477EF7"/>
</linearGradient>
<linearGradient id="paint15_linear" x1="13.7197" y1="8.66629" x2="16.2912" y2="11.58" gradientUnits="userSpaceOnUse">
<stop stop-color="white"/>
<stop offset="0.9207" stop-color="white" stop-opacity="0.0792859"/>
<stop offset="1" stop-color="white" stop-opacity="0"/>
</linearGradient>
<linearGradient id="paint16_linear" x1="13.7564" y1="8.7913" x2="16.6035" y2="12.0172" gradientUnits="userSpaceOnUse">
<stop stop-color="#42A1F8"/>
<stop offset="1" stop-color="white" stop-opacity="0"/>
</linearGradient>
<linearGradient id="paint17_linear" x1="13.8785" y1="10.2003" x2="15.3095" y2="10.2072" gradientUnits="userSpaceOnUse">
<stop stop-color="#40A6F9"/>
<stop offset="1" stop-color="#2BE8FA" stop-opacity="0"/>
</linearGradient>
<linearGradient id="paint18_linear" x1="17.0206" y1="10.1277" x2="11.4867" y2="10.301" gradientUnits="userSpaceOnUse">
<stop stop-color="#2BE8FA"/>
<stop offset="0.1481" stop-color="#2CE5FA"/>
<stop offset="0.2714" stop-color="#30DAFA"/>
<stop offset="0.3857" stop-color="#36C9F9"/>
<stop offset="0.494" stop-color="#3FB1F9"/>
<stop offset="0.5088" stop-color="#40ADF9"/>
<stop offset="1" stop-color="#477EF7"/>
</linearGradient>
<linearGradient id="paint19_linear" x1="13.0826" y1="10.4838" x2="15.9464" y2="10.1301" gradientUnits="userSpaceOnUse">
<stop stop-color="#42A1F8"/>
<stop offset="0.1361" stop-color="#40A8F8"/>
<stop offset="0.3391" stop-color="#39BDF9"/>
<stop offset="0.583" stop-color="#2EDEFA"/>
<stop offset="0.5851" stop-color="#2EDEFA"/>
<stop offset="1" stop-color="#2BE8FA" stop-opacity="0"/>
</linearGradient>
<linearGradient id="paint20_linear" x1="13.8378" y1="8.80404" x2="16.6379" y2="11.9767" gradientUnits="userSpaceOnUse">
<stop stop-color="#2BE8FA"/>
<stop offset="0.1481" stop-color="#2CE5FA" stop-opacity="0.8835"/>
<stop offset="0.2714" stop-color="#30DAFA" stop-opacity="0.7867"/>
<stop offset="0.3857" stop-color="#36C9F9" stop-opacity="0.6968"/>
<stop offset="0.494" stop-color="#3FB1F9" stop-opacity="0.6116"/>
<stop offset="0.5088" stop-color="#40ADF9" stop-opacity="0.6"/>
<stop offset="1" stop-color="#477EF7" stop-opacity="0"/>
</linearGradient>
</defs>
</svg>
