<svg width="20" height="20" viewBox="0 0 20 20" fill="none" xmlns="http://www.w3.org/2000/svg">
<path d="M3.76661 4.94499L1.16077 2.33999L2.33994 1.16083L18.8391 17.6608L17.6599 18.8392L14.9016 16.0808C13.436 17.0105 11.7356 17.5028 9.99994 17.5C5.50661 17.5 1.76827 14.2667 0.984108 9.99999C1.34247 8.05893 2.3188 6.28574 3.76744 4.94499H3.76661ZM12.2974 13.4767L11.0774 12.2567C10.6108 12.4799 10.0864 12.5529 9.57655 12.4656C9.06668 12.3784 8.59645 12.135 8.23067 11.7693C7.86489 11.4035 7.62158 10.9333 7.53429 10.4234C7.44699 9.91351 7.52001 9.38912 7.74328 8.92249L6.52328 7.70249C5.99304 8.50374 5.756 9.46361 5.8523 10.4196C5.9486 11.3755 6.37232 12.2688 7.05171 12.9482C7.7311 13.6276 8.6244 14.0513 9.58037 14.1476C10.5363 14.2439 11.4962 14.0069 12.2974 13.4767V13.4767ZM6.64494 3.13333C7.68411 2.72499 8.81661 2.49999 9.99994 2.49999C14.4933 2.49999 18.2316 5.73333 19.0158 9.99999C18.7604 11.3881 18.1865 12.698 17.3391 13.8267L14.1224 10.61C14.218 9.96634 14.1615 9.30925 13.9574 8.69137C13.7533 8.0735 13.4073 7.512 12.9472 7.05188C12.4871 6.59176 11.9256 6.2458 11.3077 6.04172C10.6899 5.83764 10.0328 5.78111 9.38911 5.87666L6.64494 3.13416V3.13333Z" fill="#BDC6D8"/>
</svg>
