<svg width="64" height="59" viewBox="0 0 64 59" fill="none" xmlns="http://www.w3.org/2000/svg">
<path d="M28.5318 58.4776C28.5238 58.4753 28.5158 58.473 28.5056 58.473C28.5033 58.4707 28.4998 58.4707 28.4953 58.4707H28.493L28.4907 58.4685C28.4884 58.4685 28.4861 58.4685 28.4827 58.4662H28.4724C28.4679 58.4639 28.4622 58.4639 28.4576 58.4616H28.4519C28.4439 58.4593 28.4336 58.4571 28.4233 58.4559C28.3982 58.4514 28.3719 58.4457 28.3434 58.44H28.3411C28.3262 58.4377 28.3148 58.4354 28.2977 58.432C28.2623 58.4263 28.2234 58.4172 28.1823 58.4069C28.1766 58.4069 28.1675 58.4046 28.1595 58.4024C28.0259 58.3761 27.8682 58.3408 27.6901 58.2998C27.6752 58.2975 27.6615 58.2941 27.6467 58.2895C27.3371 58.2177 26.9659 58.1242 26.5456 58.0057C26.5011 57.9932 26.4554 57.9806 26.4108 57.967C26.2715 57.9282 26.1276 57.8849 25.9803 57.8404H25.978C25.7815 57.7789 25.5736 57.7139 25.3589 57.6444C25.287 57.6193 25.215 57.5954 25.1396 57.5726C24.9946 57.5213 24.845 57.47 24.6908 57.4176H24.6885C24.5366 57.3629 24.379 57.3047 24.219 57.2477H24.2168C23.9849 57.1623 23.7473 57.0699 23.5029 56.9742C22.708 56.6607 21.8468 56.2846 20.9422 55.8389C20.9216 55.8287 20.9011 55.8207 20.8805 55.8104C20.7366 55.7386 20.5938 55.6668 20.4499 55.5916C20.4476 55.5893 20.4442 55.587 20.4397 55.5859C11.0431 50.7577 -2.59991 38.3464 0.430232 7.35971C0.432516 7.35173 0.432516 7.34375 0.432516 7.33349C0.608408 5.544 0.840266 3.69068 1.13152 1.77353C1.1852 1.42019 1.24002 1.06116 1.29941 0.703258C1.29941 0.700979 1.29941 0.700979 1.29941 0.700979C1.31769 0.57788 1.33825 0.455921 1.36109 0.332822V0.328263C1.36337 0.299768 1.36908 0.271273 1.37594 0.242778C1.37594 0.23252 1.37822 0.222262 1.38051 0.212003C1.38622 0.17553 1.39307 0.136776 1.39878 0.0980231C1.39878 0.0957434 1.39878 0.0957434 1.39878 0.0934638C1.40106 0.0854852 1.40335 0.075227 1.40449 0.0672484C1.40449 0.0626892 1.40678 0.0592698 1.40678 0.0547105C1.40906 0.0467319 1.41134 0.0387533 1.41134 0.0296349C1.41134 0.0250757 1.41363 0.0216563 1.41363 0.017097V0.0102582C1.41363 0.00569901 1.41591 0.00455921 1.41591 0H1.4182V0.00227961C1.42277 0.00455921 1.42619 0.00683882 1.43076 0.00797862C1.44104 0.0136776 1.45132 0.0205165 1.4616 0.0262155C1.46388 0.0284951 1.46731 0.0307747 1.46959 0.0307747C1.51528 0.0569901 1.55754 0.0843454 1.60094 0.110561C1.60894 0.11626 1.61693 0.120819 1.62607 0.126518C1.65234 0.141336 1.67747 0.155013 1.70145 0.17097C1.70374 0.17097 1.70602 0.17325 1.70602 0.17325C1.71059 0.181229 1.71401 0.189207 1.71858 0.199466C1.72315 0.209724 1.72658 0.222262 1.73115 0.23366C1.7677 0.321424 1.80539 0.413748 1.84422 0.506072C1.87277 0.57788 1.90133 0.649688 1.93217 0.722635C2.10463 1.14208 2.2908 1.59458 2.48725 2.07216C2.48954 2.07444 2.48954 2.07786 2.49182 2.08014C2.77279 2.76174 3.07546 3.49806 3.40441 4.2868C3.40669 4.28908 3.40669 4.29136 3.40669 4.2925C3.40897 4.29706 3.41126 4.2982 3.4124 4.30276C3.9001 5.48359 4.43691 6.77613 5.01713 8.16327L5.02969 8.19176C11.114 22.7277 21.7371 47.344 28.2326 57.9841L28.2349 57.9863C28.2886 58.0718 28.3399 58.1584 28.3925 58.2416C28.3925 58.2439 28.3925 58.2439 28.3948 58.2462V58.2485C28.421 58.2918 28.4485 58.334 28.4747 58.3773C28.4827 58.3898 28.4907 58.4024 28.4998 58.4138V58.416C28.5056 58.424 28.5101 58.432 28.5147 58.4411C28.517 58.4457 28.5193 58.4468 28.5204 58.4491C28.5216 58.4593 28.5261 58.4696 28.5318 58.4776Z" fill="url(#paint0_linear)"/>
<path opacity="0.1" d="M28.5324 58.4777C28.5244 58.4755 28.5164 58.4732 28.5062 58.4732C28.5039 58.4709 28.5004 58.4709 28.4959 58.4709H28.4936L28.4913 58.4686C28.489 58.4686 28.4867 58.4686 28.4833 58.4663H28.473C28.4685 58.4641 28.4628 58.4641 28.4582 58.4618H28.4525C28.4445 58.4595 28.4342 58.4572 28.4239 58.4561C28.3988 58.4515 28.3725 58.4458 28.344 58.4401H28.3417C28.3268 58.4379 28.3154 58.4356 28.2983 58.4321C28.2629 58.4265 28.224 58.4173 28.1829 58.4071C28.1772 58.4071 28.1681 58.4048 28.1601 58.4025C28.0265 58.3763 27.8688 58.341 27.6907 58.2999C27.6758 58.2977 27.6621 58.2942 27.6473 58.2897C27.3377 58.2179 26.9665 58.1244 26.5462 58.0059C26.5017 57.9933 26.456 57.9808 26.4114 57.9671C26.2721 57.9284 26.1282 57.885 25.9809 57.8406H25.9786C25.7821 57.779 25.5742 57.7141 25.3595 57.6445C25.2876 57.6195 25.2156 57.5955 25.1402 57.5727C24.9952 57.5214 24.8455 57.4702 24.6914 57.4177H24.6891C24.5372 57.363 24.3795 57.3049 24.2196 57.2479H24.2174C23.9855 57.1624 23.7479 57.0701 23.5035 56.9743C22.7703 56.6814 21.9844 56.3406 21.1587 55.9394C21.1461 55.9337 21.1335 55.9291 21.1198 55.9212C20.9759 55.8516 20.8332 55.7776 20.6858 55.7046C20.6778 55.7 20.6698 55.6966 20.6607 55.6921C11.3087 50.9607 -2.47024 38.6714 0.418267 7.7246C0.596443 5.81201 0.83858 3.82534 1.15039 1.76799C1.1995 1.43403 1.25318 1.09665 1.30572 0.759269V0.75243C1.32856 0.621353 1.34912 0.487996 1.37082 0.358058V0.355779L1.37311 0.353499C1.37768 0.320445 1.3811 0.28853 1.38796 0.255476V0.253197C1.39024 0.240659 1.39253 0.23268 1.39367 0.220142C1.40395 0.155174 1.41423 0.0913446 1.42679 0.025236C1.42679 0.0229564 1.42679 0.0229564 1.42679 0.0206768C1.42679 0.0161176 1.42907 0.0104186 1.42907 0.00585938C1.43935 0.0115584 1.44963 0.0183972 1.45991 0.0240962C1.4622 0.0263758 1.46562 0.0286554 1.46791 0.0286554C1.51359 0.0548709 1.55585 0.0822262 1.59926 0.108442C1.59926 0.114141 1.59697 0.120979 1.59697 0.126678C1.58898 0.181389 1.58098 0.241799 1.57184 0.301068C1.56956 0.311327 1.56728 0.319305 1.56728 0.329563C1.56499 0.339822 1.56271 0.35008 1.56156 0.360338V0.362618C1.56156 0.375155 1.55928 0.387693 1.557 0.399091C1.54672 0.476598 1.53415 0.558664 1.52273 0.644149C1.52273 0.652128 1.52045 0.660106 1.52045 0.669225V0.672644C1.4839 0.940498 1.44506 1.23685 1.40623 1.56625V1.56853C1.40052 1.61754 1.39367 1.66883 1.38796 1.72012C1.38567 1.72468 1.38567 1.72582 1.38567 1.73038C0.501644 9.25194 -0.727315 31.3197 14.3674 47.808C18.8504 52.7035 23.7536 55.9987 28.0619 58.2338C28.0641 58.2361 28.0664 58.2384 28.0676 58.2384C28.1658 58.2897 28.264 58.341 28.3611 58.39C28.3874 58.4048 28.4125 58.4162 28.4365 58.4287C28.4388 58.4287 28.4411 58.431 28.4422 58.4333C28.4445 58.4333 28.4445 58.4333 28.4468 58.4356C28.4491 58.4356 28.4491 58.4356 28.4513 58.4356C28.4513 58.4378 28.4513 58.4378 28.4513 58.4378C28.4593 58.4424 28.4662 58.4435 28.4742 58.4481C28.4787 58.4504 28.4822 58.4527 28.4867 58.4538C28.489 58.4561 28.4913 58.4561 28.4925 58.4584C28.4936 58.4606 28.4982 58.4606 28.5004 58.4629C28.505 58.4652 28.5062 58.4675 28.5107 58.4675C28.5187 58.4698 28.5244 58.4743 28.5324 58.4777Z" fill="url(#paint1_linear)"/>
<path opacity="0.5" d="M32.4616 45.1198C32.2686 47.0735 31.9179 48.945 31.4531 50.7186C31.4485 50.7368 31.4451 50.7528 31.4382 50.7721C31.4337 50.7881 31.4302 50.8006 31.4257 50.8154C31.4211 50.8303 31.4177 50.8439 31.4154 50.8588C31.4131 50.8633 31.4108 50.8667 31.4108 50.8736C30.7369 53.4096 29.8324 55.7485 28.8284 57.8594C28.8238 57.8697 28.8181 57.8799 28.8136 57.8902C28.7359 58.0498 28.6594 58.2116 28.5817 58.3689C28.5817 58.3507 28.584 58.3324 28.5817 58.3153V58.3131C28.584 58.2903 28.584 58.2698 28.584 58.2492V58.2413C28.584 58.1672 28.5863 58.0942 28.5863 58.0224V58.0201C28.7302 44.8178 28.705 44.2867 28.705 44.2867C28.1614 32.4509 22.06 23.3485 18.1447 17.5081C13.2403 10.1826 7.63228 4.86543 2.7884 1.12687C2.78383 1.12231 2.7804 1.12117 2.77812 1.11889C2.76213 1.10408 2.74499 1.09268 2.729 1.08014C2.74956 1.0676 2.77012 1.05734 2.78611 1.04367C2.83294 1.01061 2.88091 0.976418 2.93002 0.943364C2.93459 0.938805 2.9403 0.935385 2.94601 0.933105C4.61699 1.96349 6.19659 3.00071 7.69167 4.03793C7.69395 4.04021 7.69624 4.04249 7.69624 4.04249C33.0704 21.6673 33.903 39.9132 31.5661 50.2307C31.9716 48.6019 32.2811 46.8957 32.4616 45.1198Z" fill="url(#paint2_linear)"/>
<path d="M28.5314 58.4775C28.5257 58.4718 28.5166 58.465 28.5109 58.4593C28.5086 58.457 28.5052 58.4547 28.5029 58.4536C28.4983 58.449 28.4972 58.4479 28.4926 58.4433C28.4903 58.4433 28.4903 58.441 28.488 58.441C28.4823 58.4353 28.4755 58.4308 28.4697 58.4251C28.4572 58.4148 28.4469 58.4046 28.4355 58.3943C28.4275 58.3886 28.4172 58.3795 28.4092 58.3692L28.4069 58.367C28.3944 58.359 28.3841 58.3487 28.3715 58.3407V58.3385C28.2573 58.2382 28.1374 58.1356 28.0209 58.0341C28.0186 58.0296 28.0152 58.0262 28.0106 58.0239C23.0399 53.6505 16.2213 46.5483 10.7115 36.216C4.01048 23.6486 2.17732 11.7946 1.7433 3.97444C1.68163 2.86997 1.64736 1.84757 1.63252 0.914068C1.63252 0.895832 1.63023 0.878735 1.63023 0.862777V0.857078C1.62795 0.746517 1.62795 0.638236 1.62566 0.529955V0.462707C1.62338 0.446749 1.62338 0.427373 1.62566 0.411415C1.62338 0.396598 1.62338 0.3852 1.62566 0.370383V0.368103C1.62338 0.292876 1.62109 0.218789 1.62109 0.144702V0.126465C1.64736 0.141282 1.67249 0.15496 1.69648 0.170917L1.70904 0.197133L1.72503 0.233606L1.85638 0.517417L1.96945 0.759055V0.761335L3.35717 3.77611C3.35717 3.78067 3.36174 3.78637 3.36288 3.79093L5.32168 8.04695C5.32625 8.05265 5.32739 8.06177 5.33196 8.06747C5.33196 8.06975 5.33424 8.06975 5.33424 8.07203L28.2893 57.9532C28.2893 57.9555 28.2916 57.9578 28.2916 57.9589C28.2939 57.9635 28.2939 57.9646 28.2961 57.9692L28.4709 58.3453L28.4972 58.3966V58.4023L28.5131 58.4365L28.5177 58.4467L28.5314 58.4775Z" fill="url(#paint3_linear)"/>
<path d="M31.565 50.2301C31.5605 50.2586 31.5525 50.2871 31.5445 50.3156C31.5399 50.3316 31.5365 50.3487 31.5319 50.3624C31.5296 50.3669 31.5273 50.3703 31.5273 50.3749C30.7918 53.2882 29.7456 55.9474 28.584 58.3091L28.5817 58.3113V58.3136C28.5817 58.3159 28.5794 58.3159 28.5794 58.3182C28.5737 58.3341 28.5646 58.349 28.5566 58.3649V58.3672C28.5486 58.3854 28.5383 58.4025 28.528 58.4208C28.5258 58.423 28.5257 58.4265 28.5235 58.4287C28.5212 58.4344 28.5178 58.4413 28.5155 58.447C28.5155 58.447 28.5132 58.4493 28.5132 58.4515C28.5109 58.4538 28.5109 58.4561 28.5086 58.4595C28.5086 58.4618 28.5063 58.4641 28.5063 58.4652C28.504 58.4675 28.5018 58.4698 28.5018 58.4732C28.5018 58.4755 28.4995 58.4755 28.4995 58.4777C28.4972 58.4755 28.4938 58.4732 28.4915 58.4721H28.4892L28.4869 58.4698V58.4675C28.4846 58.4652 28.4812 58.4629 28.4789 58.4629C28.4744 58.4584 28.4732 58.4572 28.4686 58.4527C28.4606 58.4481 28.4538 58.4424 28.4458 58.4367C28.4435 58.4344 28.4435 58.4344 28.4412 58.4344C28.4389 58.4322 28.4389 58.4322 28.4367 58.4322C28.4344 58.4299 28.4321 58.4276 28.431 58.4276L28.4287 58.423C28.4241 58.4208 28.423 58.4173 28.4184 58.4151C28.4138 58.4094 28.4104 58.4025 28.4058 58.3968C28.4035 58.3945 28.4035 58.3923 28.4013 58.3911C28.391 58.3752 28.3784 58.3581 28.3658 58.3398V58.3376C21.2205 46.935 8.68992 17.5098 3.05338 3.9644L3.00998 3.86865C2.76213 3.26684 2.52799 2.69808 2.30527 2.16465C2.30527 2.16237 2.30298 2.15895 2.3007 2.15667C2.05856 1.56739 1.83356 1.0294 1.62683 0.53017V0.522192C1.61426 0.491417 1.6017 0.460642 1.59028 0.429868C1.58 0.407071 1.572 0.386555 1.56172 0.364899V0.362619C1.55601 0.346662 1.54916 0.331844 1.54345 0.315887C1.52517 0.272575 1.50918 0.230402 1.48977 0.187089C1.46921 0.132379 1.44637 0.0822276 1.42809 0.0297967L1.42581 0.0275171C1.42581 0.0252375 1.42581 0.0252375 1.42581 0.0229579C1.42352 0.0229579 1.42352 0.0206783 1.42352 0.0206783C1.42124 0.0149792 1.41781 0.00814042 1.41553 0.00244141C1.4201 0.00472101 1.42352 0.00700062 1.42809 0.00814042C1.43837 0.0138394 1.44865 0.0206783 1.45893 0.0263773C1.46121 0.0286569 1.46464 0.0309365 1.46692 0.0309365C1.51261 0.0571519 1.55487 0.0845072 1.59827 0.110723C1.60627 0.116422 1.61426 0.120981 1.6234 0.12668C1.64967 0.141497 1.6748 0.155175 1.69878 0.171132C1.70107 0.171132 1.70335 0.173412 1.70335 0.173412C1.81414 0.238381 1.92493 0.306769 2.03572 0.371738V0.374017C2.34296 0.559805 2.64677 0.744453 2.9483 0.932521C4.61928 1.9629 6.19888 3.00012 7.69396 4.03734C7.69625 4.03962 7.69853 4.0419 7.69853 4.0419C33.0704 21.6667 33.9019 39.9126 31.565 50.2301Z" fill="url(#paint4_linear)"/>
<path d="M28.5849 58.2493C28.5769 58.2835 28.5689 58.3211 28.5598 58.3553C28.5598 58.3599 28.5575 58.361 28.5575 58.3656V58.3678C28.5472 58.4043 28.5392 58.4419 28.5312 58.4784C28.5289 58.4625 28.5266 58.4454 28.5255 58.4294V58.4169C28.5209 58.3884 28.5198 58.3576 28.5152 58.3268C28.4992 58.1729 28.4821 58.0179 28.4638 57.8629V57.8504C27.7031 51.0697 26.0573 42.5747 22.5132 33.2671C17.3335 19.6579 10.0923 9.56832 4.24327 2.83665C4.24099 2.83437 4.23871 2.83209 4.23756 2.82867C3.68819 2.19608 3.15366 1.5954 2.63283 1.02208C2.63055 1.02208 2.63055 1.0198 2.63055 1.0198C2.44209 0.815779 2.25935 0.616313 2.0766 0.420267V0.417987C2.06061 0.40203 2.04577 0.387213 2.0332 0.373535C2.34044 0.559323 2.64426 0.743971 2.94579 0.932039C4.61676 1.96242 6.19636 2.99964 7.69144 4.03686C7.69373 4.03914 7.69601 4.04142 7.69601 4.04142C7.79424 4.11665 7.89018 4.19529 7.99069 4.27508C7.9964 4.27964 8.00097 4.28306 8.00668 4.28762C10.0728 5.92779 12.2681 7.88598 14.461 10.2078C18.0542 14.0124 25.4211 22.0047 28.5289 34.7887C30.9217 44.6173 29.7739 53.086 28.5849 58.2493Z" fill="url(#paint5_linear)"/>
<path opacity="0.1" d="M29.5091 40.8298C26.4595 16.7185 5.84476 3.01917 1.36865 0.207274C1.37551 0.190177 1.37665 0.174219 1.37322 0.158262C1.37436 0.152563 1.37779 0.146864 1.37779 0.141165C1.38807 0.11267 1.40063 0.084175 1.40749 0.0534003C1.40977 0.0420023 1.41091 0.0294644 1.41205 0.0180664C45.7083 26.5276 29.9911 55.8958 28.472 58.5082C29.6267 53.7028 30.3714 47.6493 29.5091 40.8298Z" fill="url(#paint6_linear)"/>
<path d="M33.7821 58.6073C33.7821 58.6016 33.7821 58.5971 33.7798 58.5902C33.781 58.5891 33.7798 58.5857 33.7787 58.5834V58.5823L33.7798 58.5811C33.7798 58.58 33.7787 58.5788 33.7798 58.5754L33.7775 58.5697C33.7775 58.5674 33.7764 58.5629 33.7775 58.5606L33.7764 58.5572C33.7764 58.5515 33.7752 58.5458 33.7752 58.5389C33.773 58.523 33.7718 58.5059 33.7707 58.4877V58.4865C33.7695 58.4774 33.7684 58.4694 33.7673 58.4592C33.765 58.4375 33.7627 58.4124 33.7615 58.3862C33.7604 58.3828 33.7604 58.3771 33.7604 58.3714C33.7524 58.2871 33.7444 58.1856 33.7364 58.0716C33.7353 58.0625 33.7353 58.0534 33.7353 58.0443C33.7216 57.8459 33.7113 57.6066 33.7056 57.333C33.7044 57.3034 33.7044 57.2749 33.7044 57.2453C33.7021 57.1552 33.7021 57.0606 33.7021 56.9649V56.9637C33.7033 56.8349 33.7044 56.6993 33.7079 56.5568C33.709 56.509 33.7113 56.4622 33.7113 56.4121C33.7159 56.3152 33.7193 56.2172 33.7227 56.1146V56.1134C33.7284 56.0131 33.7341 55.9071 33.7387 55.8011V55.8C33.7478 55.6461 33.7604 55.4866 33.773 55.3236C33.8164 54.7901 33.886 54.2066 33.9888 53.5842C33.9911 53.5705 33.9923 53.5569 33.9945 53.5421C34.0117 53.4429 34.0288 53.3437 34.0482 53.2446C34.0494 53.2434 34.0494 53.24 34.0505 53.2377C35.2395 46.7306 40.2159 36.3014 59.395 32.4694C59.4007 32.4694 59.4052 32.4671 59.4109 32.466C60.5188 32.2449 61.6758 32.0465 62.8808 31.871C63.1035 31.8379 63.3285 31.806 63.5547 31.7764C63.5558 31.7764 63.5558 31.7764 63.5558 31.7764C63.6335 31.765 63.71 31.7547 63.7888 31.7456L63.7911 31.7445C63.8083 31.7411 63.8265 31.7388 63.8459 31.7376C63.8517 31.7354 63.8585 31.7354 63.8654 31.7342C63.8882 31.7308 63.9133 31.7274 63.9373 31.724C63.9385 31.724 63.9385 31.724 63.9396 31.7228C63.9453 31.7228 63.951 31.7217 63.9567 31.7217C63.959 31.7205 63.9624 31.7217 63.9647 31.7205C63.9704 31.7205 63.975 31.7205 63.9807 31.7183C63.983 31.7171 63.9864 31.7183 63.9887 31.7171L63.9933 31.716C63.9956 31.7148 63.9978 31.716 64.0001 31.7148V31.716H63.999C63.999 31.7183 63.9978 31.7217 63.9978 31.724C63.9956 31.7308 63.9944 31.7388 63.9921 31.7456C63.991 31.7468 63.991 31.7502 63.991 31.7513C63.983 31.7832 63.975 31.814 63.967 31.8448C63.9647 31.8505 63.9636 31.8562 63.9613 31.863C63.9579 31.8813 63.9533 31.8984 63.9476 31.9166C63.9476 31.9177 63.9476 31.9189 63.9476 31.9189C63.943 31.9223 63.9396 31.9268 63.9339 31.9314C63.9282 31.936 63.9213 31.9405 63.9156 31.9451C63.8699 31.9827 63.8208 32.0226 63.7728 32.0625C63.7352 32.0933 63.6975 32.1229 63.6586 32.1548C63.4382 32.3338 63.2006 32.5287 62.9482 32.7338C62.9471 32.735 62.9448 32.7361 62.9436 32.7372C62.585 33.029 62.1978 33.3448 61.7832 33.6856C61.7821 33.6867 61.7809 33.6878 61.7798 33.6878C61.7775 33.6901 61.7764 33.6913 61.7752 33.6935C61.155 34.2008 60.4754 34.7581 59.7467 35.3577L59.7319 35.3702C52.1023 41.6608 39.2405 52.506 34.0265 58.3338L34.0254 58.3349C33.9831 58.3828 33.9409 58.4284 33.9009 58.4763C33.8997 58.4763 33.8997 58.4763 33.8986 58.4785H33.8975C33.8769 58.5025 33.8552 58.5264 33.8346 58.5503C33.8289 58.5572 33.8232 58.5652 33.8175 58.572H33.8164C33.8129 58.5777 33.8084 58.5811 33.8038 58.5845C33.8015 58.5868 33.8004 58.588 33.8004 58.5902C33.7912 58.5971 33.7855 58.6016 33.7821 58.6073Z" fill="url(#paint7_linear)"/>
<path opacity="0.1" d="M33.7821 58.6073C33.7821 58.6016 33.7821 58.597 33.7798 58.5902C33.781 58.5891 33.7798 58.5856 33.7787 58.5834V58.5822L33.7798 58.5811C33.7798 58.58 33.7787 58.5788 33.7798 58.5754L33.7775 58.5697C33.7775 58.5674 33.7764 58.5629 33.7775 58.5606L33.7764 58.5572C33.7764 58.5515 33.7752 58.5458 33.7752 58.5389C33.773 58.523 33.7718 58.5059 33.7707 58.4876V58.4865C33.7695 58.4774 33.7684 58.4694 33.7673 58.4591C33.765 58.4375 33.7627 58.4124 33.7615 58.3862C33.7604 58.3828 33.7604 58.3771 33.7604 58.3714C33.7524 58.287 33.7444 58.1856 33.7364 58.0716C33.7353 58.0625 33.7353 58.0534 33.7353 58.0442C33.7216 57.8459 33.7113 57.6066 33.7056 57.333C33.7044 57.3034 33.7044 57.2749 33.7044 57.2452C33.7021 57.1552 33.7021 57.0606 33.7021 56.9649V56.9637C33.7033 56.8349 33.7044 56.6993 33.7079 56.5568C33.709 56.5089 33.7113 56.4622 33.7113 56.412C33.7159 56.3152 33.7193 56.2171 33.7227 56.1146V56.1134C33.7284 56.0131 33.7341 55.9071 33.7387 55.8011V55.8C33.7478 55.6461 33.7604 55.4865 33.773 55.3235C33.8152 54.8311 33.8769 54.2989 33.9683 53.7312C33.9694 53.7233 33.9694 53.7141 33.9717 53.705C33.9877 53.607 34.006 53.5067 34.0231 53.4053C34.0242 53.3996 34.0254 53.3939 34.0265 53.3882C35.1664 46.9255 40.0434 36.437 59.1734 32.5287C60.3555 32.287 61.5936 32.0693 62.8877 31.8813C63.0967 31.8505 63.3091 31.8208 63.5227 31.7912L63.5261 31.7901C63.6095 31.7798 63.6929 31.7673 63.7751 31.757H63.7763L63.7774 31.7582C63.798 31.7547 63.8185 31.7513 63.8391 31.749H63.8402C63.8482 31.7479 63.8528 31.7479 63.8608 31.7468C63.9019 31.7411 63.9419 31.7354 63.9841 31.7308C63.9853 31.7308 63.9853 31.7308 63.9864 31.7297C63.9887 31.7285 63.9933 31.7285 63.9956 31.7285C63.9933 31.7354 63.9921 31.7433 63.9899 31.7502C63.9887 31.7513 63.9887 31.7547 63.9887 31.7559C63.9807 31.7878 63.9727 31.8186 63.9647 31.8493C63.9613 31.8505 63.9567 31.8505 63.9533 31.8516C63.919 31.8573 63.8813 31.863 63.8448 31.8687C63.8379 31.8699 63.8334 31.8699 63.8265 31.871C63.8197 31.8721 63.814 31.8721 63.8071 31.8733H63.806C63.7991 31.8755 63.7911 31.8767 63.7831 31.8778C63.734 31.8858 63.6826 31.8938 63.6289 31.9018C63.6244 31.9029 63.6187 31.904 63.6141 31.9052H63.6129C63.445 31.9314 63.26 31.9622 63.0544 31.9998H63.0533C63.0224 32.0055 62.9905 32.0112 62.9585 32.0157C62.9562 32.0157 62.9539 32.0157 62.9516 32.0169C58.2688 32.8581 44.7799 36.143 37.6175 48.1838C35.4919 51.7594 34.4034 55.295 33.8449 58.2813C33.8438 58.2825 33.8438 58.2847 33.8438 58.2859C33.8312 58.3543 33.8186 58.4227 33.8061 58.4888C33.8027 58.507 33.7992 58.5241 33.7969 58.5412C33.7969 58.5423 33.7969 58.5435 33.7958 58.5458C33.7958 58.5469 33.7958 58.5469 33.7958 58.548C33.7958 58.5492 33.7958 58.5492 33.7969 58.5503C33.7958 58.5503 33.7958 58.5503 33.7958 58.5503C33.7947 58.556 33.7947 58.5606 33.7935 58.5651C33.7935 58.5674 33.7924 58.5708 33.7924 58.5731C33.7912 58.5743 33.7924 58.5754 33.7912 58.5777C33.7901 58.5788 33.7912 58.5822 33.7901 58.5834C33.7901 58.5856 33.789 58.5879 33.789 58.5902C33.7844 58.597 33.7832 58.6016 33.7821 58.6073Z" fill="url(#paint8_linear)"/>
<path opacity="0.5" d="M42.5275 58.5252C41.318 58.7657 40.129 58.8968 38.9777 58.9413C38.9663 58.9424 38.9549 58.9424 38.9434 58.9424C38.9332 58.9424 38.9252 58.9424 38.9149 58.9424C38.9058 58.9424 38.8966 58.9424 38.8875 58.9435C38.8852 58.9435 38.8818 58.9424 38.8783 58.9435C37.2302 59.0017 35.6609 58.8866 34.2081 58.67C34.2012 58.67 34.1944 58.6677 34.1875 58.6666C34.0779 58.6495 33.9659 58.6335 33.8574 58.6153C33.8688 58.6119 33.8803 58.6096 33.8894 58.605H33.8905C33.9043 58.6016 33.9168 58.5982 33.9294 58.5948L33.9339 58.5936C33.9785 58.5799 34.023 58.5685 34.0664 58.5549H34.0676C42.0296 56.2354 42.3448 56.1237 42.3448 56.1237C49.3611 53.6423 53.7207 48.3308 56.5178 44.9228C60.0277 40.652 62.2012 36.3253 63.5672 32.7451C63.5683 32.7417 63.5695 32.7394 63.5706 32.7372C63.5763 32.7246 63.5809 32.7132 63.5855 32.7007C63.5969 32.7109 63.606 32.7212 63.6186 32.728C63.6471 32.7508 63.6768 32.7725 63.7054 32.7953C63.7088 32.7964 63.7123 32.7998 63.7145 32.8033C63.3993 33.9909 63.0635 35.1262 62.7129 36.2101C62.7117 36.2113 62.7106 36.2136 62.7106 36.2136C56.7394 54.6157 45.922 58.4375 39.2941 58.9185C40.346 58.8672 41.4276 58.7407 42.5275 58.5252Z" fill="url(#paint9_linear)"/>
<path d="M33.7822 58.6074C33.7845 58.6029 33.7868 58.5972 33.7891 58.5915C33.7902 58.5903 33.7902 58.5869 33.7914 58.5858C33.7925 58.5824 33.7936 58.5812 33.7959 58.5778C33.7959 58.5767 33.7971 58.5767 33.7959 58.5755C33.7982 58.571 33.7994 58.5664 33.8028 58.5618C33.8062 58.5527 33.8108 58.5447 33.8153 58.5356C33.8176 58.5299 33.8211 58.5219 33.8256 58.5151L33.8268 58.514C33.8291 58.5049 33.8336 58.4969 33.8359 58.4878H33.8371C33.8759 58.4011 33.9159 58.3111 33.957 58.2222C33.9593 58.2199 33.9604 58.2165 33.9615 58.2142C35.6851 54.4415 38.7118 49.065 43.9189 43.8835C50.2533 37.5826 57.0457 34.3251 61.6668 32.6405C62.3201 32.4022 62.9278 32.1948 63.4863 32.017C63.4977 32.0136 63.5068 32.009 63.5171 32.0067L63.5205 32.0056C63.5868 31.9839 63.6519 31.9646 63.717 31.944L63.7581 31.9315C63.7672 31.9269 63.7787 31.9235 63.7889 31.9224C63.7969 31.919 63.8049 31.9167 63.8141 31.9144H63.8152C63.8609 31.8996 63.9043 31.8848 63.9488 31.8711L63.9603 31.8677C63.9568 31.8859 63.9523 31.903 63.9466 31.9212L63.9329 31.9338L63.9134 31.9509L63.7661 32.0808L63.6416 32.1925H63.6405L62.0803 33.5728C62.078 33.574 62.0746 33.5774 62.0723 33.5797L59.8713 35.5264C59.8679 35.5299 59.8634 35.5333 59.8611 35.5367C59.8599 35.5367 59.8599 35.5378 59.8588 35.539L34.0563 58.3692C34.0552 58.3692 34.0541 58.3715 34.0529 58.3715C34.0506 58.3738 34.0495 58.3738 34.0472 58.3761L33.853 58.5493L33.8268 58.5744L33.8233 58.5755L33.8051 58.5915L33.7994 58.596L33.7822 58.6074Z" fill="url(#paint10_linear)"/>
<path d="M39.2931 58.9209C39.2749 58.9231 39.2566 58.9243 39.2383 58.9243C39.228 58.9243 39.2166 58.9254 39.2075 58.9254C39.2052 58.9254 39.2018 58.9243 39.1995 58.9254C37.3138 59.0155 35.5252 58.8741 33.893 58.6086L33.8919 58.6074H33.8907C33.8896 58.6074 33.8896 58.6063 33.8885 58.6074C33.877 58.6063 33.8679 58.604 33.8565 58.6029H33.8553C33.8428 58.6017 33.8313 58.5983 33.8176 58.5949C33.8165 58.5937 33.8131 58.5949 33.8119 58.5937C33.8074 58.5937 33.8039 58.5926 33.7994 58.5926C33.7994 58.5926 33.7982 58.5915 33.7971 58.5926C33.7959 58.5915 33.7948 58.5926 33.7914 58.5915C33.7902 58.5915 33.7891 58.5915 33.7868 58.5915C33.7857 58.5903 33.7834 58.5892 33.7811 58.5903C33.78 58.5903 33.78 58.5892 33.7788 58.5903C33.78 58.5892 33.78 58.5858 33.7811 58.5846V58.5835L33.7822 58.5823H33.7834C33.7845 58.5812 33.7845 58.5778 33.7845 58.5766C33.7868 58.5732 33.7868 58.5721 33.7891 58.5687C33.7902 58.563 33.7925 58.5584 33.7948 58.5527C33.7959 58.5516 33.7959 58.5516 33.7948 58.5504C33.7959 58.5493 33.7959 58.5493 33.7948 58.5482C33.7959 58.547 33.7971 58.5447 33.7959 58.5436L33.7982 58.5413C33.7982 58.539 33.8005 58.5368 33.8017 58.5333C33.8051 58.5299 33.8074 58.5265 33.8108 58.5231C33.8119 58.5219 33.8131 58.5208 33.8142 58.5197C33.8222 58.5105 33.8302 58.5003 33.8382 58.49H33.8393C39.3914 52.131 54.7979 39.2683 61.9135 33.4257L61.9638 33.3824C62.2801 33.1248 62.5794 32.8809 62.8592 32.6495C62.8604 32.6495 62.8626 32.6472 62.8638 32.6461C63.1733 32.3942 63.4566 32.1605 63.7181 31.9462L63.7227 31.9451C63.7387 31.9325 63.7547 31.9189 63.7718 31.9063C63.7832 31.8961 63.7946 31.887 63.8061 31.8767H63.8072C63.8163 31.8699 63.8232 31.8642 63.8323 31.8573C63.8552 31.8379 63.878 31.8208 63.8997 31.8015C63.9294 31.7787 63.9545 31.757 63.9831 31.7365L63.9842 31.7354C63.9854 31.7354 63.9854 31.7354 63.9865 31.7342C63.9865 31.7331 63.9877 31.7331 63.9877 31.7331C63.9911 31.7308 63.9934 31.7274 63.9968 31.7251C63.9968 31.7274 63.9957 31.7308 63.9957 31.7331C63.9934 31.7399 63.9922 31.7479 63.99 31.7547C63.9888 31.7559 63.9888 31.7593 63.9888 31.7604C63.9808 31.7923 63.9728 31.8231 63.9648 31.8539C63.9625 31.8596 63.9614 31.8653 63.9591 31.8721C63.9557 31.8904 63.9511 31.9075 63.9454 31.9257C63.9454 31.9268 63.9454 31.928 63.9454 31.928C63.926 32.0066 63.9054 32.0853 63.8872 32.1628H63.886C63.8301 32.3805 63.7752 32.5959 63.717 32.8102C63.4017 33.9979 63.0659 35.1331 62.7153 36.2171C62.7142 36.2182 62.713 36.2205 62.713 36.2205C56.7384 54.617 45.9211 58.4399 39.2931 58.9209Z" fill="url(#paint11_linear)"/>
<path d="M33.9296 58.5972C33.9067 58.5983 33.8839 58.6006 33.861 58.6017C33.8587 58.6029 33.8565 58.6017 33.8542 58.6029H33.853C33.8291 58.6029 33.8051 58.6052 33.7822 58.6074C33.7914 58.6029 33.8016 58.5995 33.8108 58.5949L33.8176 58.5926C33.8336 58.5847 33.8519 58.5778 33.8702 58.5698C33.9593 58.5322 34.0495 58.4935 34.1397 58.4547L34.1466 58.4524C38.0847 56.7621 42.8909 54.2283 47.841 50.4111C55.0778 44.8307 59.8234 38.6575 62.8044 33.9296C62.8056 33.9285 62.8056 33.9262 62.8079 33.9239C63.0877 33.4794 63.3515 33.0497 63.6017 32.6337C63.6017 32.6325 63.6028 32.6325 63.6028 32.6325C63.6919 32.4821 63.7776 32.3373 63.8621 32.1914H63.8632C63.8701 32.1789 63.8758 32.1675 63.8826 32.1572C63.8267 32.3749 63.7719 32.5904 63.7136 32.8046C63.3984 33.9923 63.0626 35.1275 62.7119 36.2115C62.7108 36.2126 62.7096 36.2149 62.7096 36.2149C62.6822 36.2879 62.6525 36.3597 62.6228 36.4338C62.6217 36.4383 62.6194 36.4417 62.6183 36.4463C62.0084 37.9816 61.2317 39.6526 60.2357 41.3896C58.6036 44.2346 55.1417 50.1 48.0215 54.2899C42.5494 57.5121 37.2498 58.3681 33.9296 58.5972Z" fill="url(#paint12_linear)"/>
<path opacity="0.1" d="M44.5696 55.9765C58.5073 49.7578 62.9869 34.9209 63.8618 31.7284C63.8732 31.7295 63.8835 31.7272 63.8926 31.7215C63.896 31.7215 63.9006 31.7227 63.904 31.7215C63.9234 31.7227 63.9429 31.7249 63.9623 31.7227C63.9691 31.7215 63.9771 31.7204 63.984 31.7192C56.1191 63.0684 35.6014 59.0095 33.7534 58.5764C36.8521 58.3918 40.6269 57.7352 44.5696 55.9765Z" fill="url(#paint13_linear)"/>
<path d="M36.5026 39.0189C36.5015 39.0166 36.4992 39.0132 36.4969 39.0109C36.4969 39.0098 36.4958 39.0086 36.4947 39.0075V39.0064V39.0052C36.4947 39.0041 36.4935 39.0041 36.4935 39.0029L36.4912 38.9995C36.4912 38.9984 36.4889 38.9961 36.4889 38.995L36.4878 38.9927C36.4867 38.9904 36.4844 38.987 36.4821 38.9836C36.4775 38.9756 36.4718 38.9665 36.4672 38.9574V38.9562C36.4638 38.9517 36.4615 38.9482 36.4592 38.9425C36.4524 38.9311 36.4444 38.9186 36.4375 38.9038C36.4364 38.9015 36.4341 38.8992 36.433 38.8969C36.4078 38.8525 36.3782 38.8001 36.345 38.7397C36.3416 38.7351 36.3393 38.7305 36.337 38.7248C36.2799 38.62 36.2148 38.4935 36.144 38.3464C36.136 38.3305 36.128 38.3145 36.1212 38.2986C36.0972 38.2495 36.0743 38.1994 36.0504 38.147V38.1458C36.0184 38.0751 35.9853 38.0011 35.9521 37.9236C35.9407 37.8973 35.9304 37.8711 35.9179 37.8449C35.8962 37.7913 35.8733 37.7366 35.8505 37.6808V37.6796C35.8288 37.6238 35.8048 37.5645 35.7819 37.5064V37.5052C35.7488 37.4186 35.7157 37.3297 35.6814 37.2374C35.5718 36.9365 35.4644 36.6025 35.3651 36.2389C35.3628 36.2309 35.3605 36.223 35.3582 36.215C35.3422 36.1569 35.3274 36.0987 35.3125 36.0406C35.3125 36.0395 35.3125 36.0383 35.3114 36.036C34.336 32.2052 34.4411 25.3048 43.9061 18.4637C43.9084 18.4626 43.9107 18.4603 43.9141 18.458C44.4612 18.0636 45.0403 17.6681 45.6513 17.2738C45.7644 17.2008 45.8786 17.1279 45.994 17.0549C45.9951 17.0549 45.9951 17.0549 45.9951 17.0549C46.0339 17.0298 46.0739 17.0048 46.1139 16.9808L46.115 16.9797C46.123 16.9728 46.1333 16.9683 46.1424 16.9626C46.1459 16.9603 46.1481 16.958 46.1516 16.9557C46.163 16.9478 46.1756 16.9409 46.1881 16.933C46.1893 16.933 46.1893 16.933 46.1893 16.9318C46.1915 16.9307 46.195 16.9284 46.1984 16.9273C46.1995 16.9261 46.2007 16.9261 46.2018 16.925C46.2041 16.9238 46.2075 16.9216 46.2098 16.9204C46.211 16.9193 46.2121 16.9193 46.2132 16.9181L46.2155 16.9159C46.2167 16.9147 46.2178 16.9147 46.219 16.9136V16.9147H46.2178C46.2178 16.9159 46.219 16.9181 46.219 16.9193C46.2201 16.9238 46.2201 16.9284 46.2212 16.933C46.2212 16.9341 46.2212 16.9352 46.2224 16.9364C46.2258 16.9557 46.2292 16.974 46.2327 16.9934C46.2327 16.9968 46.2338 17.0002 46.2338 17.0048C46.2361 17.0162 46.2384 17.0264 46.2395 17.0367C46.2395 17.0378 46.2395 17.0378 46.2395 17.0378C46.2384 17.0412 46.2372 17.0447 46.235 17.0481C46.2327 17.0515 46.2304 17.056 46.2281 17.0606C46.2121 17.0925 46.1961 17.1256 46.1801 17.1598C46.1676 17.186 46.1539 17.2111 46.1413 17.2384C46.0659 17.3912 45.9848 17.5553 45.8992 17.7285C45.8992 17.7297 45.898 17.7308 45.898 17.732C45.7758 17.9793 45.6445 18.2471 45.504 18.5355C45.504 18.5367 45.5028 18.5367 45.5028 18.5378C45.5017 18.5389 45.5017 18.5401 45.5017 18.5424C45.2904 18.9721 45.0608 19.4428 44.8141 19.95L44.8095 19.9603C42.2317 25.2706 37.9463 34.3548 36.5655 38.8149V38.816C36.554 38.8525 36.5426 38.8878 36.5323 38.9232C36.5312 38.9232 36.5312 38.9232 36.5312 38.9243C36.5255 38.9425 36.5198 38.9608 36.5152 38.979C36.5141 38.9847 36.5129 38.9893 36.5106 38.995C36.5095 38.9984 36.5084 39.0018 36.5072 39.0052C36.5061 39.0064 36.5061 39.0075 36.5061 39.0086C36.5049 39.0109 36.5038 39.0155 36.5026 39.0189Z" fill="url(#paint14_linear)"/>
<path opacity="0.1" d="M36.5039 39.0197C36.5027 39.0174 36.5005 39.014 36.4982 39.0117C36.4982 39.0106 36.497 39.0094 36.4959 39.0083V39.0072V39.006C36.4959 39.0049 36.4947 39.0049 36.4947 39.0037L36.4925 39.0003C36.4925 38.9992 36.4902 38.9969 36.4902 38.9958L36.489 38.9935C36.4879 38.9912 36.4856 38.9878 36.4833 38.9844C36.4788 38.9764 36.473 38.9673 36.4685 38.9581V38.957C36.465 38.9524 36.4628 38.949 36.4605 38.9433C36.4536 38.9319 36.4456 38.9194 36.4388 38.9046C36.4376 38.9023 36.4354 38.9 36.4342 38.8977C36.4091 38.8533 36.3794 38.8009 36.3463 38.7404C36.3428 38.7359 36.3406 38.7313 36.3383 38.7256C36.2812 38.6208 36.2161 38.4942 36.1452 38.3472C36.1373 38.3313 36.1293 38.3153 36.1224 38.2993C36.0984 38.2503 36.0756 38.2002 36.0516 38.1477V38.1466C36.0196 38.0759 35.9865 38.0019 35.9534 37.9243C35.9419 37.8981 35.9317 37.8719 35.9191 37.8457C35.8974 37.7921 35.8746 37.7374 35.8517 37.6816V37.6804C35.83 37.6246 35.806 37.5653 35.7832 37.5072V37.506C35.7501 37.4194 35.7169 37.3305 35.6827 37.2382C35.5833 36.9601 35.4839 36.6557 35.3914 36.3252C35.3903 36.3206 35.388 36.3161 35.3869 36.3092C35.3709 36.2523 35.356 36.193 35.34 36.1337C35.3389 36.1303 35.3377 36.1269 35.3377 36.1235C34.3463 32.3291 34.3829 25.4207 43.8023 18.55C44.3848 18.1249 45.0027 17.6997 45.6594 17.2768C45.7657 17.2073 45.873 17.1389 45.9815 17.0705L45.9838 17.0694C46.0261 17.0432 46.0683 17.0158 46.1106 16.9896H46.1117H46.1129C46.1231 16.9828 46.1334 16.9759 46.1437 16.9691H46.1448C46.1483 16.9668 46.1517 16.9657 46.1551 16.9623C46.1757 16.9486 46.1962 16.936 46.2179 16.9235C46.2191 16.9235 46.2191 16.9235 46.2191 16.9224C46.2202 16.9212 46.2225 16.9201 46.2237 16.9189C46.2248 16.9235 46.2248 16.9281 46.2259 16.9326C46.2259 16.9338 46.2259 16.9349 46.2271 16.936C46.2305 16.9554 46.2339 16.9737 46.2374 16.993C46.2351 16.9942 46.2339 16.9953 46.2316 16.9976C46.2145 17.009 46.1951 17.0215 46.1768 17.0341C46.1734 17.0363 46.1711 17.0375 46.1677 17.0398C46.1643 17.042 46.1608 17.0432 46.1574 17.0455H46.1563C46.1528 17.0489 46.1494 17.0512 46.1448 17.0534C46.1209 17.0694 46.0946 17.0865 46.0672 17.1047C46.0649 17.107 46.0626 17.1082 46.0603 17.1104H46.0592C45.9747 17.1663 45.8822 17.229 45.7794 17.2996H45.7782C45.7634 17.3099 45.7474 17.3213 45.7314 17.3316C45.7302 17.3316 45.7291 17.3327 45.728 17.3338C43.3934 18.9535 36.8831 24.0849 35.9922 32.4031C35.7284 34.8731 36.0185 37.0638 36.4593 38.8259C36.4593 38.8271 36.4593 38.8282 36.4593 38.8282C36.4696 38.8681 36.4799 38.9091 36.489 38.9479C36.4913 38.9593 36.4947 38.9684 36.497 38.9787C36.497 38.9798 36.497 38.9798 36.497 38.9809C36.497 38.9821 36.497 38.9821 36.497 38.9821C36.497 38.9832 36.497 38.9832 36.4982 38.9832C36.497 38.9832 36.497 38.9832 36.497 38.9832C36.4982 38.9866 36.4993 38.9889 36.4993 38.9923C36.4993 38.9935 36.5005 38.9958 36.5005 38.9969C36.5005 38.998 36.5005 38.998 36.5005 38.9992C36.5005 39.0003 36.5016 39.0015 36.5016 39.0026C36.5016 39.0037 36.5016 39.0049 36.5027 39.006C36.5027 39.014 36.5027 39.0163 36.5039 39.0197Z" fill="url(#paint15_linear)"/>
<path opacity="0.5" d="M41.2333 36.8042C40.6359 37.235 40.0226 37.6009 39.4081 37.9109C39.4024 37.9144 39.3967 37.9178 39.3899 37.92C39.3841 37.9235 39.3796 37.9246 39.375 37.9269C39.3704 37.9292 39.3647 37.9314 39.3602 37.9349C39.359 37.9349 39.3567 37.936 39.3556 37.9371C38.475 38.3782 37.5933 38.7054 36.7503 38.947C36.7469 38.9482 36.7423 38.9493 36.7378 38.9504C36.6738 38.9687 36.6099 38.9869 36.5459 39.004C36.5516 38.9994 36.5573 38.9949 36.5607 38.9903H36.5619C36.5687 38.9858 36.5745 38.9801 36.5802 38.9755L36.5824 38.9732C36.603 38.955 36.6247 38.9368 36.6441 38.9197H36.6453C40.3927 35.6838 40.5366 35.5447 40.5366 35.5447C43.73 32.4558 44.7751 28.4882 45.4456 25.9419C46.2885 22.7504 46.3913 19.861 46.2405 17.5768C46.2405 17.5746 46.2405 17.5734 46.2405 17.5723C46.2405 17.5643 46.2394 17.5563 46.2394 17.5483C46.2473 17.5506 46.2553 17.554 46.2645 17.5552C46.285 17.5597 46.3067 17.5643 46.3284 17.57C46.3307 17.57 46.333 17.5711 46.3353 17.5723C46.4598 18.2961 46.5603 18.9959 46.6402 19.6718C46.6402 19.6729 46.6402 19.6741 46.6402 19.6741C47.98 31.1542 43.0562 35.9151 39.5749 37.822C40.1334 37.5314 40.6896 37.194 41.2333 36.8042Z" fill="url(#paint16_linear)"/>
<path d="M36.5021 39.0184C36.5021 39.015 36.5021 39.0116 36.5021 39.0081C36.5021 39.007 36.5021 39.0059 36.5021 39.0047C36.5021 39.0024 36.5021 39.0013 36.5021 38.999C36.5021 38.9979 36.5021 38.9979 36.5021 38.9979C36.5021 38.9945 36.5021 38.9922 36.5021 38.9888C36.5021 38.9831 36.5021 38.9774 36.5021 38.9717C36.5021 38.9682 36.5021 38.9625 36.5021 38.958V38.9568C36.501 38.9511 36.5021 38.9454 36.501 38.9409H36.5021C36.5021 38.8839 36.501 38.8258 36.501 38.7676C36.5021 38.7665 36.5021 38.7642 36.501 38.7619C36.4976 36.2851 36.8025 32.6127 38.3399 28.506C40.2107 23.5102 43.0901 20.0555 45.1814 17.9936C45.4772 17.7018 45.7559 17.4385 46.014 17.2037C46.0197 17.1991 46.0232 17.1946 46.0277 17.19L46.03 17.1889C46.0609 17.1604 46.0906 17.1342 46.1214 17.1068L46.1408 17.0897C46.1454 17.0852 46.1499 17.0806 46.1557 17.0772C46.1591 17.0726 46.1625 17.0703 46.1671 17.0669H46.1682C46.1888 17.0475 46.2093 17.0282 46.2299 17.0099L46.2356 17.0054C46.2379 17.0168 46.2402 17.027 46.2413 17.0373L46.2367 17.0475L46.231 17.0612L46.1842 17.1684L46.1442 17.2595H46.1431L45.6394 18.3959C45.6383 18.3971 45.6371 18.3994 45.6371 18.4016L44.9267 20.0053C44.9256 20.0076 44.9244 20.011 44.9233 20.0133C44.9221 20.0133 44.9233 20.0145 44.9221 20.0145L36.5924 38.8212C36.5912 38.8212 36.5912 38.8223 36.5912 38.8235C36.5901 38.8246 36.5901 38.8258 36.589 38.8269L36.5261 38.9694L36.5181 38.9899L36.5159 38.991L36.5101 39.0047L36.5079 39.0081L36.5021 39.0184Z" fill="url(#paint17_linear)"/>
<path d="M39.5749 37.8216C39.5657 37.8273 39.5554 37.8319 39.5452 37.8376C39.5394 37.841 39.5337 37.8433 39.5292 37.8456C39.528 37.8456 39.5257 37.8467 39.5246 37.8478C38.5229 38.3642 37.5156 38.7323 36.563 38.9922H36.5619H36.5607H36.5596C36.5539 38.9945 36.547 38.9956 36.5413 38.9979C36.5344 39.0002 36.5264 39.0013 36.5196 39.0036C36.5184 39.0036 36.5173 39.0047 36.5162 39.0047C36.5139 39.0059 36.5116 39.0059 36.5093 39.007H36.5082C36.507 39.007 36.507 39.007 36.5047 39.0082C36.5036 39.0082 36.5036 39.0082 36.5025 39.0093C36.5013 39.0093 36.5002 39.0093 36.499 39.0104C36.4979 39.0104 36.4979 39.0104 36.4979 39.0104C36.4979 39.0093 36.4979 39.0082 36.4979 39.007V39.0059V39.0047C36.4979 39.0036 36.4979 39.0025 36.4967 39.0013C36.4967 38.999 36.4967 38.9979 36.4967 38.9956C36.4956 38.9922 36.4956 38.9888 36.4956 38.9854C36.4956 38.9842 36.4956 38.9842 36.4956 38.9842C36.4956 38.9831 36.4956 38.9831 36.4956 38.9831C36.4956 38.9819 36.4956 38.9808 36.4956 38.9808L36.4967 38.9797C36.4967 38.9785 36.4967 38.9762 36.4967 38.9751C36.4979 38.9728 36.4979 38.9694 36.499 38.9671C36.499 38.966 36.5002 38.966 36.5002 38.9648C36.5025 38.958 36.5036 38.95 36.5059 38.9421H36.507C37.9393 34.1093 43.1041 23.2983 45.5141 18.3584L45.53 18.3219C45.6374 18.103 45.7391 17.8967 45.8339 17.7018C45.835 17.7018 45.835 17.6995 45.835 17.6984C45.9401 17.4841 46.036 17.2881 46.1251 17.1057L46.1274 17.1034C46.1331 17.092 46.1388 17.0818 46.1445 17.0704C46.1479 17.0624 46.1525 17.0544 46.1559 17.0464H46.1571C46.1605 17.0407 46.1628 17.035 46.1662 17.0293C46.1742 17.0134 46.1822 16.9986 46.1891 16.9826C46.1993 16.9632 46.2073 16.945 46.2176 16.9268V16.9256C46.2188 16.9256 46.2188 16.9256 46.2188 16.9245C46.2188 16.9233 46.2188 16.9233 46.2188 16.9233C46.2199 16.9211 46.221 16.9188 46.2222 16.9165C46.2222 16.9176 46.2233 16.9199 46.2233 16.9211C46.2245 16.9256 46.2245 16.9302 46.2256 16.9347C46.2256 16.9359 46.2256 16.937 46.2268 16.9382C46.2302 16.9575 46.2336 16.9758 46.237 16.9952C46.237 16.9986 46.2382 17.002 46.2382 17.0065C46.2405 17.0179 46.2427 17.0282 46.2439 17.0385C46.2439 17.0396 46.2439 17.0396 46.2439 17.0396C46.253 17.0863 46.261 17.1342 46.2702 17.1821H46.269C46.293 17.3143 46.317 17.4454 46.3387 17.5764C46.4632 18.3002 46.5637 19.0001 46.6436 19.676C46.6436 19.6771 46.6436 19.6782 46.6436 19.6782C47.98 31.1538 43.0561 35.9147 39.5749 37.8216Z" fill="url(#paint18_linear)"/>
<path d="M36.5806 38.9768C36.5692 38.9836 36.5566 38.9904 36.544 38.9961C36.5429 38.9973 36.5418 38.9973 36.5406 38.9984C36.5281 39.0041 36.5155 39.0121 36.5029 39.0178C36.5075 39.0132 36.5109 39.0087 36.5155 39.0041L36.5189 39.0007C36.5258 38.9927 36.5338 38.9847 36.5418 38.9756C36.5806 38.9335 36.6206 38.8901 36.6594 38.8457L36.6628 38.8423C38.3806 36.9468 40.3611 34.3777 42.0995 31.0757C44.6408 26.2475 45.6802 21.7167 46.1222 18.4079C46.1222 18.4068 46.1222 18.4056 46.1233 18.4045C46.1644 18.0933 46.201 17.7947 46.233 17.5063V17.5052C46.2432 17.4015 46.2547 17.3012 46.2638 17.202H46.2649C46.2649 17.1929 46.2661 17.186 46.2672 17.1792C46.2912 17.3114 46.3152 17.4425 46.3369 17.5736C46.4614 18.2973 46.5619 18.9972 46.6419 19.6731C46.6419 19.6742 46.6419 19.6754 46.6419 19.6754C46.6453 19.7221 46.6476 19.7677 46.6499 19.8156C46.6499 19.8178 46.6499 19.8201 46.651 19.8235C46.7024 20.8095 46.6967 21.9094 46.5882 23.1005C46.41 25.0507 45.9908 29.097 43.1674 33.1398C40.9939 36.2481 38.327 38.0285 36.5806 38.9768Z" fill="url(#paint19_linear)"/>
<path opacity="0.1" d="M41.7073 34.9128C47.7299 28.0752 46.4667 18.9032 46.1468 16.9518C46.1537 16.9496 46.1583 16.9461 46.1617 16.9404C46.164 16.9393 46.1663 16.9393 46.1674 16.937C46.1777 16.9325 46.1891 16.929 46.1994 16.9233C46.2028 16.9211 46.2062 16.9188 46.2108 16.9165C49.7492 35.8999 37.5898 38.7859 36.4785 39.0093C38.1164 38.1396 40.0043 36.8459 41.7073 34.9128Z" fill="url(#paint20_linear)"/>
<defs>
<linearGradient id="paint0_linear" x1="-9.45059" y1="9.65951" x2="28.1803" y2="44.8542" gradientUnits="userSpaceOnUse">
<stop stop-color="#2BE8FA"/>
<stop offset="0.1481" stop-color="#2CE5FA"/>
<stop offset="0.2714" stop-color="#30DAFA"/>
<stop offset="0.3857" stop-color="#36C9F9"/>
<stop offset="0.494" stop-color="#3FB1F9"/>
<stop offset="0.5088" stop-color="#40ADF9"/>
<stop offset="1" stop-color="#477EF7"/>
</linearGradient>
<linearGradient id="paint1_linear" x1="0.027686" y1="29.2433" x2="28.5327" y2="29.2433" gradientUnits="userSpaceOnUse">
<stop stop-color="white"/>
<stop offset="0.9207" stop-color="white" stop-opacity="0.0792859"/>
<stop offset="1" stop-color="white" stop-opacity="0"/>
</linearGradient>
<linearGradient id="paint2_linear" x1="0.902243" y1="29.6498" x2="32.4611" y2="29.6498" gradientUnits="userSpaceOnUse">
<stop stop-color="#42A1F8"/>
<stop offset="1" stop-color="white" stop-opacity="0"/>
</linearGradient>
<linearGradient id="paint3_linear" x1="9.24581" y1="35.8189" x2="16.2129" y2="28.0008" gradientUnits="userSpaceOnUse">
<stop stop-color="#40A6F9"/>
<stop offset="1" stop-color="#2BE8FA" stop-opacity="0"/>
</linearGradient>
<linearGradient id="paint4_linear" x1="24.0977" y1="18.2552" x2="-1.74927" y2="49.4533" gradientUnits="userSpaceOnUse">
<stop stop-color="#2BE8FA"/>
<stop offset="0.1481" stop-color="#2CE5FA"/>
<stop offset="0.2714" stop-color="#30DAFA"/>
<stop offset="0.3857" stop-color="#36C9F9"/>
<stop offset="0.494" stop-color="#3FB1F9"/>
<stop offset="0.5088" stop-color="#40ADF9"/>
<stop offset="1" stop-color="#477EF7"/>
</linearGradient>
<linearGradient id="paint5_linear" x1="6.93991" y1="41.5569" x2="18.8695" y2="24.139" gradientUnits="userSpaceOnUse">
<stop stop-color="#42A1F8"/>
<stop offset="0.1361" stop-color="#40A8F8"/>
<stop offset="0.3391" stop-color="#39BDF9"/>
<stop offset="0.583" stop-color="#2EDEFA"/>
<stop offset="0.5851" stop-color="#2EDEFA"/>
<stop offset="1" stop-color="#2BE8FA" stop-opacity="0"/>
</linearGradient>
<linearGradient id="paint6_linear" x1="1.36878" y1="29.2635" x2="32.4068" y2="29.2635" gradientUnits="userSpaceOnUse">
<stop stop-color="#2BE8FA"/>
<stop offset="0.1481" stop-color="#2CE5FA" stop-opacity="0.8835"/>
<stop offset="0.2714" stop-color="#30DAFA" stop-opacity="0.7867"/>
<stop offset="0.3857" stop-color="#36C9F9" stop-opacity="0.6968"/>
<stop offset="0.494" stop-color="#3FB1F9" stop-opacity="0.6116"/>
<stop offset="0.5088" stop-color="#40ADF9" stop-opacity="0.6"/>
<stop offset="1" stop-color="#477EF7" stop-opacity="0"/>
</linearGradient>
<linearGradient id="paint7_linear" x1="56.2098" y1="26.9705" x2="42.0169" y2="55.9625" gradientUnits="userSpaceOnUse">
<stop stop-color="#2BE8FA"/>
<stop offset="0.1481" stop-color="#2CE5FA"/>
<stop offset="0.2714" stop-color="#30DAFA"/>
<stop offset="0.3857" stop-color="#36C9F9"/>
<stop offset="0.494" stop-color="#3FB1F9"/>
<stop offset="0.5088" stop-color="#40ADF9"/>
<stop offset="1" stop-color="#477EF7"/>
</linearGradient>
<linearGradient id="paint8_linear" x1="46.1645" y1="36.2122" x2="51.3384" y2="53.2824" gradientUnits="userSpaceOnUse">
<stop stop-color="white"/>
<stop offset="0.9207" stop-color="white" stop-opacity="0.0792859"/>
<stop offset="1" stop-color="white" stop-opacity="0"/>
</linearGradient>
<linearGradient id="paint9_linear" x1="46.0793" y1="36.8105" x2="51.8075" y2="55.7094" gradientUnits="userSpaceOnUse">
<stop stop-color="#42A1F8"/>
<stop offset="1" stop-color="white" stop-opacity="0"/>
</linearGradient>
<linearGradient id="paint10_linear" x1="43.8916" y1="42.9294" x2="49.8504" y2="45.6973" gradientUnits="userSpaceOnUse">
<stop stop-color="#40A6F9"/>
<stop offset="1" stop-color="#2BE8FA" stop-opacity="0"/>
</linearGradient>
<linearGradient id="paint11_linear" x1="57.1554" y1="48.6202" x2="33.7271" y2="38.7494" gradientUnits="userSpaceOnUse">
<stop stop-color="#2BE8FA"/>
<stop offset="0.1481" stop-color="#2CE5FA"/>
<stop offset="0.2714" stop-color="#30DAFA"/>
<stop offset="0.3857" stop-color="#36C9F9"/>
<stop offset="0.494" stop-color="#3FB1F9"/>
<stop offset="0.5088" stop-color="#40ADF9"/>
<stop offset="1" stop-color="#477EF7"/>
</linearGradient>
<linearGradient id="paint12_linear" x1="40.0221" y1="42.5946" x2="52.6533" y2="46.6019" gradientUnits="userSpaceOnUse">
<stop stop-color="#42A1F8"/>
<stop offset="0.1361" stop-color="#40A8F8"/>
<stop offset="0.3391" stop-color="#39BDF9"/>
<stop offset="0.583" stop-color="#2EDEFA"/>
<stop offset="0.5851" stop-color="#2EDEFA"/>
<stop offset="1" stop-color="#2BE8FA" stop-opacity="0"/>
</linearGradient>
<linearGradient id="paint13_linear" x1="46.3966" y1="37.0193" x2="52.0302" y2="55.6063" gradientUnits="userSpaceOnUse">
<stop stop-color="#2BE8FA"/>
<stop offset="0.1481" stop-color="#2CE5FA" stop-opacity="0.8835"/>
<stop offset="0.2714" stop-color="#30DAFA" stop-opacity="0.7867"/>
<stop offset="0.3857" stop-color="#36C9F9" stop-opacity="0.6968"/>
<stop offset="0.494" stop-color="#3FB1F9" stop-opacity="0.6116"/>
<stop offset="0.5088" stop-color="#40ADF9" stop-opacity="0.6"/>
<stop offset="1" stop-color="#477EF7" stop-opacity="0"/>
</linearGradient>
<linearGradient id="paint14_linear" x1="40.8069" y1="16.2688" x2="40.2912" y2="35.5424" gradientUnits="userSpaceOnUse">
<stop stop-color="#2BE8FA"/>
<stop offset="0.1481" stop-color="#2CE5FA"/>
<stop offset="0.2714" stop-color="#30DAFA"/>
<stop offset="0.3857" stop-color="#36C9F9"/>
<stop offset="0.494" stop-color="#3FB1F9"/>
<stop offset="0.5088" stop-color="#40ADF9"/>
<stop offset="1" stop-color="#477EF7"/>
</linearGradient>
<linearGradient id="paint15_linear" x1="37.6534" y1="23.7839" x2="44.7113" y2="31.7808" gradientUnits="userSpaceOnUse">
<stop stop-color="white"/>
<stop offset="0.9207" stop-color="white" stop-opacity="0.0792859"/>
<stop offset="1" stop-color="white" stop-opacity="0"/>
</linearGradient>
<linearGradient id="paint16_linear" x1="37.7548" y1="24.1292" x2="45.5689" y2="32.9829" gradientUnits="userSpaceOnUse">
<stop stop-color="#42A1F8"/>
<stop offset="1" stop-color="white" stop-opacity="0"/>
</linearGradient>
<linearGradient id="paint17_linear" x1="38.0906" y1="27.9962" x2="42.018" y2="28.0151" gradientUnits="userSpaceOnUse">
<stop stop-color="#40A6F9"/>
<stop offset="1" stop-color="#2BE8FA" stop-opacity="0"/>
</linearGradient>
<linearGradient id="paint18_linear" x1="46.7156" y1="27.7964" x2="31.5274" y2="28.2721" gradientUnits="userSpaceOnUse">
<stop stop-color="#2BE8FA"/>
<stop offset="0.1481" stop-color="#2CE5FA"/>
<stop offset="0.2714" stop-color="#30DAFA"/>
<stop offset="0.3857" stop-color="#36C9F9"/>
<stop offset="0.494" stop-color="#3FB1F9"/>
<stop offset="0.5088" stop-color="#40ADF9"/>
<stop offset="1" stop-color="#477EF7"/>
</linearGradient>
<linearGradient id="paint19_linear" x1="35.9055" y1="28.7752" x2="43.7654" y2="27.8044" gradientUnits="userSpaceOnUse">
<stop stop-color="#42A1F8"/>
<stop offset="0.1361" stop-color="#40A8F8"/>
<stop offset="0.3391" stop-color="#39BDF9"/>
<stop offset="0.583" stop-color="#2EDEFA"/>
<stop offset="0.5851" stop-color="#2EDEFA"/>
<stop offset="1" stop-color="#2BE8FA" stop-opacity="0"/>
</linearGradient>
<linearGradient id="paint20_linear" x1="37.9793" y1="24.1635" x2="45.6644" y2="32.8711" gradientUnits="userSpaceOnUse">
<stop stop-color="#2BE8FA"/>
<stop offset="0.1481" stop-color="#2CE5FA" stop-opacity="0.8835"/>
<stop offset="0.2714" stop-color="#30DAFA" stop-opacity="0.7867"/>
<stop offset="0.3857" stop-color="#36C9F9" stop-opacity="0.6968"/>
<stop offset="0.494" stop-color="#3FB1F9" stop-opacity="0.6116"/>
<stop offset="0.5088" stop-color="#40ADF9" stop-opacity="0.6"/>
<stop offset="1" stop-color="#477EF7" stop-opacity="0"/>
</linearGradient>
</defs>
</svg>
