<svg width="39" height="36" viewBox="0 0 39 36" fill="none" xmlns="http://www.w3.org/2000/svg">
<path d="M17.1686 35.188C17.1638 35.1867 17.159 35.1853 17.1528 35.1853C17.1514 35.1839 17.1494 35.1839 17.1466 35.1839H17.1452L17.1439 35.1825C17.1425 35.1825 17.1411 35.1825 17.1391 35.1812H17.1329C17.1301 35.1798 17.1267 35.1798 17.1239 35.1784H17.1205C17.1157 35.1771 17.1095 35.1757 17.1033 35.175C17.0882 35.1723 17.0724 35.1688 17.0552 35.1654H17.0538C17.0449 35.164 17.038 35.1627 17.0277 35.1606C17.0064 35.1572 16.983 35.1517 16.9583 35.1455C16.9549 35.1455 16.9494 35.1441 16.9446 35.1428C16.8641 35.127 16.7693 35.1057 16.6621 35.081C16.6532 35.0797 16.6449 35.0776 16.636 35.0749C16.4497 35.0317 16.2264 34.9754 15.9734 34.9041C15.9466 34.8965 15.9191 34.889 15.8923 34.8808C15.8085 34.8574 15.7219 34.8314 15.6332 34.8046H15.6319C15.5137 34.7676 15.3886 34.7285 15.2594 34.6867C15.2161 34.6716 15.1728 34.6572 15.1274 34.6435C15.0401 34.6126 14.9501 34.5817 14.8573 34.5502H14.8559C14.7645 34.5173 14.6697 34.4823 14.5735 34.448H14.5721C14.4326 34.3965 14.2896 34.341 14.1425 34.2834C13.6642 34.0948 13.146 33.8684 12.6017 33.6003C12.5893 33.5941 12.5769 33.5893 12.5646 33.5831C12.478 33.5399 12.392 33.4967 12.3054 33.4514C12.3041 33.4501 12.302 33.4487 12.2993 33.448C6.64505 30.5427 -1.56446 23.0744 0.258886 4.4286C0.26026 4.42379 0.26026 4.41899 0.26026 4.41282C0.366101 3.33602 0.505618 2.22081 0.680873 1.0672C0.713175 0.854581 0.746164 0.638535 0.781903 0.423175C0.781903 0.421804 0.781903 0.421804 0.781903 0.421804C0.792899 0.347731 0.80527 0.274344 0.819015 0.200271V0.197528C0.82039 0.180381 0.823826 0.163235 0.82795 0.146088C0.82795 0.139915 0.829325 0.133743 0.830699 0.12757C0.834135 0.105622 0.838259 0.0823032 0.841695 0.0589839C0.841695 0.0576122 0.841695 0.0576122 0.841695 0.0562405C0.84307 0.0514395 0.844445 0.0452667 0.845132 0.0404657C0.845132 0.0377223 0.846506 0.0356647 0.846506 0.0329213C0.847881 0.0281202 0.849255 0.0233192 0.849255 0.0178324C0.849255 0.0150889 0.85063 0.0130313 0.85063 0.0102879V0.00617274C0.85063 0.0034293 0.852005 0.00274344 0.852005 0H0.853379V0.00137172C0.856128 0.00274344 0.85819 0.00411516 0.860939 0.00480102C0.867125 0.00823032 0.87331 0.0123455 0.879496 0.0157748C0.88087 0.0171465 0.882932 0.0185182 0.884306 0.0185182C0.911797 0.034293 0.937227 0.0507536 0.963343 0.0665284C0.968154 0.0699577 0.972965 0.0727011 0.978463 0.0761304C0.99427 0.0850466 1.00939 0.0932769 1.02382 0.102879C1.0252 0.102879 1.02657 0.104251 1.02657 0.104251C1.02932 0.109052 1.03138 0.113853 1.03413 0.120025C1.03688 0.126198 1.03894 0.133743 1.04169 0.140601C1.06369 0.193412 1.08637 0.248967 1.10973 0.304522C1.12691 0.347731 1.1441 0.39094 1.16265 0.434835C1.26643 0.687231 1.37846 0.959518 1.49667 1.24689C1.49804 1.24826 1.49804 1.25032 1.49942 1.25169C1.66849 1.66184 1.85062 2.1049 2.04855 2.57952C2.04993 2.58089 2.04993 2.58226 2.04993 2.58295C2.0513 2.58569 2.05267 2.58638 2.05336 2.58912C2.34683 3.29967 2.66985 4.07744 3.01898 4.91213L3.02654 4.92927C6.68766 13.676 13.08 28.4886 16.9885 34.8911L16.9899 34.8924C17.0222 34.9439 17.0531 34.996 17.0848 35.0461C17.0848 35.0474 17.0848 35.0474 17.0861 35.0488V35.0502C17.1019 35.0762 17.1184 35.1016 17.1342 35.1277C17.1391 35.1352 17.1439 35.1428 17.1494 35.1496V35.151C17.1528 35.1558 17.1556 35.1606 17.1583 35.1661C17.1597 35.1688 17.1611 35.1695 17.1617 35.1709C17.1624 35.1771 17.1652 35.1832 17.1686 35.188Z" fill="url(#paint0_linear)"/>
<path opacity="0.1" d="M17.1683 35.188C17.1635 35.1866 17.1587 35.1853 17.1525 35.1853C17.1512 35.1839 17.1491 35.1839 17.1463 35.1839H17.145L17.1436 35.1825C17.1422 35.1825 17.1408 35.1825 17.1388 35.1812H17.1326C17.1298 35.1798 17.1264 35.1798 17.1237 35.1784H17.1202C17.1154 35.177 17.1092 35.1757 17.103 35.175C17.0879 35.1722 17.0721 35.1688 17.0549 35.1654H17.0536C17.0446 35.164 17.0378 35.1626 17.0274 35.1606C17.0061 35.1572 16.9828 35.1517 16.958 35.1455C16.9546 35.1455 16.9491 35.1441 16.9443 35.1428C16.8639 35.127 16.769 35.1057 16.6618 35.081C16.6529 35.0797 16.6446 35.0776 16.6357 35.0749C16.4494 35.0316 16.2261 34.9754 15.9732 34.9041C15.9464 34.8965 15.9189 34.889 15.8921 34.8808C15.8082 34.8574 15.7216 34.8314 15.633 34.8046H15.6316C15.5134 34.7676 15.3883 34.7285 15.2591 34.6867C15.2158 34.6716 15.1725 34.6572 15.1271 34.6434C15.0398 34.6126 14.9498 34.5817 14.857 34.5502H14.8557C14.7642 34.5172 14.6694 34.4823 14.5732 34.448H14.5718C14.4323 34.3965 14.2893 34.341 14.1423 34.2834C13.701 34.1071 13.2282 33.902 12.7313 33.6606C12.7237 33.6572 12.7162 33.6544 12.7079 33.6496C12.6213 33.6078 12.5354 33.5632 12.4468 33.5193C12.4419 33.5166 12.4371 33.5145 12.4316 33.5118C6.80422 30.6648 -1.48707 23.2698 0.251052 4.64806C0.358267 3.49719 0.503969 2.30173 0.691595 1.06376C0.721148 0.8628 0.75345 0.659786 0.785065 0.456771V0.452656C0.79881 0.373782 0.811181 0.293537 0.824239 0.215349V0.213977L0.825614 0.212605C0.828363 0.192715 0.830425 0.173511 0.834548 0.153621V0.15225C0.835923 0.144705 0.837298 0.139904 0.837985 0.13236C0.84417 0.0932656 0.850356 0.0548574 0.857916 0.0150776C0.857916 0.0137059 0.857916 0.0137059 0.857916 0.0123341C0.857916 0.00959071 0.85929 0.00616141 0.85929 0.00341797C0.865476 0.00684727 0.871661 0.0109624 0.877847 0.0143917C0.879221 0.0157634 0.881283 0.0171352 0.882658 0.0171352C0.910149 0.0329099 0.935578 0.0493706 0.961694 0.0651453C0.961694 0.0685746 0.96032 0.0726898 0.96032 0.0761191C0.955509 0.10904 0.950698 0.145391 0.9452 0.181056C0.943825 0.187228 0.942451 0.192029 0.942451 0.198202C0.941076 0.204375 0.939702 0.210548 0.939014 0.21672V0.218092C0.939014 0.225636 0.93764 0.233181 0.936265 0.24004C0.93008 0.286678 0.92252 0.33606 0.915647 0.387499C0.915647 0.3923 0.914272 0.397101 0.914272 0.402588V0.404646C0.89228 0.565823 0.868912 0.744146 0.845545 0.94236V0.943732C0.842109 0.973224 0.837985 1.00409 0.834548 1.03495C0.833174 1.03769 0.833174 1.03838 0.833174 1.04112C0.301223 5.56711 -0.438286 18.846 8.64475 28.7677C11.3423 31.7135 14.2928 33.6963 16.8852 35.0412C16.8866 35.0426 16.8879 35.044 16.8886 35.044C16.9477 35.0749 17.0068 35.1057 17.0652 35.1352C17.0811 35.1441 17.0962 35.151 17.1106 35.1585C17.112 35.1585 17.1134 35.1599 17.114 35.1613C17.1154 35.1613 17.1154 35.1613 17.1168 35.1626C17.1182 35.1626 17.1182 35.1626 17.1195 35.1626C17.1195 35.164 17.1195 35.164 17.1195 35.164C17.1244 35.1668 17.1285 35.1674 17.1333 35.1702C17.136 35.1716 17.1381 35.1729 17.1408 35.1736C17.1422 35.175 17.1436 35.175 17.1443 35.1764C17.145 35.1777 17.1477 35.1777 17.1491 35.1791C17.1518 35.1805 17.1525 35.1818 17.1553 35.1818C17.1601 35.1832 17.1635 35.186 17.1683 35.188Z" fill="url(#paint1_linear)"/>
<path opacity="0.5" d="M19.5332 27.1498C19.4171 28.3253 19.2061 29.4515 18.9264 30.5187C18.9236 30.5297 18.9216 30.5393 18.9174 30.5509C18.9147 30.5605 18.9126 30.5681 18.9099 30.577C18.9071 30.5859 18.9051 30.5941 18.9037 30.6031C18.9023 30.6058 18.9009 30.6079 18.9009 30.612C18.4955 32.138 17.9511 33.5454 17.347 34.8156C17.3443 34.8218 17.3408 34.828 17.3381 34.8341C17.2914 34.9302 17.2453 35.0275 17.1986 35.1222C17.1986 35.1112 17.1999 35.1002 17.1986 35.09V35.0886C17.1999 35.0749 17.1999 35.0625 17.1999 35.0502V35.0454C17.1999 35.0008 17.2013 34.9569 17.2013 34.9137V34.9123C17.2879 26.968 17.2728 26.6484 17.2728 26.6484C16.9457 19.5264 13.2742 14.0492 10.9182 10.5348C7.96708 6.12679 4.59256 2.92725 1.67783 0.677631C1.67508 0.674888 1.67302 0.674202 1.67164 0.67283C1.66202 0.663914 1.65171 0.657056 1.64209 0.649511C1.65446 0.641967 1.66683 0.635794 1.67645 0.627564C1.70463 0.607674 1.7335 0.587098 1.76305 0.567208C1.7658 0.564464 1.76924 0.562407 1.77267 0.561035C2.77816 1.18105 3.72866 1.80518 4.6283 2.42932C4.62968 2.43069 4.63105 2.43206 4.63105 2.43206C19.8996 13.0375 20.4006 24.0168 18.9944 30.2252C19.2384 29.2451 19.4247 28.2183 19.5332 27.1498Z" fill="url(#paint2_linear)"/>
<path d="M17.1685 35.1876C17.165 35.1841 17.1595 35.18 17.1561 35.1766C17.1547 35.1752 17.1527 35.1739 17.1513 35.1732C17.1486 35.1704 17.1479 35.1697 17.1451 35.167C17.1437 35.167 17.1437 35.1656 17.1424 35.1656C17.1389 35.1622 17.1348 35.1595 17.1314 35.156C17.1238 35.1499 17.1176 35.1437 17.1108 35.1375C17.1059 35.1341 17.0998 35.1286 17.0949 35.1224L17.0936 35.121C17.086 35.1162 17.0798 35.1101 17.0723 35.1053V35.1039C17.0035 35.0435 16.9314 34.9818 16.8613 34.9208C16.8599 34.918 16.8578 34.916 16.8551 34.9146C13.8641 32.283 9.76103 28.0094 6.44561 21.7921C2.41337 14.2298 1.31029 7.09683 1.04912 2.39115C1.01201 1.72655 0.991393 1.11133 0.982459 0.549613C0.982459 0.538639 0.981084 0.528351 0.981084 0.518749V0.51532C0.97971 0.448791 0.97971 0.383635 0.978335 0.318478V0.278012C0.97696 0.26841 0.97696 0.256751 0.978335 0.247148C0.97696 0.238232 0.97696 0.231374 0.978335 0.222458V0.221086C0.97696 0.175819 0.975586 0.131238 0.975586 0.0866573V0.0756836C0.991393 0.0845998 1.00651 0.0928301 1.02095 0.102432L1.02851 0.118207L1.03813 0.140154L1.11716 0.310933L1.1852 0.456336V0.457707L2.02024 2.27181C2.02024 2.27455 2.02299 2.27798 2.02368 2.28072L3.20236 4.84172C3.20511 4.84515 3.20579 4.85064 3.20854 4.85407C3.20854 4.85544 3.20992 4.85544 3.20992 4.85681L17.0228 34.8721C17.0228 34.8735 17.0242 34.8748 17.0242 34.8755C17.0255 34.8783 17.0255 34.8789 17.0269 34.8817L17.1321 35.108L17.1479 35.1389V35.1423L17.1575 35.1629L17.1602 35.1691L17.1685 35.1876Z" fill="url(#paint3_linear)"/>
<path d="M18.9936 30.2248C18.9908 30.2419 18.986 30.259 18.9812 30.2762C18.9785 30.2858 18.9764 30.2961 18.9737 30.3043C18.9723 30.3071 18.9709 30.3091 18.9709 30.3119C18.5283 32.0649 17.8988 33.665 17.1998 35.0861L17.1984 35.0875V35.0889C17.1984 35.0902 17.197 35.0902 17.197 35.0916C17.1936 35.1012 17.1881 35.1101 17.1833 35.1197V35.1211C17.1785 35.1321 17.1723 35.1424 17.1661 35.1533C17.1647 35.1547 17.1647 35.1568 17.1634 35.1581C17.162 35.1616 17.1599 35.1657 17.1586 35.1691C17.1586 35.1691 17.1572 35.1705 17.1572 35.1719C17.1558 35.1732 17.1558 35.1746 17.1544 35.1767C17.1544 35.178 17.1531 35.1794 17.1531 35.1801C17.1517 35.1815 17.1503 35.1828 17.1503 35.1849C17.1503 35.1863 17.1489 35.1863 17.1489 35.1876C17.1476 35.1863 17.1455 35.1849 17.1441 35.1842H17.1427L17.1414 35.1828V35.1815C17.14 35.1801 17.1379 35.1787 17.1366 35.1787C17.1338 35.176 17.1331 35.1753 17.1304 35.1725C17.1256 35.1698 17.1214 35.1664 17.1166 35.1629C17.1153 35.1616 17.1153 35.1616 17.1139 35.1616C17.1125 35.1602 17.1125 35.1602 17.1111 35.1602C17.1098 35.1588 17.1084 35.1575 17.1077 35.1575L17.1063 35.1547C17.1036 35.1533 17.1029 35.1513 17.1001 35.1499C17.0974 35.1465 17.0953 35.1424 17.0926 35.1389C17.0912 35.1376 17.0912 35.1362 17.0898 35.1355C17.0836 35.1259 17.0761 35.1156 17.0685 35.1046V35.1033C12.7689 28.2419 5.22882 10.5358 1.83712 2.38502L1.811 2.32741C1.66186 1.96528 1.52097 1.62303 1.38695 1.30205C1.38695 1.30068 1.38558 1.29862 1.3842 1.29725C1.2385 0.942662 1.10311 0.618936 0.978709 0.31853V0.313729C0.971148 0.29521 0.963588 0.276692 0.956716 0.258174C0.95053 0.244457 0.945719 0.232111 0.939534 0.21908V0.217708C0.936097 0.208106 0.931974 0.19919 0.928537 0.189588C0.917541 0.163525 0.907919 0.138149 0.896235 0.112086C0.883864 0.0791646 0.870119 0.0489867 0.859123 0.0174372L0.857748 0.0160655C0.857748 0.0146938 0.857748 0.0146938 0.857748 0.013322C0.856373 0.013322 0.856373 0.0119503 0.856373 0.0119503C0.854999 0.00852102 0.852937 0.00440586 0.851562 0.000976562C0.854312 0.00234828 0.856373 0.00372 0.859123 0.00440586C0.865308 0.00783516 0.871494 0.0119503 0.877679 0.0153796C0.879054 0.0167513 0.881115 0.0181231 0.88249 0.0181231C0.909981 0.0338978 0.93541 0.0503585 0.961527 0.0661332C0.966338 0.0695625 0.971148 0.072306 0.976647 0.0757353C0.992454 0.0846515 1.00757 0.0928818 1.02201 0.102484C1.02338 0.102484 1.02476 0.103856 1.02476 0.103856C1.09142 0.14295 1.15809 0.184101 1.22475 0.223195V0.224567C1.40963 0.336362 1.59245 0.447471 1.77389 0.560638C2.77937 1.18066 3.72987 1.80479 4.62952 2.42892C4.63089 2.43029 4.63227 2.43166 4.63227 2.43166C19.8994 13.0371 20.3997 24.0164 18.9936 30.2248Z" fill="url(#paint4_linear)"/>
<path d="M17.2007 35.0505C17.1959 35.0711 17.1911 35.0937 17.1856 35.1143C17.1856 35.117 17.1842 35.1177 17.1842 35.1205V35.1218C17.178 35.1438 17.1732 35.1664 17.1684 35.1884C17.167 35.1788 17.1657 35.1685 17.165 35.1589V35.1513C17.1622 35.1342 17.1615 35.1157 17.1588 35.0971C17.1492 35.0046 17.1389 34.9113 17.1279 34.818V34.8105C16.6701 30.7303 15.6798 25.6186 13.5472 20.0178C10.4304 11.8287 6.07305 5.75744 2.55351 1.70675C2.55214 1.70538 2.55076 1.70401 2.55007 1.70195C2.21949 1.3213 1.89785 0.959851 1.58445 0.614864C1.58308 0.614864 1.58308 0.613492 1.58308 0.613492C1.46968 0.490723 1.35971 0.370698 1.24975 0.25273V0.251358C1.24013 0.241756 1.23119 0.23284 1.22363 0.224609C1.40851 0.336404 1.59133 0.447514 1.77277 0.560681C2.77825 1.1807 3.72875 1.80483 4.6284 2.42896C4.62977 2.43033 4.63114 2.43171 4.63114 2.43171C4.69025 2.47697 4.74798 2.5243 4.80846 2.57231C4.8119 2.57505 4.81465 2.57711 4.81808 2.57985C6.06136 3.5668 7.38231 4.74511 8.70188 6.14221C10.864 8.43161 15.297 13.2409 17.167 20.9335C18.6069 26.8476 17.9162 31.9436 17.2007 35.0505Z" fill="url(#paint5_linear)"/>
<path opacity="0.1" d="M17.7563 24.5686C15.9213 10.06 3.51667 1.81661 0.823242 0.124595C0.827366 0.114307 0.828053 0.104705 0.825991 0.0951029C0.826679 0.0916736 0.82874 0.0882443 0.82874 0.084815C0.834926 0.0676685 0.842486 0.050522 0.84661 0.0320038C0.847984 0.0251452 0.848671 0.0176008 0.849359 0.0107422C27.504 15.9625 18.0464 33.6343 17.1323 35.2063C17.8271 32.3147 18.2752 28.6721 17.7563 24.5686Z" fill="url(#paint6_linear)"/>
<path d="M20.3279 35.2661C20.3279 35.2627 20.3279 35.26 20.3265 35.2559C20.3272 35.2552 20.3265 35.2531 20.3258 35.2517V35.2511L20.3265 35.2504C20.3265 35.2497 20.3258 35.249 20.3265 35.2469L20.3251 35.2435C20.3251 35.2421 20.3245 35.2394 20.3251 35.238L20.3245 35.236C20.3245 35.2325 20.3238 35.2291 20.3238 35.225C20.3224 35.2154 20.3217 35.2051 20.321 35.1941V35.1934C20.3203 35.188 20.3196 35.1832 20.319 35.177C20.3176 35.164 20.3162 35.1489 20.3155 35.1331C20.3148 35.131 20.3148 35.1276 20.3148 35.1242C20.31 35.0734 20.3052 35.0124 20.3004 34.9438C20.2997 34.9383 20.2997 34.9328 20.2997 34.9273C20.2915 34.808 20.2853 34.664 20.2818 34.4994C20.2812 34.4815 20.2812 34.4644 20.2812 34.4465C20.2798 34.3924 20.2798 34.3354 20.2798 34.2778V34.2771C20.2805 34.1996 20.2812 34.118 20.2832 34.0323C20.2839 34.0035 20.2853 33.9754 20.2853 33.9452C20.288 33.8869 20.2901 33.8279 20.2922 33.7662V33.7655C20.2956 33.7051 20.299 33.6413 20.3018 33.5776V33.5769C20.3073 33.4843 20.3148 33.3883 20.3224 33.2902C20.3485 32.9692 20.3904 32.618 20.4523 32.2436C20.4537 32.2353 20.4544 32.2271 20.4557 32.2182C20.466 32.1585 20.4763 32.0988 20.488 32.0392C20.4887 32.0385 20.4887 32.0364 20.4894 32.0351C21.2049 28.1195 24.1993 21.8439 35.7401 19.538C35.7435 19.538 35.7462 19.5367 35.7497 19.536C36.4163 19.4029 37.1125 19.2836 37.8376 19.1779C37.9716 19.1581 38.107 19.1389 38.2431 19.121C38.2438 19.121 38.2438 19.121 38.2438 19.121C38.2905 19.1142 38.3366 19.108 38.384 19.1025L38.3854 19.1018C38.3957 19.0998 38.4067 19.0984 38.4184 19.0977C38.4218 19.0963 38.4259 19.0963 38.4301 19.0956C38.4438 19.0936 38.4589 19.0915 38.4734 19.0895C38.474 19.0895 38.474 19.0895 38.4747 19.0888C38.4782 19.0888 38.4816 19.0881 38.485 19.0881C38.4864 19.0874 38.4885 19.0881 38.4898 19.0874C38.4933 19.0874 38.496 19.0874 38.4995 19.086C38.5008 19.0854 38.5029 19.086 38.5043 19.0854L38.507 19.0847C38.5084 19.084 38.5098 19.0847 38.5112 19.084V19.0847H38.5105C38.5105 19.086 38.5098 19.0881 38.5098 19.0895C38.5084 19.0936 38.5077 19.0984 38.5063 19.1025C38.5057 19.1032 38.5057 19.1052 38.5057 19.1059C38.5008 19.1251 38.496 19.1437 38.4912 19.1622C38.4898 19.1656 38.4892 19.169 38.4878 19.1731C38.4857 19.1841 38.483 19.1944 38.4795 19.2054C38.4795 19.2061 38.4795 19.2068 38.4795 19.2068C38.4768 19.2088 38.4747 19.2116 38.4713 19.2143C38.4679 19.217 38.4637 19.2198 38.4603 19.2225C38.4328 19.2452 38.4033 19.2692 38.3744 19.2932C38.3517 19.3117 38.329 19.3295 38.3057 19.3487C38.173 19.4564 38.0301 19.5737 37.8782 19.6971C37.8775 19.6978 37.8761 19.6985 37.8754 19.6992C37.6596 19.8748 37.4266 20.0648 37.1771 20.2698C37.1765 20.2705 37.1758 20.2712 37.1751 20.2712C37.1737 20.2726 37.173 20.2733 37.1723 20.2746C36.7991 20.5798 36.3902 20.9152 35.9517 21.276L35.9428 21.2835C31.3518 25.0688 23.6124 31.5947 20.475 35.1015L20.4743 35.1022C20.4489 35.131 20.4234 35.1585 20.3994 35.1873C20.3987 35.1873 20.3987 35.1873 20.398 35.1886H20.3973C20.3849 35.203 20.3719 35.2175 20.3595 35.2319C20.3561 35.236 20.3526 35.2408 20.3492 35.2449H20.3485C20.3465 35.2483 20.3437 35.2504 20.341 35.2524C20.3396 35.2538 20.3389 35.2545 20.3389 35.2559C20.3334 35.26 20.33 35.2627 20.3279 35.2661Z" fill="url(#paint7_linear)"/>
<path opacity="0.1" d="M20.3279 35.2657C20.3279 35.2623 20.3279 35.2595 20.3265 35.2554C20.3272 35.2547 20.3265 35.2527 20.3258 35.2513V35.2506L20.3265 35.2499C20.3265 35.2493 20.3258 35.2486 20.3265 35.2465L20.3251 35.2431C20.3251 35.2417 20.3245 35.239 20.3251 35.2376L20.3245 35.2355C20.3245 35.2321 20.3238 35.2287 20.3238 35.2246C20.3224 35.215 20.3217 35.2047 20.321 35.1937V35.193C20.3203 35.1875 20.3196 35.1827 20.319 35.1766C20.3176 35.1635 20.3162 35.1484 20.3155 35.1327C20.3148 35.1306 20.3148 35.1272 20.3148 35.1237C20.31 35.073 20.3052 35.0119 20.3004 34.9434C20.2997 34.9379 20.2997 34.9324 20.2997 34.9269C20.2915 34.8076 20.2853 34.6635 20.2818 34.4989C20.2812 34.4811 20.2812 34.4639 20.2812 34.4461C20.2798 34.3919 20.2798 34.335 20.2798 34.2774V34.2767C20.2805 34.1992 20.2812 34.1176 20.2832 34.0319C20.2839 34.003 20.2853 33.9749 20.2853 33.9448C20.288 33.8865 20.2901 33.8275 20.2922 33.7657V33.7651C20.2956 33.7047 20.299 33.6409 20.3018 33.5771V33.5764C20.3073 33.4839 20.3148 33.3878 20.3224 33.2898C20.3478 32.9935 20.3849 32.6732 20.4399 32.3316C20.4406 32.3268 20.4406 32.3213 20.442 32.3158C20.4516 32.2569 20.4626 32.1965 20.4729 32.1355C20.4736 32.132 20.4743 32.1286 20.475 32.1252C21.1609 28.2364 24.0955 21.9251 35.6067 19.5733C36.3181 19.4279 37.0631 19.2969 37.8417 19.1837C37.9675 19.1652 38.0954 19.1474 38.2239 19.1295L38.2259 19.1288C38.2761 19.1227 38.3263 19.1151 38.3758 19.1089H38.3764L38.3771 19.1096C38.3895 19.1076 38.4019 19.1055 38.4142 19.1041H38.4149C38.4197 19.1035 38.4225 19.1035 38.4273 19.1028C38.452 19.0993 38.4761 19.0959 38.5015 19.0932C38.5022 19.0932 38.5022 19.0932 38.5029 19.0925C38.5043 19.0918 38.507 19.0918 38.5084 19.0918C38.507 19.0959 38.5063 19.1007 38.505 19.1048C38.5043 19.1055 38.5043 19.1076 38.5043 19.1083C38.4995 19.1275 38.4947 19.146 38.4898 19.1645C38.4878 19.1652 38.485 19.1652 38.483 19.1659C38.4624 19.1693 38.4397 19.1727 38.4177 19.1762C38.4136 19.1768 38.4108 19.1768 38.4067 19.1775C38.4026 19.1782 38.3991 19.1782 38.395 19.1789H38.3943C38.3902 19.1803 38.3854 19.181 38.3806 19.1816C38.351 19.1864 38.3201 19.1912 38.2878 19.196C38.285 19.1967 38.2816 19.1974 38.2789 19.1981H38.2782C38.1771 19.2139 38.0658 19.2324 37.9421 19.255H37.9414C37.9228 19.2585 37.9036 19.2619 37.8844 19.2646C37.883 19.2646 37.8816 19.2646 37.8802 19.2653C35.0624 19.7715 26.9457 21.7481 22.6358 28.9935C21.3567 31.1451 20.7018 33.2726 20.3657 35.0696C20.365 35.0702 20.365 35.0716 20.365 35.0723C20.3574 35.1135 20.3499 35.1546 20.3423 35.1944C20.3403 35.2054 20.3382 35.2156 20.3368 35.2259C20.3368 35.2266 20.3368 35.2273 20.3361 35.2287C20.3361 35.2294 20.3361 35.2294 20.3361 35.2301C20.3361 35.2307 20.3361 35.2307 20.3368 35.2314C20.3361 35.2314 20.3361 35.2314 20.3361 35.2314C20.3355 35.2349 20.3355 35.2376 20.3348 35.2403C20.3348 35.2417 20.3341 35.2438 20.3341 35.2451C20.3334 35.2458 20.3341 35.2465 20.3334 35.2479C20.3327 35.2486 20.3334 35.2506 20.3327 35.2513C20.3327 35.2527 20.332 35.2541 20.332 35.2554C20.3293 35.2595 20.3286 35.2623 20.3279 35.2657Z" fill="url(#paint8_linear)"/>
<path opacity="0.5" d="M25.5902 35.2163C24.8623 35.361 24.1469 35.4399 23.4541 35.4666C23.4472 35.4673 23.4404 35.4673 23.4335 35.4673C23.4273 35.4673 23.4225 35.4673 23.4163 35.4673C23.4108 35.4673 23.4053 35.4673 23.3998 35.468C23.3984 35.468 23.3964 35.4673 23.3943 35.468C22.4026 35.503 21.4583 35.4337 20.584 35.3034C20.5799 35.3034 20.5758 35.302 20.5717 35.3014C20.5057 35.2911 20.4383 35.2815 20.373 35.2705C20.3799 35.2684 20.3868 35.2671 20.3923 35.2643H20.393C20.4012 35.2623 20.4088 35.2602 20.4163 35.2581L20.4191 35.2575C20.4459 35.2492 20.4727 35.2424 20.4988 35.2341H20.4995C25.2905 33.8384 25.4802 33.7712 25.4802 33.7712C29.7021 32.2781 32.3255 29.082 34.0086 27.0312C36.1206 24.4613 37.4285 21.8578 38.2505 19.7035C38.2512 19.7014 38.2518 19.7001 38.2525 19.6987C38.256 19.6912 38.2587 19.6843 38.2615 19.6768C38.2683 19.6829 38.2738 19.6891 38.2814 19.6932C38.2986 19.7069 38.3164 19.72 38.3336 19.7337C38.3357 19.7344 38.3378 19.7364 38.3391 19.7385C38.1494 20.4532 37.9474 21.1363 37.7364 21.7885C37.7357 21.7892 37.735 21.7906 37.735 21.7906C34.1419 32.8638 27.6327 35.1635 23.6445 35.4529C24.2775 35.4221 24.9283 35.3459 25.5902 35.2163Z" fill="url(#paint9_linear)"/>
<path d="M20.3281 35.266C20.3295 35.2633 20.3309 35.2599 20.3322 35.2564C20.3329 35.2558 20.3329 35.2537 20.3336 35.253C20.3343 35.251 20.335 35.2503 20.3364 35.2482C20.3364 35.2475 20.3371 35.2475 20.3364 35.2468C20.3377 35.2441 20.3384 35.2413 20.3405 35.2386C20.3426 35.2331 20.3453 35.2283 20.3481 35.2228C20.3494 35.2194 20.3515 35.2146 20.3542 35.2105L20.3549 35.2098C20.3563 35.2043 20.3591 35.1995 20.3604 35.194H20.3611C20.3845 35.1419 20.4085 35.0877 20.4333 35.0342C20.4347 35.0328 20.4353 35.0308 20.436 35.0294C21.4731 32.7592 23.2944 29.524 26.4277 26.4061C30.2393 22.6147 34.3266 20.6545 37.1073 19.6408C37.5004 19.4974 37.866 19.3726 38.2021 19.2656C38.209 19.2636 38.2145 19.2608 38.2207 19.2595L38.2227 19.2588C38.2626 19.2457 38.3018 19.2341 38.3409 19.2217L38.3657 19.2142C38.3712 19.2114 38.378 19.2094 38.3842 19.2087C38.389 19.2066 38.3938 19.2053 38.3993 19.2039H38.4C38.4275 19.195 38.4536 19.1861 38.4804 19.1778L38.4873 19.1758C38.4853 19.1868 38.4825 19.197 38.4791 19.208L38.4708 19.2156L38.4591 19.2258L38.3705 19.304L38.2956 19.3713H38.2949L37.3561 20.2018C37.3547 20.2025 37.3526 20.2046 37.3513 20.2059L36.0269 21.3774C36.0248 21.3794 36.0221 21.3815 36.0207 21.3836C36.02 21.3836 36.02 21.3842 36.0193 21.3849L20.4931 35.1227C20.4924 35.1227 20.4917 35.1241 20.491 35.1241C20.4896 35.1254 20.4889 35.1254 20.4876 35.1268L20.3707 35.2311L20.3549 35.2461L20.3529 35.2468L20.3419 35.2564L20.3384 35.2592L20.3281 35.266Z" fill="url(#paint10_linear)"/>
<path d="M23.6429 35.4545C23.6319 35.4559 23.6209 35.4566 23.6099 35.4566C23.6037 35.4566 23.5968 35.4572 23.5913 35.4572C23.59 35.4572 23.5879 35.4566 23.5865 35.4572C22.4518 35.5114 21.3756 35.4264 20.3934 35.2666L20.3927 35.2659H20.3921C20.3914 35.2659 20.3914 35.2652 20.3907 35.2659C20.3838 35.2652 20.3783 35.2638 20.3714 35.2631H20.3708C20.3632 35.2625 20.3563 35.2604 20.3481 35.2583C20.3474 35.2577 20.3453 35.2583 20.3446 35.2577C20.3419 35.2577 20.3398 35.257 20.3371 35.257C20.3371 35.257 20.3364 35.2563 20.3357 35.257C20.335 35.2563 20.3343 35.257 20.3323 35.2563C20.3316 35.2563 20.3309 35.2563 20.3295 35.2563C20.3288 35.2556 20.3275 35.2549 20.3261 35.2556C20.3254 35.2556 20.3254 35.2549 20.3247 35.2556C20.3254 35.2549 20.3254 35.2529 20.3261 35.2522V35.2515L20.3268 35.2508H20.3275C20.3281 35.2501 20.3281 35.2481 20.3281 35.2474C20.3295 35.2453 20.3295 35.2446 20.3309 35.2426C20.3316 35.2391 20.333 35.2364 20.3343 35.233C20.335 35.2323 20.335 35.2323 20.3343 35.2316C20.335 35.2309 20.335 35.2309 20.3343 35.2302C20.335 35.2295 20.3357 35.2282 20.335 35.2275L20.3364 35.2261C20.3364 35.2247 20.3378 35.2234 20.3385 35.2213C20.3405 35.2192 20.3419 35.2172 20.344 35.2151C20.3446 35.2144 20.3453 35.2138 20.346 35.2131C20.3508 35.2076 20.3556 35.2014 20.3604 35.1952H20.3611C23.702 31.3688 32.9726 23.6289 37.2544 20.1132L37.2846 20.0871C37.475 19.9321 37.655 19.7853 37.8234 19.6461C37.8241 19.6461 37.8255 19.6447 37.8262 19.644C38.0124 19.4924 38.1829 19.3518 38.3402 19.2229L38.343 19.2222C38.3526 19.2147 38.3622 19.2064 38.3726 19.1989C38.3794 19.1927 38.3863 19.1872 38.3932 19.1811H38.3939C38.3994 19.1769 38.4035 19.1735 38.409 19.1694C38.4227 19.1577 38.4365 19.1475 38.4495 19.1358C38.4674 19.1221 38.4825 19.109 38.4997 19.0967L38.5004 19.096C38.5011 19.096 38.5011 19.096 38.5018 19.0953C38.5018 19.0946 38.5024 19.0946 38.5024 19.0946C38.5045 19.0933 38.5059 19.0912 38.5079 19.0898C38.5079 19.0912 38.5073 19.0933 38.5073 19.0946C38.5059 19.0988 38.5052 19.1036 38.5038 19.1077C38.5031 19.1084 38.5031 19.1104 38.5031 19.1111C38.4983 19.1303 38.4935 19.1488 38.4887 19.1673C38.4873 19.1708 38.4866 19.1742 38.4853 19.1783C38.4832 19.1893 38.4805 19.1996 38.477 19.2106C38.477 19.2112 38.477 19.2119 38.477 19.2119C38.4653 19.2593 38.453 19.3066 38.442 19.3532H38.4413C38.4076 19.4842 38.3746 19.6138 38.3396 19.7428C38.1499 20.4575 37.9478 21.1406 37.7368 21.7928C37.7361 21.7935 37.7354 21.7949 37.7354 21.7949C34.1403 32.8647 27.6311 35.1651 23.6429 35.4545Z" fill="url(#paint11_linear)"/>
<path d="M20.4168 35.26C20.403 35.2606 20.3893 35.262 20.3755 35.2627C20.3742 35.2634 20.3728 35.2627 20.3714 35.2634H20.3707C20.3563 35.2634 20.3419 35.2648 20.3281 35.2661C20.3336 35.2634 20.3398 35.2613 20.3453 35.2586L20.3494 35.2572C20.3591 35.2524 20.37 35.2483 20.381 35.2435C20.4347 35.2209 20.4889 35.1975 20.5432 35.1742L20.5474 35.1729C22.9171 34.1557 25.8092 32.6311 28.7878 30.3341C33.1424 26.9762 35.998 23.2615 37.7918 20.4166C37.7925 20.4159 37.7925 20.4146 37.7939 20.4132C37.9623 20.1457 38.121 19.8871 38.2715 19.6368C38.2715 19.6361 38.2722 19.6361 38.2722 19.6361C38.3258 19.5456 38.3774 19.4585 38.4282 19.3707H38.4289C38.433 19.3631 38.4365 19.3563 38.4406 19.3501C38.4069 19.4811 38.3739 19.6107 38.3389 19.7397C38.1492 20.4543 37.9471 21.1374 37.7362 21.7897C37.7355 21.7904 37.7348 21.7918 37.7348 21.7918C37.7183 21.8356 37.7004 21.8789 37.6825 21.9234C37.6819 21.9262 37.6805 21.9282 37.6798 21.931C37.3128 22.8548 36.8454 23.8603 36.2461 24.9056C35.264 26.6175 33.1809 30.1469 28.8964 32.6681C25.6037 34.607 22.4147 35.1221 20.4168 35.26Z" fill="url(#paint12_linear)"/>
<path opacity="0.1" d="M26.8181 33.6834C35.2049 29.9413 37.9004 21.0135 38.4268 19.0924C38.4337 19.0931 38.4399 19.0917 38.4454 19.0883C38.4474 19.0883 38.4502 19.089 38.4523 19.0883C38.4639 19.089 38.4756 19.0903 38.4873 19.089C38.4914 19.0883 38.4962 19.0876 38.5004 19.0869C33.7678 37.9508 21.4216 35.5084 20.3096 35.2478C22.1741 35.1367 24.4456 34.7417 26.8181 33.6834Z" fill="url(#paint13_linear)"/>
<path d="M21.9651 23.4788C21.9644 23.4774 21.963 23.4754 21.9617 23.474C21.9617 23.4733 21.961 23.4726 21.9603 23.4719V23.4713V23.4706C21.9603 23.4699 21.9596 23.4699 21.9596 23.4692L21.9582 23.4671C21.9582 23.4665 21.9568 23.4651 21.9568 23.4644L21.9562 23.463C21.9555 23.4617 21.9541 23.4596 21.9527 23.4575C21.95 23.4527 21.9465 23.4473 21.9438 23.4418V23.4411C21.9417 23.4383 21.9404 23.4363 21.939 23.4329C21.9349 23.426 21.93 23.4185 21.9259 23.4095C21.9252 23.4082 21.9239 23.4068 21.9232 23.4054C21.9081 23.3787 21.8902 23.3471 21.8703 23.3108C21.8682 23.308 21.8668 23.3053 21.8654 23.3019C21.8311 23.2388 21.7919 23.1626 21.7493 23.0741C21.7445 23.0645 21.7397 23.0549 21.7355 23.0453C21.7211 23.0159 21.7074 22.9857 21.6929 22.9541V22.9534C21.6737 22.9109 21.6538 22.8663 21.6338 22.8197C21.627 22.8039 21.6208 22.7881 21.6132 22.7724C21.6002 22.7401 21.5864 22.7072 21.5727 22.6736V22.6729C21.5596 22.6393 21.5452 22.6037 21.5314 22.5687V22.568C21.5115 22.5159 21.4916 22.4624 21.4709 22.4068C21.405 22.2257 21.3404 22.0248 21.2806 21.806C21.2792 21.8012 21.2778 21.7964 21.2764 21.7916C21.2668 21.7566 21.2579 21.7216 21.249 21.6867C21.249 21.686 21.249 21.6853 21.2483 21.6839C20.6613 19.3787 20.7246 15.2265 26.42 11.11C26.4214 11.1093 26.4228 11.108 26.4248 11.1066C26.754 10.8693 27.1025 10.6313 27.4702 10.394C27.5382 10.3501 27.6069 10.3062 27.6764 10.2623C27.677 10.2623 27.677 10.2623 27.677 10.2623C27.7004 10.2472 27.7245 10.2321 27.7485 10.2177L27.7492 10.217C27.754 10.2129 27.7602 10.2102 27.7657 10.2067C27.7678 10.2054 27.7691 10.204 27.7712 10.2026C27.7781 10.1978 27.7856 10.1937 27.7932 10.1889C27.7939 10.1889 27.7939 10.1889 27.7939 10.1882C27.7952 10.1875 27.7973 10.1862 27.7994 10.1855C27.8001 10.1848 27.8007 10.1848 27.8014 10.1841C27.8028 10.1834 27.8049 10.182 27.8062 10.1814C27.8069 10.1807 27.8076 10.1807 27.8083 10.18L27.8097 10.1786C27.8104 10.1779 27.8111 10.1779 27.8117 10.1772V10.1779H27.8111C27.8111 10.1786 27.8117 10.18 27.8117 10.1807C27.8124 10.1834 27.8124 10.1862 27.8131 10.1889C27.8131 10.1896 27.8131 10.1903 27.8138 10.191C27.8159 10.2026 27.8179 10.2136 27.82 10.2253C27.82 10.2273 27.8207 10.2294 27.8207 10.2321C27.8221 10.239 27.8234 10.2451 27.8241 10.2513C27.8241 10.252 27.8241 10.252 27.8241 10.252C27.8234 10.2541 27.8227 10.2561 27.8214 10.2582C27.82 10.2602 27.8186 10.263 27.8172 10.2657C27.8076 10.2849 27.798 10.3048 27.7884 10.3254C27.7808 10.3412 27.7726 10.3563 27.765 10.3727C27.7196 10.4646 27.6709 10.5634 27.6193 10.6676C27.6193 10.6683 27.6186 10.669 27.6186 10.6697C27.5451 10.8185 27.466 10.9797 27.3815 11.1532C27.3815 11.1539 27.3808 11.1539 27.3808 11.1546C27.3801 11.1553 27.3801 11.156 27.3801 11.1573C27.253 11.4159 27.1148 11.6992 26.9664 12.0044L26.9636 12.0105C25.4125 15.206 22.8338 20.6723 22.0029 23.356V23.3567C21.996 23.3787 21.9892 23.3999 21.983 23.4212C21.9823 23.4212 21.9823 23.4212 21.9823 23.4219C21.9788 23.4329 21.9754 23.4438 21.9727 23.4548C21.972 23.4582 21.9713 23.461 21.9699 23.4644C21.9692 23.4665 21.9685 23.4685 21.9678 23.4706C21.9672 23.4713 21.9672 23.4719 21.9672 23.4726C21.9665 23.474 21.9658 23.4767 21.9651 23.4788Z" fill="url(#paint14_linear)"/>
<path opacity="0.1" d="M21.9656 23.4795C21.9649 23.4781 21.9636 23.476 21.9622 23.4747C21.9622 23.474 21.9615 23.4733 21.9608 23.4726V23.4719V23.4712C21.9608 23.4706 21.9601 23.4705 21.9601 23.4699L21.9588 23.4678C21.9588 23.4671 21.9574 23.4657 21.9574 23.4651L21.9567 23.4637C21.956 23.4623 21.9546 23.4603 21.9533 23.4582C21.9505 23.4534 21.9471 23.4479 21.9443 23.4424V23.4417C21.9423 23.439 21.9409 23.4369 21.9395 23.4335C21.9354 23.4267 21.9306 23.4191 21.9265 23.4102C21.9258 23.4088 21.9244 23.4075 21.9237 23.4061C21.9086 23.3793 21.8907 23.3478 21.8708 23.3114C21.8687 23.3087 21.8674 23.3059 21.866 23.3025C21.8316 23.2394 21.7924 23.1633 21.7498 23.0748C21.745 23.0652 21.7402 23.0556 21.7361 23.046C21.7216 23.0165 21.7079 22.9863 21.6935 22.9548V22.9541C21.6742 22.9116 21.6543 22.867 21.6344 22.8204C21.6275 22.8046 21.6213 22.7888 21.6137 22.773C21.6007 22.7408 21.5869 22.7079 21.5732 22.6743V22.6736C21.5601 22.64 21.5457 22.6043 21.532 22.5693V22.5686C21.512 22.5165 21.4921 22.463 21.4715 22.4075C21.4117 22.2401 21.3519 22.057 21.2962 21.8581C21.2955 21.8554 21.2942 21.8526 21.2935 21.8485C21.2839 21.8142 21.2749 21.7785 21.2653 21.7429C21.2646 21.7408 21.2639 21.7388 21.2639 21.7367C20.6674 19.4535 20.6894 15.2965 26.3573 11.1621C26.7078 10.9063 27.0797 10.6505 27.4748 10.396C27.5388 10.3542 27.6034 10.313 27.6687 10.2719L27.67 10.2712C27.6955 10.2554 27.7209 10.239 27.7463 10.2232H27.747H27.7477C27.7539 10.2191 27.7601 10.215 27.7663 10.2108H27.7669C27.769 10.2095 27.7711 10.2088 27.7731 10.2067C27.7855 10.1985 27.7979 10.191 27.8109 10.1834C27.8116 10.1834 27.8116 10.1834 27.8116 10.1827C27.8123 10.182 27.8137 10.1813 27.8144 10.1807C27.815 10.1834 27.815 10.1862 27.8157 10.1889C27.8157 10.1896 27.8157 10.1903 27.8164 10.191C27.8185 10.2026 27.8205 10.2136 27.8226 10.2252C27.8212 10.2259 27.8205 10.2266 27.8192 10.228C27.8089 10.2348 27.7972 10.2424 27.7862 10.2499C27.7841 10.2513 27.7827 10.252 27.7807 10.2534C27.7786 10.2547 27.7766 10.2554 27.7745 10.2568H27.7738C27.7718 10.2589 27.7697 10.2602 27.7669 10.2616C27.7525 10.2712 27.7367 10.2815 27.7202 10.2925C27.7188 10.2938 27.7175 10.2945 27.7161 10.2959H27.7154C27.6645 10.3295 27.6089 10.3672 27.547 10.4097H27.5463C27.5374 10.4159 27.5278 10.4228 27.5181 10.4289C27.5175 10.4289 27.5168 10.4296 27.5161 10.4303C26.1113 11.4049 22.1938 14.4927 21.6577 19.4981C21.499 20.9843 21.6735 22.3025 21.9388 23.3629C21.9388 23.3636 21.9388 23.3642 21.9388 23.3642C21.945 23.3882 21.9512 23.4129 21.9567 23.4363C21.9581 23.4431 21.9601 23.4486 21.9615 23.4548C21.9615 23.4555 21.9615 23.4555 21.9615 23.4561C21.9615 23.4568 21.9615 23.4568 21.9615 23.4568C21.9615 23.4575 21.9615 23.4575 21.9622 23.4575C21.9615 23.4575 21.9615 23.4575 21.9615 23.4575C21.9622 23.4596 21.9629 23.4609 21.9629 23.463C21.9629 23.4637 21.9636 23.4651 21.9636 23.4657C21.9636 23.4664 21.9636 23.4664 21.9636 23.4671C21.9636 23.4678 21.9643 23.4685 21.9643 23.4692C21.9643 23.4699 21.9643 23.4706 21.9649 23.4712C21.9649 23.476 21.9649 23.4774 21.9656 23.4795Z" fill="url(#paint15_linear)"/>
<path opacity="0.5" d="M24.8118 22.146C24.4523 22.4053 24.0833 22.6254 23.7135 22.812C23.7101 22.814 23.7066 22.8161 23.7025 22.8175C23.6991 22.8195 23.6963 22.8202 23.6936 22.8216C23.6908 22.8229 23.6874 22.8243 23.6847 22.8264C23.684 22.8264 23.6826 22.8271 23.6819 22.8277C23.152 23.0932 22.6214 23.29 22.1142 23.4354C22.1122 23.4361 22.1094 23.4368 22.1067 23.4375C22.0682 23.4485 22.0297 23.4594 21.9912 23.4697C21.9946 23.467 21.9981 23.4642 22.0001 23.4615H22.0008C22.005 23.4587 22.0084 23.4553 22.0118 23.4526L22.0132 23.4512C22.0256 23.4402 22.0386 23.4292 22.0503 23.419H22.051C24.3059 21.4718 24.3925 21.3881 24.3925 21.3881C26.3142 19.5294 26.943 17.142 27.3464 15.6098C27.8537 13.6893 27.9155 11.9507 27.8248 10.5762C27.8248 10.5749 27.8248 10.5742 27.8248 10.5735C27.8248 10.5687 27.8241 10.5639 27.8241 10.5591C27.8289 10.5605 27.8337 10.5625 27.8392 10.5632C27.8516 10.5659 27.8647 10.5687 27.8777 10.5721C27.8791 10.5721 27.8805 10.5728 27.8818 10.5735C27.9567 11.009 28.0172 11.4301 28.0653 11.8368C28.0653 11.8375 28.0653 11.8382 28.0653 11.8382C28.8715 18.7462 25.9087 21.611 23.8139 22.7585C24.1499 22.5836 24.4846 22.3806 24.8118 22.146Z" fill="url(#paint16_linear)"/>
<path d="M21.9646 23.4784C21.9646 23.4764 21.9646 23.4743 21.9646 23.4723C21.9646 23.4716 21.9646 23.4709 21.9646 23.4702C21.9646 23.4688 21.9646 23.4681 21.9646 23.4668C21.9646 23.4661 21.9646 23.4661 21.9646 23.4661C21.9646 23.464 21.9646 23.4627 21.9646 23.4606C21.9646 23.4572 21.9646 23.4537 21.9646 23.4503C21.9646 23.4483 21.9646 23.4448 21.9646 23.4421V23.4414C21.9639 23.438 21.9646 23.4345 21.9639 23.4318H21.9646C21.9646 23.3975 21.9639 23.3625 21.9639 23.3275C21.9646 23.3269 21.9646 23.3255 21.9639 23.3241C21.9618 21.8337 22.1453 19.6239 23.0704 17.1527C24.1962 14.1466 25.9288 12.0678 27.1872 10.8271C27.3652 10.6515 27.5329 10.493 27.6882 10.3518C27.6916 10.349 27.6937 10.3463 27.6965 10.3435L27.6978 10.3428C27.7164 10.3257 27.7343 10.3099 27.7528 10.2935L27.7645 10.2832C27.7672 10.2804 27.77 10.2777 27.7734 10.2756C27.7755 10.2729 27.7776 10.2715 27.7803 10.2695H27.781C27.7934 10.2578 27.8057 10.2461 27.8181 10.2352L27.8215 10.2324C27.8229 10.2393 27.8243 10.2455 27.825 10.2516L27.8222 10.2578L27.8188 10.266L27.7906 10.3305L27.7666 10.3854H27.7659L27.4628 11.0692C27.4621 11.0699 27.4614 11.0712 27.4614 11.0726L27.0339 12.0376C27.0332 12.039 27.0325 12.041 27.0319 12.0424C27.0312 12.0424 27.0319 12.0431 27.0312 12.0431L22.0189 23.3598C22.0182 23.3598 22.0182 23.3605 22.0182 23.3612C22.0175 23.3618 22.0175 23.3625 22.0168 23.3632L21.979 23.4489L21.9742 23.4613L21.9728 23.462L21.9694 23.4702L21.968 23.4723L21.9646 23.4784Z" fill="url(#paint17_linear)"/>
<path d="M23.8133 22.7585C23.8078 22.762 23.8017 22.7647 23.7955 22.7682C23.792 22.7702 23.7886 22.7716 23.7859 22.773C23.7852 22.773 23.7838 22.7736 23.7831 22.7743C23.1804 23.085 22.5742 23.3066 22.001 23.4629H22.0003H21.9996H21.9989C21.9955 23.4643 21.9914 23.465 21.9879 23.4664C21.9838 23.4677 21.979 23.4684 21.9749 23.4698C21.9742 23.4698 21.9735 23.4705 21.9728 23.4705C21.9714 23.4712 21.9701 23.4712 21.9687 23.4718H21.968C21.9673 23.4718 21.9673 23.4718 21.9659 23.4725C21.9653 23.4725 21.9653 23.4725 21.9646 23.4732C21.9639 23.4732 21.9632 23.4732 21.9625 23.4739C21.9618 23.4739 21.9618 23.4739 21.9618 23.4739C21.9618 23.4732 21.9618 23.4725 21.9618 23.4718V23.4712V23.4705C21.9618 23.4698 21.9618 23.4691 21.9611 23.4684C21.9611 23.467 21.9611 23.4664 21.9611 23.465C21.9604 23.4629 21.9604 23.4609 21.9604 23.4588C21.9604 23.4581 21.9604 23.4581 21.9604 23.4581C21.9604 23.4574 21.9604 23.4574 21.9604 23.4574C21.9604 23.4568 21.9604 23.4561 21.9604 23.4561L21.9611 23.4554C21.9611 23.4547 21.9611 23.4533 21.9611 23.4526C21.9618 23.4513 21.9618 23.4492 21.9625 23.4478C21.9625 23.4472 21.9632 23.4472 21.9632 23.4465C21.9646 23.4424 21.9653 23.4376 21.9666 23.4327H21.9673C22.8292 20.5247 25.937 14.0193 27.3872 11.0468L27.3968 11.0249C27.4614 10.8932 27.5226 10.769 27.5796 10.6518C27.5803 10.6518 27.5803 10.6504 27.5803 10.6497C27.6435 10.5208 27.7013 10.4028 27.7549 10.2931L27.7562 10.2917C27.7597 10.2848 27.7631 10.2786 27.7665 10.2718C27.7686 10.267 27.7714 10.2622 27.7734 10.2574H27.7741C27.7762 10.254 27.7775 10.2505 27.7796 10.2471C27.7844 10.2375 27.7892 10.2286 27.7933 10.219C27.7995 10.2073 27.8043 10.1963 27.8105 10.1854V10.1847C27.8112 10.1847 27.8112 10.1847 27.8112 10.184C27.8112 10.1833 27.8112 10.1833 27.8112 10.1833C27.8119 10.1819 27.8126 10.1806 27.8133 10.1792C27.8133 10.1799 27.814 10.1813 27.814 10.1819C27.8147 10.1847 27.8147 10.1874 27.8153 10.1902C27.8153 10.1909 27.8153 10.1915 27.816 10.1922C27.8181 10.2039 27.8202 10.2149 27.8222 10.2265C27.8222 10.2286 27.8229 10.2306 27.8229 10.2334C27.8243 10.2402 27.8256 10.2464 27.8263 10.2526C27.8263 10.2533 27.8263 10.2533 27.8263 10.2533C27.8318 10.2814 27.8366 10.3102 27.8421 10.339H27.8415C27.8559 10.4186 27.8703 10.4974 27.8834 10.5763C27.9583 11.0118 28.0188 11.433 28.0669 11.8397C28.0669 11.8404 28.0669 11.841 28.0669 11.841C28.871 18.7463 25.9082 21.6111 23.8133 22.7585Z" fill="url(#paint18_linear)"/>
<path d="M22.0121 23.4533C22.0052 23.4574 21.9976 23.4615 21.9901 23.4649C21.9894 23.4656 21.9887 23.4656 21.988 23.4663C21.9805 23.4697 21.9729 23.4745 21.9653 23.478C21.9681 23.4752 21.9701 23.4725 21.9729 23.4697L21.975 23.4677C21.9791 23.4629 21.9839 23.4581 21.9887 23.4526C22.0121 23.4272 22.0361 23.4012 22.0595 23.3744L22.0616 23.3723C23.0952 22.2318 24.287 20.6858 25.333 18.6989C26.8622 15.7936 27.4876 13.0673 27.7536 11.0763C27.7536 11.0756 27.7536 11.0749 27.7543 11.0742C27.779 10.887 27.801 10.7073 27.8202 10.5338V10.5331C27.8264 10.4707 27.8333 10.4103 27.8388 10.3506H27.8395C27.8395 10.3451 27.8402 10.341 27.8409 10.3369C27.8553 10.4165 27.8697 10.4953 27.8828 10.5742C27.9577 11.0097 28.0182 11.4309 28.0663 11.8376C28.0663 11.8383 28.0663 11.8389 28.0663 11.8389C28.0683 11.8671 28.0697 11.8945 28.0711 11.9233C28.0711 11.9247 28.0711 11.926 28.0718 11.9281C28.1027 12.5214 28.0993 13.1832 28.034 13.9C27.9268 15.0735 27.6745 17.5083 25.9756 19.941C24.6677 21.8113 23.0629 22.8826 22.0121 23.4533Z" fill="url(#paint19_linear)"/>
<path opacity="0.1" d="M25.097 21.0082C28.721 16.8938 27.9609 11.3747 27.7685 10.2005C27.7726 10.1991 27.7753 10.197 27.7774 10.1936C27.7788 10.1929 27.7801 10.1929 27.7808 10.1915C27.787 10.1888 27.7939 10.1867 27.8001 10.1833C27.8021 10.1819 27.8042 10.1806 27.8069 10.1792C29.9361 21.6022 22.6194 23.3388 21.9507 23.4732C22.9362 22.9499 24.0723 22.1715 25.097 21.0082Z" fill="url(#paint20_linear)"/>
<defs>
<linearGradient id="paint0_linear" x1="-5.68675" y1="5.81247" x2="16.9571" y2="26.9903" gradientUnits="userSpaceOnUse">
<stop stop-color="#2BE8FA"/>
<stop offset="0.1481" stop-color="#2CE5FA"/>
<stop offset="0.2714" stop-color="#30DAFA"/>
<stop offset="0.3857" stop-color="#36C9F9"/>
<stop offset="0.494" stop-color="#3FB1F9"/>
<stop offset="0.5088" stop-color="#40ADF9"/>
<stop offset="1" stop-color="#477EF7"/>
</linearGradient>
<linearGradient id="paint1_linear" x1="0.0160254" y1="17.5966" x2="17.1685" y2="17.5966" gradientUnits="userSpaceOnUse">
<stop stop-color="white"/>
<stop offset="0.9207" stop-color="white" stop-opacity="0.0792859"/>
<stop offset="1" stop-color="white" stop-opacity="0"/>
</linearGradient>
<linearGradient id="paint2_linear" x1="0.542863" y1="17.8409" x2="19.5329" y2="17.8409" gradientUnits="userSpaceOnUse">
<stop stop-color="#42A1F8"/>
<stop offset="1" stop-color="white" stop-opacity="0"/>
</linearGradient>
<linearGradient id="paint3_linear" x1="5.56365" y1="21.5531" x2="9.75599" y2="16.8487" gradientUnits="userSpaceOnUse">
<stop stop-color="#40A6F9"/>
<stop offset="1" stop-color="#2BE8FA" stop-opacity="0"/>
</linearGradient>
<linearGradient id="paint4_linear" x1="14.5002" y1="10.9843" x2="-1.05281" y2="29.7573" gradientUnits="userSpaceOnUse">
<stop stop-color="#2BE8FA"/>
<stop offset="0.1481" stop-color="#2CE5FA"/>
<stop offset="0.2714" stop-color="#30DAFA"/>
<stop offset="0.3857" stop-color="#36C9F9"/>
<stop offset="0.494" stop-color="#3FB1F9"/>
<stop offset="0.5088" stop-color="#40ADF9"/>
<stop offset="1" stop-color="#477EF7"/>
</linearGradient>
<linearGradient id="paint5_linear" x1="4.17617" y1="25.0061" x2="11.3546" y2="14.5251" gradientUnits="userSpaceOnUse">
<stop stop-color="#42A1F8"/>
<stop offset="0.1361" stop-color="#40A8F8"/>
<stop offset="0.3391" stop-color="#39BDF9"/>
<stop offset="0.583" stop-color="#2EDEFA"/>
<stop offset="0.5851" stop-color="#2EDEFA"/>
<stop offset="1" stop-color="#2BE8FA" stop-opacity="0"/>
</linearGradient>
<linearGradient id="paint6_linear" x1="0.823316" y1="17.6088" x2="19.5" y2="17.6088" gradientUnits="userSpaceOnUse">
<stop stop-color="#2BE8FA"/>
<stop offset="0.1481" stop-color="#2CE5FA" stop-opacity="0.8835"/>
<stop offset="0.2714" stop-color="#30DAFA" stop-opacity="0.7867"/>
<stop offset="0.3857" stop-color="#36C9F9" stop-opacity="0.6968"/>
<stop offset="0.494" stop-color="#3FB1F9" stop-opacity="0.6116"/>
<stop offset="0.5088" stop-color="#40ADF9" stop-opacity="0.6"/>
<stop offset="1" stop-color="#477EF7" stop-opacity="0"/>
</linearGradient>
<linearGradient id="paint7_linear" x1="33.8234" y1="16.2292" x2="25.2831" y2="33.6746" gradientUnits="userSpaceOnUse">
<stop stop-color="#2BE8FA"/>
<stop offset="0.1481" stop-color="#2CE5FA"/>
<stop offset="0.2714" stop-color="#30DAFA"/>
<stop offset="0.3857" stop-color="#36C9F9"/>
<stop offset="0.494" stop-color="#3FB1F9"/>
<stop offset="0.5088" stop-color="#40ADF9"/>
<stop offset="1" stop-color="#477EF7"/>
</linearGradient>
<linearGradient id="paint8_linear" x1="27.7789" y1="21.7898" x2="30.8921" y2="32.0615" gradientUnits="userSpaceOnUse">
<stop stop-color="white"/>
<stop offset="0.9207" stop-color="white" stop-opacity="0.0792859"/>
<stop offset="1" stop-color="white" stop-opacity="0"/>
</linearGradient>
<linearGradient id="paint9_linear" x1="27.7274" y1="22.1498" x2="31.1742" y2="33.5219" gradientUnits="userSpaceOnUse">
<stop stop-color="#42A1F8"/>
<stop offset="1" stop-color="white" stop-opacity="0"/>
</linearGradient>
<linearGradient id="paint10_linear" x1="26.4113" y1="25.832" x2="29.9969" y2="27.4976" gradientUnits="userSpaceOnUse">
<stop stop-color="#40A6F9"/>
<stop offset="1" stop-color="#2BE8FA" stop-opacity="0"/>
</linearGradient>
<linearGradient id="paint11_linear" x1="34.3912" y1="29.2562" x2="20.2936" y2="23.3166" gradientUnits="userSpaceOnUse">
<stop stop-color="#2BE8FA"/>
<stop offset="0.1481" stop-color="#2CE5FA"/>
<stop offset="0.2714" stop-color="#30DAFA"/>
<stop offset="0.3857" stop-color="#36C9F9"/>
<stop offset="0.494" stop-color="#3FB1F9"/>
<stop offset="0.5088" stop-color="#40ADF9"/>
<stop offset="1" stop-color="#477EF7"/>
</linearGradient>
<linearGradient id="paint12_linear" x1="24.0829" y1="25.6306" x2="31.6835" y2="28.042" gradientUnits="userSpaceOnUse">
<stop stop-color="#42A1F8"/>
<stop offset="0.1361" stop-color="#40A8F8"/>
<stop offset="0.3391" stop-color="#39BDF9"/>
<stop offset="0.583" stop-color="#2EDEFA"/>
<stop offset="0.5851" stop-color="#2EDEFA"/>
<stop offset="1" stop-color="#2BE8FA" stop-opacity="0"/>
</linearGradient>
<linearGradient id="paint13_linear" x1="27.9174" y1="22.2761" x2="31.3074" y2="33.4606" gradientUnits="userSpaceOnUse">
<stop stop-color="#2BE8FA"/>
<stop offset="0.1481" stop-color="#2CE5FA" stop-opacity="0.8835"/>
<stop offset="0.2714" stop-color="#30DAFA" stop-opacity="0.7867"/>
<stop offset="0.3857" stop-color="#36C9F9" stop-opacity="0.6968"/>
<stop offset="0.494" stop-color="#3FB1F9" stop-opacity="0.6116"/>
<stop offset="0.5088" stop-color="#40ADF9" stop-opacity="0.6"/>
<stop offset="1" stop-color="#477EF7" stop-opacity="0"/>
</linearGradient>
<linearGradient id="paint14_linear" x1="24.5551" y1="9.78925" x2="24.2448" y2="21.3869" gradientUnits="userSpaceOnUse">
<stop stop-color="#2BE8FA"/>
<stop offset="0.1481" stop-color="#2CE5FA"/>
<stop offset="0.2714" stop-color="#30DAFA"/>
<stop offset="0.3857" stop-color="#36C9F9"/>
<stop offset="0.494" stop-color="#3FB1F9"/>
<stop offset="0.5088" stop-color="#40ADF9"/>
<stop offset="1" stop-color="#477EF7"/>
</linearGradient>
<linearGradient id="paint15_linear" x1="22.6573" y1="14.3115" x2="26.9043" y2="19.1236" gradientUnits="userSpaceOnUse">
<stop stop-color="white"/>
<stop offset="0.9207" stop-color="white" stop-opacity="0.0792859"/>
<stop offset="1" stop-color="white" stop-opacity="0"/>
</linearGradient>
<linearGradient id="paint16_linear" x1="22.7187" y1="14.519" x2="27.4207" y2="19.8466" gradientUnits="userSpaceOnUse">
<stop stop-color="#42A1F8"/>
<stop offset="1" stop-color="white" stop-opacity="0"/>
</linearGradient>
<linearGradient id="paint17_linear" x1="22.9204" y1="16.846" x2="25.2836" y2="16.8574" gradientUnits="userSpaceOnUse">
<stop stop-color="#40A6F9"/>
<stop offset="1" stop-color="#2BE8FA" stop-opacity="0"/>
</linearGradient>
<linearGradient id="paint18_linear" x1="28.1102" y1="16.726" x2="18.9709" y2="17.0123" gradientUnits="userSpaceOnUse">
<stop stop-color="#2BE8FA"/>
<stop offset="0.1481" stop-color="#2CE5FA"/>
<stop offset="0.2714" stop-color="#30DAFA"/>
<stop offset="0.3857" stop-color="#36C9F9"/>
<stop offset="0.494" stop-color="#3FB1F9"/>
<stop offset="0.5088" stop-color="#40ADF9"/>
<stop offset="1" stop-color="#477EF7"/>
</linearGradient>
<linearGradient id="paint19_linear" x1="21.6059" y1="17.3146" x2="26.3354" y2="16.7305" gradientUnits="userSpaceOnUse">
<stop stop-color="#42A1F8"/>
<stop offset="0.1361" stop-color="#40A8F8"/>
<stop offset="0.3391" stop-color="#39BDF9"/>
<stop offset="0.583" stop-color="#2EDEFA"/>
<stop offset="0.5851" stop-color="#2EDEFA"/>
<stop offset="1" stop-color="#2BE8FA" stop-opacity="0"/>
</linearGradient>
<linearGradient id="paint20_linear" x1="22.8538" y1="14.54" x2="27.4781" y2="19.7796" gradientUnits="userSpaceOnUse">
<stop stop-color="#2BE8FA"/>
<stop offset="0.1481" stop-color="#2CE5FA" stop-opacity="0.8835"/>
<stop offset="0.2714" stop-color="#30DAFA" stop-opacity="0.7867"/>
<stop offset="0.3857" stop-color="#36C9F9" stop-opacity="0.6968"/>
<stop offset="0.494" stop-color="#3FB1F9" stop-opacity="0.6116"/>
<stop offset="0.5088" stop-color="#40ADF9" stop-opacity="0.6"/>
<stop offset="1" stop-color="#477EF7" stop-opacity="0"/>
</linearGradient>
</defs>
</svg>
