<svg width="26" height="26" viewBox="0 0 26 26" fill="none" xmlns="http://www.w3.org/2000/svg">
<path d="M22 14.0745C22 15.602 21.6114 17.064 20.9119 18.3406C20.8564 18.4388 20.8009 18.537 20.7454 18.6352C20.168 19.6062 19.4242 20.4682 18.5359 21.1556C17.0482 22.323 15.1829 23.0213 13.1511 22.9995C13.14 22.9995 13.1289 22.9995 13.1178 22.9995C13.0512 22.9995 12.9845 22.9995 12.9068 22.9995C12.8069 22.9995 12.707 22.9886 12.607 22.9886C12.5071 22.9886 12.3961 22.9777 12.2962 22.9668C12.2296 22.9668 12.1629 22.9559 12.0852 22.9449C7.61079 22.5085 5.06826 19.879 4.25775 16.6821C3.18078 12.4597 5.69001 9.06641 7.87726 7.06973C10.0423 5.09487 12.4405 3 12.4405 3C12.4405 3 16.9038 5.95683 16.3709 12.1323C16.4264 12.1978 16.3487 12.1433 16.5929 12.1323C16.8927 12.1214 17.2591 12.056 17.6477 11.8596C19.3242 11.0631 20.2347 8.80455 20.2347 8.80455C21.356 10.2884 22 12.1105 22 14.0745Z" stroke="#959CAB" stroke-width="2"/>
</svg>
