<svg width="375" height="238" viewBox="0 0 375 238" fill="none" xmlns="http://www.w3.org/2000/svg">
<g filter="url(#filter0_d)">
<path d="M12 33.8C12 29.3196 12 27.0794 12.8719 25.3681C13.6389 23.8628 14.8628 22.6389 16.3681 21.8719C18.0794 21 20.3196 21 24.8 21H350.2C354.68 21 356.921 21 358.632 21.8719C360.137 22.6389 361.361 23.8628 362.128 25.3681C363 27.0794 363 29.3196 363 33.8V164.2C363 168.68 363 170.921 362.128 172.632C361.361 174.137 360.137 175.361 358.632 176.128C356.921 177 354.68 177 350.2 177H24.8C20.3196 177 18.0794 177 16.3681 176.128C14.8628 175.361 13.6389 174.137 12.8719 172.632C12 170.921 12 168.68 12 164.2V33.8Z" fill="#2D3036"/>
</g>
<defs>
<filter id="filter0_d" x="-29" y="0" width="433" height="238" filterUnits="userSpaceOnUse" color-interpolation-filters="sRGB">
<feFlood flood-opacity="0" result="BackgroundImageFix"/>
<feColorMatrix in="SourceAlpha" type="matrix" values="0 0 0 0 0 0 0 0 0 0 0 0 0 0 0 0 0 0 127 0"/>
<feOffset dy="20"/>
<feGaussianBlur stdDeviation="20.5"/>
<feColorMatrix type="matrix" values="0 0 0 0 0.25 0 0 0 0 0.25 0 0 0 0 0.25 0 0 0 0.17 0"/>
<feBlend mode="normal" in2="BackgroundImageFix" result="effect1_dropShadow"/>
<feBlend mode="normal" in="SourceGraphic" in2="effect1_dropShadow" result="shape"/>
</filter>
</defs>
</svg>
