<svg width="78" height="48" viewBox="0 0 78 48" fill="none" xmlns="http://www.w3.org/2000/svg">
<g filter="url(#filter0_dd)">
<rect x="8" y="8" width="62" height="32" rx="16" fill="#3A3F47"/>
<path d="M18.35 27.12C17.93 27.12 17.5833 27.05 17.31 26.91C17.0367 26.77 16.8333 26.5867 16.7 26.36C16.5667 26.1267 16.5 25.8733 16.5 25.6C16.5 25.12 16.6867 24.74 17.06 24.46C17.4333 24.18 17.9667 24.04 18.66 24.04H19.96V23.95C19.96 23.5633 19.8533 23.2733 19.64 23.08C19.4333 22.8867 19.1633 22.79 18.83 22.79C18.5367 22.79 18.28 22.8633 18.06 23.01C17.8467 23.15 17.7167 23.36 17.67 23.64H16.61C16.6433 23.28 16.7633 22.9733 16.97 22.72C17.1833 22.46 17.45 22.2633 17.77 22.13C18.0967 21.99 18.4533 21.92 18.84 21.92C19.5333 21.92 20.07 22.1033 20.45 22.47C20.83 22.83 21.02 23.3233 21.02 23.95V27H20.1L20.01 26.15C19.87 26.4233 19.6667 26.6533 19.4 26.84C19.1333 27.0267 18.7833 27.12 18.35 27.12ZM18.56 26.26C18.8467 26.26 19.0867 26.1933 19.28 26.06C19.48 25.92 19.6333 25.7367 19.74 25.51C19.8533 25.2833 19.9233 25.0333 19.95 24.76H18.77C18.35 24.76 18.05 24.8333 17.87 24.98C17.6967 25.1267 17.61 25.31 17.61 25.53C17.61 25.7567 17.6933 25.9367 17.86 26.07C18.0333 26.1967 18.2667 26.26 18.56 26.26ZM22.2559 29.2V22.04H23.2059L23.3159 22.81C23.4759 22.5767 23.6959 22.37 23.9759 22.19C24.2559 22.01 24.6159 21.92 25.0559 21.92C25.5359 21.92 25.9593 22.0333 26.3259 22.26C26.6926 22.4867 26.9793 22.7967 27.1859 23.19C27.3993 23.5833 27.5059 24.03 27.5059 24.53C27.5059 25.03 27.3993 25.4767 27.1859 25.87C26.9793 26.2567 26.6926 26.5633 26.3259 26.79C25.9593 27.01 25.5326 27.12 25.0459 27.12C24.6593 27.12 24.3159 27.0433 24.0159 26.89C23.7226 26.7367 23.4893 26.52 23.3159 26.24V29.2H22.2559ZM24.8659 26.2C25.3193 26.2 25.6926 26.0467 25.9859 25.74C26.2793 25.4267 26.4259 25.02 26.4259 24.52C26.4259 24.1933 26.3593 23.9033 26.2259 23.65C26.0926 23.3967 25.9093 23.2 25.6759 23.06C25.4426 22.9133 25.1726 22.84 24.8659 22.84C24.4126 22.84 24.0393 22.9967 23.7459 23.31C23.4593 23.6233 23.3159 24.0267 23.3159 24.52C23.3159 25.02 23.4593 25.4267 23.7459 25.74C24.0393 26.0467 24.4126 26.2 24.8659 26.2ZM28.6524 29.2V22.04H29.6024L29.7124 22.81C29.8724 22.5767 30.0924 22.37 30.3724 22.19C30.6524 22.01 31.0124 21.92 31.4524 21.92C31.9324 21.92 32.3558 22.0333 32.7224 22.26C33.0891 22.4867 33.3758 22.7967 33.5824 23.19C33.7958 23.5833 33.9024 24.03 33.9024 24.53C33.9024 25.03 33.7958 25.4767 33.5824 25.87C33.3758 26.2567 33.0891 26.5633 32.7224 26.79C32.3558 27.01 31.9291 27.12 31.4424 27.12C31.0558 27.12 30.7124 27.0433 30.4124 26.89C30.1191 26.7367 29.8858 26.52 29.7124 26.24V29.2H28.6524ZM31.2624 26.2C31.7158 26.2 32.0891 26.0467 32.3824 25.74C32.6758 25.4267 32.8224 25.02 32.8224 24.52C32.8224 24.1933 32.7558 23.9033 32.6224 23.65C32.4891 23.3967 32.3058 23.2 32.0724 23.06C31.8391 22.9133 31.5691 22.84 31.2624 22.84C30.8091 22.84 30.4358 22.9967 30.1424 23.31C29.8558 23.6233 29.7124 24.0267 29.7124 24.52C29.7124 25.02 29.8558 25.4267 30.1424 25.74C30.4358 26.0467 30.8091 26.2 31.2624 26.2ZM39.5484 27.12C38.9218 27.12 38.4051 26.9667 37.9984 26.66C37.5918 26.3533 37.3584 25.9467 37.2984 25.44H38.3684C38.4218 25.6667 38.5484 25.8633 38.7484 26.03C38.9484 26.19 39.2118 26.27 39.5384 26.27C39.8584 26.27 40.0918 26.2033 40.2384 26.07C40.3851 25.9367 40.4584 25.7833 40.4584 25.61C40.4584 25.3567 40.3551 25.1867 40.1484 25.1C39.9484 25.0067 39.6684 24.9233 39.3084 24.85C39.0284 24.79 38.7484 24.71 38.4684 24.61C38.1951 24.51 37.9651 24.37 37.7784 24.19C37.5984 24.0033 37.5084 23.7533 37.5084 23.44C37.5084 23.0067 37.6751 22.6467 38.0084 22.36C38.3418 22.0667 38.8084 21.92 39.4084 21.92C39.9618 21.92 40.4084 22.0533 40.7484 22.32C41.0951 22.5867 41.2984 22.9633 41.3584 23.45H40.3384C40.3051 23.2367 40.2051 23.07 40.0384 22.95C39.8784 22.83 39.6618 22.77 39.3884 22.77C39.1218 22.77 38.9151 22.8267 38.7684 22.94C38.6218 23.0467 38.5484 23.1867 38.5484 23.36C38.5484 23.5333 38.6484 23.67 38.8484 23.77C39.0551 23.87 39.3251 23.96 39.6584 24.04C39.9918 24.1133 40.2984 24.2 40.5784 24.3C40.8651 24.3933 41.0951 24.5333 41.2684 24.72C41.4418 24.9067 41.5284 25.18 41.5284 25.54C41.5351 25.9933 41.3584 26.37 40.9984 26.67C40.6451 26.97 40.1618 27.12 39.5484 27.12ZM44.5801 27C44.0934 27 43.7067 26.8833 43.4201 26.65C43.1334 26.41 42.9901 25.9867 42.9901 25.38V22.93H42.1401V22.04H42.9901L43.1201 20.78H44.0501V22.04H45.4501V22.93H44.0501V25.38C44.0501 25.6533 44.1067 25.8433 44.2201 25.95C44.3401 26.05 44.5434 26.1 44.8301 26.1H45.4001V27H44.5801ZM48.7361 27.12C48.2628 27.12 47.8361 27.0133 47.4561 26.8C47.0828 26.58 46.7861 26.2767 46.5661 25.89C46.3461 25.4967 46.2361 25.04 46.2361 24.52C46.2361 24 46.3461 23.5467 46.5661 23.16C46.7928 22.7667 47.0961 22.4633 47.4761 22.25C47.8561 22.03 48.2794 21.92 48.7461 21.92C49.2194 21.92 49.6428 22.03 50.0161 22.25C50.3961 22.4633 50.6961 22.7667 50.9161 23.16C51.1428 23.5467 51.2561 24 51.2561 24.52C51.2561 25.04 51.1428 25.4967 50.9161 25.89C50.6961 26.2767 50.3961 26.58 50.0161 26.8C49.6361 27.0133 49.2094 27.12 48.7361 27.12ZM48.7361 26.21C48.9894 26.21 49.2228 26.1467 49.4361 26.02C49.6561 25.8933 49.8328 25.7067 49.9661 25.46C50.0994 25.2067 50.1661 24.8933 50.1661 24.52C50.1661 24.1467 50.0994 23.8367 49.9661 23.59C49.8394 23.3367 49.6661 23.1467 49.4461 23.02C49.2328 22.8933 48.9994 22.83 48.7461 22.83C48.4928 22.83 48.2561 22.8933 48.0361 23.02C47.8228 23.1467 47.6494 23.3367 47.5161 23.59C47.3828 23.8367 47.3161 24.1467 47.3161 24.52C47.3161 24.8933 47.3828 25.2067 47.5161 25.46C47.6494 25.7067 47.8228 25.8933 48.0361 26.02C48.2494 26.1467 48.4828 26.21 48.7361 26.21ZM52.4024 27V22.04H53.3524L53.4424 22.98C53.6158 22.6533 53.8558 22.3967 54.1624 22.21C54.4758 22.0167 54.8524 21.92 55.2924 21.92V23.03H55.0024C54.7091 23.03 54.4458 23.08 54.2124 23.18C53.9858 23.2733 53.8024 23.4367 53.6624 23.67C53.5291 23.8967 53.4624 24.2133 53.4624 24.62V27H52.4024ZM58.3845 27.12C57.8979 27.12 57.4645 27.0133 57.0845 26.8C56.7112 26.58 56.4179 26.2767 56.2045 25.89C55.9912 25.5033 55.8845 25.0533 55.8845 24.54C55.8845 24.02 55.9879 23.5633 56.1945 23.17C56.4079 22.7767 56.7012 22.47 57.0745 22.25C57.4545 22.03 57.8945 21.92 58.3945 21.92C58.8812 21.92 59.3045 22.03 59.6645 22.25C60.0245 22.4633 60.3045 22.75 60.5045 23.11C60.7045 23.47 60.8045 23.8667 60.8045 24.3C60.8045 24.3667 60.8012 24.44 60.7945 24.52C60.7945 24.5933 60.7912 24.6767 60.7845 24.77H56.9245C56.9579 25.25 57.1145 25.6167 57.3945 25.87C57.6812 26.1167 58.0112 26.24 58.3845 26.24C58.6845 26.24 58.9345 26.1733 59.1345 26.04C59.3412 25.9 59.4945 25.7133 59.5945 25.48H60.6545C60.5212 25.9467 60.2545 26.3367 59.8545 26.65C59.4612 26.9633 58.9712 27.12 58.3845 27.12ZM58.3845 22.79C58.0312 22.79 57.7179 22.8967 57.4445 23.11C57.1712 23.3167 57.0045 23.63 56.9445 24.05H59.7445C59.7245 23.6633 59.5879 23.3567 59.3345 23.13C59.0812 22.9033 58.7645 22.79 58.3845 22.79Z" fill="white"/>
</g>
<defs>
<filter id="filter0_dd" x="0" y="0" width="78" height="48" filterUnits="userSpaceOnUse" color-interpolation-filters="sRGB">
<feFlood flood-opacity="0" result="BackgroundImageFix"/>
<feColorMatrix in="SourceAlpha" type="matrix" values="0 0 0 0 0 0 0 0 0 0 0 0 0 0 0 0 0 0 127 0"/>
<feOffset dx="-4" dy="-4"/>
<feGaussianBlur stdDeviation="2"/>
<feColorMatrix type="matrix" values="0 0 0 0 0.0957118 0 0 0 0 0.101557 0 0 0 0 0.154167 0 0 0 0.05 0"/>
<feBlend mode="normal" in2="BackgroundImageFix" result="effect1_dropShadow"/>
<feColorMatrix in="SourceAlpha" type="matrix" values="0 0 0 0 0 0 0 0 0 0 0 0 0 0 0 0 0 0 127 0"/>
<feOffset dx="4" dy="4"/>
<feGaussianBlur stdDeviation="2"/>
<feColorMatrix type="matrix" values="0 0 0 0 0.0941176 0 0 0 0 0.101961 0 0 0 0 0.152941 0 0 0 0.03 0"/>
<feBlend mode="normal" in2="effect1_dropShadow" result="effect2_dropShadow"/>
<feBlend mode="normal" in="SourceGraphic" in2="effect2_dropShadow" result="shape"/>
</filter>
</defs>
</svg>
