<svg id="Layer_1" data-name="Layer 1" xmlns="http://www.w3.org/2000/svg" xmlns:xlink="http://www.w3.org/1999/xlink" viewBox="0 0 66 66"><defs><style>.cls-1{fill:#525252;fill-opacity:0.3;}.cls-2{fill:url(#linear-gradient);}</style><linearGradient id="linear-gradient" x1="500.11" y1="341.93" x2="500.11" y2="370.93" gradientTransform="matrix(1, 0, 0, -1, 0, 702)" gradientUnits="userSpaceOnUse"><stop offset="0" stop-color="#76fdff"/><stop offset="0.45" stop-color="#b6ccff"/><stop offset="0.93" stop-color="#ff95ff"/></linearGradient></defs><title>like animation button</title><path className="cls-1" d="M500.11,317.07h0a33,33,0,0,1,33,33h0a33,33,0,0,1-33,33h0a33,33,0,0,1-33-33h0A33,33,0,0,1,500.11,317.07Z" transform="translate(-467.11 -317.07)"/><path className="cls-2" d="M500.14,331.07l-20,29h40Zm-4.69,16.65,4.69-6.78c3.13,4.54,6.26,9,9.38,13.56H490.7C492.26,352.26,493.88,350,495.45,347.72Z" transform="translate(-467.11 -317.07)"/></svg>