<svg width="219" height="32" viewBox="0 0 219 32" fill="none" xmlns="http://www.w3.org/2000/svg">
<g filter="url(#filter0_b)">
<rect width="219" height="32" rx="8" fill="white" fill-opacity="0.3"/>
<path d="M19.51 19.12C18.8767 19.12 18.33 18.97 17.87 18.67C17.4167 18.3633 17.0667 17.94 16.82 17.4C16.58 16.8533 16.46 16.22 16.46 15.5C16.46 14.78 16.58 14.15 16.82 13.61C17.0667 13.0633 17.4167 12.64 17.87 12.34C18.33 12.0333 18.8767 11.88 19.51 11.88C20.1433 11.88 20.6867 12.0333 21.14 12.34C21.5933 12.64 21.94 13.0633 22.18 13.61C22.4267 14.15 22.55 14.78 22.55 15.5C22.55 16.22 22.4267 16.8533 22.18 17.4C21.94 17.94 21.5933 18.3633 21.14 18.67C20.6867 18.97 20.1433 19.12 19.51 19.12ZM19.51 18.17C19.89 18.17 20.2267 18.0633 20.52 17.85C20.82 17.6367 21.0533 17.33 21.22 16.93C21.3867 16.53 21.47 16.0533 21.47 15.5C21.47 14.9467 21.3867 14.47 21.22 14.07C21.0533 13.67 20.82 13.3633 20.52 13.15C20.2267 12.9367 19.89 12.83 19.51 12.83C19.1233 12.83 18.7833 12.9367 18.49 13.15C18.1967 13.3633 17.9667 13.67 17.8 14.07C17.6333 14.47 17.55 14.9467 17.55 15.5C17.55 16.0533 17.6333 16.53 17.8 16.93C17.9667 17.33 18.1967 17.6367 18.49 17.85C18.7833 18.0633 19.1233 18.17 19.51 18.17ZM26.5315 19.12C25.8982 19.12 25.3515 18.97 24.8915 18.67C24.4382 18.3633 24.0882 17.94 23.8415 17.4C23.6015 16.8533 23.4815 16.22 23.4815 15.5C23.4815 14.78 23.6015 14.15 23.8415 13.61C24.0882 13.0633 24.4382 12.64 24.8915 12.34C25.3515 12.0333 25.8982 11.88 26.5315 11.88C27.1648 11.88 27.7082 12.0333 28.1615 12.34C28.6148 12.64 28.9615 13.0633 29.2015 13.61C29.4482 14.15 29.5715 14.78 29.5715 15.5C29.5715 16.22 29.4482 16.8533 29.2015 17.4C28.9615 17.94 28.6148 18.3633 28.1615 18.67C27.7082 18.97 27.1648 19.12 26.5315 19.12ZM26.5315 18.17C26.9115 18.17 27.2482 18.0633 27.5415 17.85C27.8415 17.6367 28.0748 17.33 28.2415 16.93C28.4082 16.53 28.4915 16.0533 28.4915 15.5C28.4915 14.9467 28.4082 14.47 28.2415 14.07C28.0748 13.67 27.8415 13.3633 27.5415 13.15C27.2482 12.9367 26.9115 12.83 26.5315 12.83C26.1448 12.83 25.8048 12.9367 25.5115 13.15C25.2182 13.3633 24.9882 13.67 24.8215 14.07C24.6548 14.47 24.5715 14.9467 24.5715 15.5C24.5715 16.0533 24.6548 16.53 24.8215 16.93C24.9882 17.33 25.2182 17.6367 25.5115 17.85C25.8048 18.0633 26.1448 18.17 26.5315 18.17ZM31.133 19.06C30.933 19.06 30.7663 18.9967 30.633 18.87C30.5063 18.7367 30.443 18.58 30.443 18.4C30.443 18.2133 30.5063 18.0567 30.633 17.93C30.7663 17.7967 30.933 17.73 31.133 17.73C31.333 17.73 31.4963 17.7967 31.623 17.93C31.7496 18.0567 31.813 18.2133 31.813 18.4C31.813 18.58 31.7496 18.7367 31.623 18.87C31.4963 18.9967 31.333 19.06 31.133 19.06ZM31.133 15.25C30.933 15.25 30.7663 15.1867 30.633 15.06C30.5063 14.9267 30.443 14.77 30.443 14.59C30.443 14.4033 30.5063 14.2467 30.633 14.12C30.7663 13.9867 30.933 13.92 31.133 13.92C31.333 13.92 31.4963 13.9867 31.623 14.12C31.7496 14.2467 31.813 14.4033 31.813 14.59C31.813 14.77 31.7496 14.9267 31.623 15.06C31.4963 15.1867 31.333 15.25 31.133 15.25ZM33.6702 19V13.2L32.5402 13.46V12.68L34.0902 12H34.7702V19H33.6702ZM38.6324 19.12C38.1391 19.12 37.7124 19.0333 37.3524 18.86C36.9924 18.68 36.7058 18.4367 36.4924 18.13C36.2858 17.8167 36.1591 17.4633 36.1124 17.07H37.1524C37.2191 17.4033 37.3858 17.68 37.6524 17.9C37.9191 18.1133 38.2491 18.22 38.6424 18.22C38.9358 18.22 39.1891 18.15 39.4024 18.01C39.6158 17.8633 39.7824 17.67 39.9024 17.43C40.0224 17.19 40.0824 16.92 40.0824 16.62C40.0824 16.1467 39.9491 15.77 39.6824 15.49C39.4158 15.2033 39.0791 15.06 38.6724 15.06C38.3258 15.06 38.0291 15.1433 37.7824 15.31C37.5358 15.47 37.3558 15.6733 37.2424 15.92H36.2324L36.8324 12H40.6124V12.93H37.6324L37.2724 14.8C37.4258 14.6267 37.6358 14.4833 37.9024 14.37C38.1758 14.25 38.4824 14.19 38.8224 14.19C39.2958 14.19 39.7024 14.3 40.0424 14.52C40.3824 14.7333 40.6424 15.0233 40.8224 15.39C41.0091 15.7567 41.1024 16.1633 41.1024 16.61C41.1024 17.0767 41.0024 17.5 40.8024 17.88C40.6024 18.26 40.3158 18.5633 39.9424 18.79C39.5758 19.01 39.1391 19.12 38.6324 19.12ZM44.4241 20.03L46.9241 11.29H47.9641L45.4541 20.03H44.4241ZM52.1761 19V13.2L51.0461 13.46V12.68L52.5961 12H53.2761V19H52.1761ZM56.9383 19.12C56.4849 19.12 56.0716 19.04 55.6983 18.88C55.3316 18.7133 55.0383 18.4633 54.8183 18.13C54.5983 17.7967 54.4816 17.38 54.4683 16.88H55.5183C55.5316 17.2533 55.6583 17.57 55.8983 17.83C56.1449 18.0833 56.4916 18.21 56.9383 18.21C57.3649 18.21 57.6916 18.0933 57.9183 17.86C58.1449 17.62 58.2583 17.3233 58.2583 16.97C58.2583 16.5433 58.1049 16.2267 57.7983 16.02C57.4983 15.8133 57.1283 15.71 56.6883 15.71H56.1683V14.83H56.6983C57.0916 14.83 57.4083 14.7367 57.6483 14.55C57.8949 14.3633 58.0183 14.1 58.0183 13.76C58.0183 13.4733 57.9216 13.24 57.7283 13.06C57.5416 12.88 57.2749 12.79 56.9283 12.79C56.5683 12.79 56.2849 12.8967 56.0783 13.11C55.8716 13.3167 55.7583 13.5767 55.7383 13.89H54.6883C54.7016 13.4833 54.8016 13.13 54.9883 12.83C55.1816 12.53 55.4449 12.2967 55.7783 12.13C56.1116 11.9633 56.4949 11.88 56.9283 11.88C57.3949 11.88 57.7849 11.9633 58.0983 12.13C58.4183 12.29 58.6583 12.51 58.8183 12.79C58.9849 13.0633 59.0683 13.3633 59.0683 13.69C59.0683 14.0633 58.9649 14.39 58.7583 14.67C58.5516 14.95 58.2749 15.1367 57.9283 15.23C58.3283 15.3167 58.6583 15.5133 58.9183 15.82C59.1783 16.12 59.3083 16.51 59.3083 16.99C59.3083 17.3767 59.2183 17.7333 59.0383 18.06C58.8583 18.38 58.5916 18.6367 58.2383 18.83C57.8849 19.0233 57.4516 19.12 56.9383 19.12ZM60.9963 19.06C60.7963 19.06 60.6296 18.9967 60.4963 18.87C60.3696 18.7367 60.3063 18.58 60.3063 18.4C60.3063 18.2133 60.3696 18.0567 60.4963 17.93C60.6296 17.7967 60.7963 17.73 60.9963 17.73C61.1963 17.73 61.3596 17.7967 61.4863 17.93C61.6129 18.0567 61.6763 18.2133 61.6763 18.4C61.6763 18.58 61.6129 18.7367 61.4863 18.87C61.3596 18.9967 61.1963 19.06 60.9963 19.06ZM60.9963 15.25C60.7963 15.25 60.6296 15.1867 60.4963 15.06C60.3696 14.9267 60.3063 14.77 60.3063 14.59C60.3063 14.4033 60.3696 14.2467 60.4963 14.12C60.6296 13.9867 60.7963 13.92 60.9963 13.92C61.1963 13.92 61.3596 13.9867 61.4863 14.12C61.6129 14.2467 61.6763 14.4033 61.6763 14.59C61.6763 14.77 61.6129 14.9267 61.4863 15.06C61.3596 15.1867 61.1963 15.25 60.9963 15.25ZM62.6735 19V18.24C63.1268 17.88 63.5602 17.5167 63.9735 17.15C64.3868 16.7833 64.7535 16.4233 65.0735 16.07C65.4002 15.71 65.6568 15.36 65.8435 15.02C66.0302 14.6733 66.1235 14.34 66.1235 14.02C66.1235 13.8067 66.0868 13.6067 66.0135 13.42C65.9402 13.2267 65.8202 13.0733 65.6535 12.96C65.4868 12.84 65.2635 12.78 64.9835 12.78C64.5635 12.78 64.2468 12.9133 64.0335 13.18C63.8268 13.4467 63.7268 13.7667 63.7335 14.14H62.7035C62.7102 13.6467 62.8135 13.2333 63.0135 12.9C63.2202 12.5667 63.4935 12.3133 63.8335 12.14C64.1802 11.9667 64.5702 11.88 65.0035 11.88C65.6635 11.88 66.1902 12.0667 66.5835 12.44C66.9835 12.8067 67.1835 13.32 67.1835 13.98C67.1835 14.3733 67.0868 14.7633 66.8935 15.15C66.7068 15.5367 66.4602 15.91 66.1535 16.27C65.8535 16.6233 65.5302 16.9567 65.1835 17.27C64.8368 17.5833 64.5068 17.8667 64.1935 18.12H67.3935V19H62.6735ZM71.5992 19V17.6H68.0892V16.76L71.4292 12H72.6492V16.68H73.6292V17.6H72.6492V19H71.5992ZM69.2392 16.68H71.6592V13.17L69.2392 16.68Z" fill="white"/>
<g filter="url(#filter1_b)">
<rect x="83" y="15" width="120" height="2" rx="1" fill="white" fill-opacity="0.3"/>
</g>
<rect x="83" y="15" width="13" height="2" rx="1" fill="white"/>
<circle cx="96" cy="16" r="4" fill="white"/>
</g>
<defs>
<filter id="filter0_b" x="-20" y="-20" width="259" height="72" filterUnits="userSpaceOnUse" color-interpolation-filters="sRGB">
<feFlood flood-opacity="0" result="BackgroundImageFix"/>
<feGaussianBlur in="BackgroundImage" stdDeviation="10"/>
<feComposite in2="SourceAlpha" operator="in" result="effect1_backgroundBlur"/>
<feBlend mode="normal" in="SourceGraphic" in2="effect1_backgroundBlur" result="shape"/>
</filter>
<filter id="filter1_b" x="63" y="-5" width="160" height="42" filterUnits="userSpaceOnUse" color-interpolation-filters="sRGB">
<feFlood flood-opacity="0" result="BackgroundImageFix"/>
<feGaussianBlur in="BackgroundImage" stdDeviation="10"/>
<feComposite in2="SourceAlpha" operator="in" result="effect1_backgroundBlur"/>
<feBlend mode="normal" in="SourceGraphic" in2="effect1_backgroundBlur" result="shape"/>
</filter>
</defs>
</svg>
