<svg width="66" height="66" viewBox="0 0 66 66" fill="none" xmlns="http://www.w3.org/2000/svg">
<g filter="url(#filter0_b)">
<rect width="66" height="66" rx="33" fill="white" fill-opacity="0.3"/>
</g>
<path d="M36.9756 37.1613L36.9756 37.1613C37.1879 37.4458 37.1294 37.8487 36.8448 38.0611L36.8448 38.061L36.8402 38.0645C34.5732 39.7973 31.4265 39.7973 29.1595 38.0645L29.1595 38.0645L29.1549 38.061C29.1423 38.0516 29.1305 38.0422 29.1196 38.0327L29.119 38.0322C28.8504 37.8 28.8208 37.3941 29.053 37.1255L29.053 37.1255C29.2852 36.8569 29.6911 36.8273 29.9597 37.0595L29.9752 37.0729L29.9918 37.085C31.7836 38.3937 34.2161 38.3937 36.0079 37.085L36.0245 37.0729L36.0399 37.0595C36.0517 37.0493 36.0637 37.0397 36.0759 37.0306L36.0759 37.0306C36.3604 36.8182 36.7632 36.8768 36.9756 37.1613Z" fill="white"/>
<path d="M36.9756 37.1613L36.9756 37.1613C37.1879 37.4458 37.1294 37.8487 36.8448 38.0611L36.8448 38.061L36.8402 38.0645C34.5732 39.7973 31.4265 39.7973 29.1595 38.0645L29.1595 38.0645L29.1549 38.061C29.1423 38.0516 29.1305 38.0422 29.1196 38.0327L29.119 38.0322C28.8504 37.8 28.8208 37.3941 29.053 37.1255L29.053 37.1255C29.2852 36.8569 29.6911 36.8273 29.9597 37.0595L29.9752 37.0729L29.9918 37.085C31.7836 38.3937 34.2161 38.3937 36.0079 37.085L36.0245 37.0729L36.0399 37.0595C36.0517 37.0493 36.0637 37.0397 36.0759 37.0306L36.0759 37.0306C36.3604 36.8182 36.7632 36.8768 36.9756 37.1613Z" fill="url(#paint0_linear)"/>
<path d="M36.9756 37.1613L36.9756 37.1613C37.1879 37.4458 37.1294 37.8487 36.8448 38.0611L36.8448 38.061L36.8402 38.0645C34.5732 39.7973 31.4265 39.7973 29.1595 38.0645L29.1595 38.0645L29.1549 38.061C29.1423 38.0516 29.1305 38.0422 29.1196 38.0327L29.119 38.0322C28.8504 37.8 28.8208 37.3941 29.053 37.1255L29.053 37.1255C29.2852 36.8569 29.6911 36.8273 29.9597 37.0595L29.9752 37.0729L29.9918 37.085C31.7836 38.3937 34.2161 38.3937 36.0079 37.085L36.0245 37.0729L36.0399 37.0595C36.0517 37.0493 36.0637 37.0397 36.0759 37.0306L36.0759 37.0306C36.3604 36.8182 36.7632 36.8768 36.9756 37.1613Z" stroke="white"/>
<path d="M38.7144 33C39.9768 33 41.0001 31.9766 41.0001 30.7143C41.0001 29.4519 39.9768 28.4286 38.7144 28.4286C37.4521 28.4286 36.4287 29.4519 36.4287 30.7143C36.4287 31.9766 37.4521 33 38.7144 33Z" fill="white"/>
<path d="M27.2857 33C28.5481 33 29.5714 31.9766 29.5714 30.7143C29.5714 29.4519 28.5481 28.4286 27.2857 28.4286C26.0233 28.4286 25 29.4519 25 30.7143C25 31.9766 26.0233 33 27.2857 33Z" fill="white"/>
<path d="M33 47.2143H33.0006C40.8472 47.2059 47.2059 40.8472 47.2143 33.0006V33C47.2143 25.1497 40.8504 18.7857 33 18.7857C25.1497 18.7857 18.7857 25.1497 18.7857 33C18.7857 40.8504 25.1497 47.2143 33 47.2143ZM17.5 33C17.5 24.4397 24.4395 17.5001 32.9998 17.5C41.5566 17.5093 48.491 24.4438 48.5 33.0006C48.4998 41.5607 41.5603 48.5 33 48.5C24.4396 48.5 17.5 41.5604 17.5 33Z" fill="white"/>
<path d="M33 47.2143H33.0006C40.8472 47.2059 47.2059 40.8472 47.2143 33.0006V33C47.2143 25.1497 40.8504 18.7857 33 18.7857C25.1497 18.7857 18.7857 25.1497 18.7857 33C18.7857 40.8504 25.1497 47.2143 33 47.2143ZM17.5 33C17.5 24.4397 24.4395 17.5001 32.9998 17.5C41.5566 17.5093 48.491 24.4438 48.5 33.0006C48.4998 41.5607 41.5603 48.5 33 48.5C24.4396 48.5 17.5 41.5604 17.5 33Z" fill="url(#paint1_linear)"/>
<path d="M33 47.2143H33.0006C40.8472 47.2059 47.2059 40.8472 47.2143 33.0006V33C47.2143 25.1497 40.8504 18.7857 33 18.7857C25.1497 18.7857 18.7857 25.1497 18.7857 33C18.7857 40.8504 25.1497 47.2143 33 47.2143ZM17.5 33C17.5 24.4397 24.4395 17.5001 32.9998 17.5C41.5566 17.5093 48.491 24.4438 48.5 33.0006C48.4998 41.5607 41.5603 48.5 33 48.5C24.4396 48.5 17.5 41.5604 17.5 33Z" stroke="white"/>
<defs>
<filter id="filter0_b" x="-20" y="-20" width="106" height="106" filterUnits="userSpaceOnUse" color-interpolation-filters="sRGB">
<feFlood flood-opacity="0" result="BackgroundImageFix"/>
<feGaussianBlur in="BackgroundImage" stdDeviation="10"/>
<feComposite in2="SourceAlpha" operator="in" result="effect1_backgroundBlur"/>
<feBlend mode="normal" in="SourceGraphic" in2="effect1_backgroundBlur" result="shape"/>
</filter>
<linearGradient id="paint0_linear" x1="37.6033" y1="39.8641" x2="28.8328" y2="36.2874" gradientUnits="userSpaceOnUse">
<stop stop-color="#17BB94" stop-opacity="0.12"/>
<stop offset="1" stop-color="white" stop-opacity="0"/>
</linearGradient>
<linearGradient id="paint1_linear" x1="49" y1="49" x2="14.2633" y2="43.6743" gradientUnits="userSpaceOnUse">
<stop stop-color="#17BB94" stop-opacity="0.12"/>
<stop offset="1" stop-color="white" stop-opacity="0"/>
</linearGradient>
</defs>
</svg>
