<?xml version="1.0" encoding="utf-8"?>
<!-- Generator: Adobe Illustrator 24.0.1, SVG Export Plug-In . SVG Version: 6.00 Build 0)  -->
<svg version="1.1" id="Layer_1" xmlns="http://www.w3.org/2000/svg" xmlns:xlink="http://www.w3.org/1999/xlink" x="0px" y="0px"
	 viewBox="0 0 57 57" style="enable-background:new 0 0 57 57;" xml:space="preserve">
<style type="text/css">
	.st0{fill:#FFFFFF;fill-opacity:0.3;}
	.st1{fill:#FFFFFF;}
</style>
<g>
	<circle className="st0" cx="28.5" cy="28.5" r="28.5"/>
</g>
<g>
	<path className="st1" d="M32.2,24.3c2.4,1.4,3.5,2,3.9,2.9c0.3,0.8,0.3,1.7,0,2.4c-0.4,0.9-1.6,1.6-3.9,2.9l-4.3,2.5
		c-2.4,1.4-3.5,2-4.5,1.9c-0.8-0.1-1.6-0.5-2.1-1.2c-0.6-0.8-0.6-2.2-0.6-4.9v-5c0-2.7,0-4.1,0.6-4.9c0.5-0.7,1.3-1.1,2.1-1.2
		c1-0.1,2.2,0.6,4.5,1.9L32.2,24.3z"/>
</g>
</svg>
