<svg width="32" height="32" viewBox="0 0 32 32" fill="none" xmlns="http://www.w3.org/2000/svg">
<g filter="url(#filter0_b)">
<circle cx="16" cy="16" r="16" fill="white" fill-opacity="0.3"/>
</g>
<path d="M17.9002 10.0425C17.7511 9.97136 17.5754 9.99022 17.4468 10.0939L13.2779 13.4289H11.2859C10.8137 13.4289 10.4288 13.8138 10.4288 14.286V17.7145C10.4288 18.1876 10.8137 18.5716 11.2859 18.5716H13.2779L17.446 21.9066C17.524 21.9683 17.6191 22 17.7142 22C17.7777 22 17.8411 21.9854 17.9002 21.9571C18.0485 21.886 18.1428 21.736 18.1428 21.5714V10.4291C18.1428 10.2645 18.0485 10.1145 17.9002 10.0425Z" fill="white"/>
<path d="M20.312 12.9695C20.1432 12.8032 19.8723 12.8058 19.706 12.9729C19.5398 13.1418 19.5415 13.4126 19.7095 13.5798C20.3574 14.2192 20.714 15.0789 20.714 16.0002C20.714 16.9216 20.3574 17.7813 19.7095 18.4207C19.5415 18.5861 19.5398 18.8578 19.706 19.0267C19.79 19.1115 19.9006 19.1535 20.0103 19.1535C20.1192 19.1535 20.228 19.1124 20.312 19.0293C21.1245 18.2296 21.5711 17.1531 21.5711 16.0002C21.5711 14.8474 21.1245 13.7709 20.312 12.9695Z" fill="white"/>
<defs>
<filter id="filter0_b" x="-20" y="-20" width="72" height="72" filterUnits="userSpaceOnUse" color-interpolation-filters="sRGB">
<feFlood flood-opacity="0" result="BackgroundImageFix"/>
<feGaussianBlur in="BackgroundImage" stdDeviation="10"/>
<feComposite in2="SourceAlpha" operator="in" result="effect1_backgroundBlur"/>
<feBlend mode="normal" in="SourceGraphic" in2="effect1_backgroundBlur" result="shape"/>
</filter>
</defs>
</svg>
